{"glyphs":{"0":{"ha":842,"x_min":69,"x_max":772,"o":"m 421 -19 q 233 46 313 -19 q 112 228 154 111 q 69 494 69 344 q 114 755 69 642 q 238 930 158 868 q 421 992 318 992 q 606 930 526 992 q 728 756 685 868 q 772 494 772 643 q 731 228 772 344 q 609 46 689 111 q 421 -19 529 -19 m 421 107 q 581 208 525 107 q 638 494 638 308 q 580 771 638 676 q 421 865 522 865 q 264 770 324 865 q 204 494 204 675 q 260 208 204 308 q 421 107 317 107 z "},"1":{"ha":408,"x_min":39,"x_max":306,"o":"m 179 783 q 56 699 122 724 l 39 821 q 140 883 89 840 q 217 972 190 925 l 306 972 l 306 0 l 179 0 l 179 783 z "},"2":{"ha":626,"x_min":72,"x_max":563,"o":"m 293 404 q 381 588 356 518 q 407 726 407 658 q 371 828 407 790 q 274 865 335 865 q 101 799 188 865 l 89 924 q 293 992 189 992 q 476 920 410 992 q 542 739 542 849 q 511 570 542 650 q 400 343 481 490 l 281 124 l 563 124 l 563 0 l 72 0 l 293 404 z "},"3":{"ha":626,"x_min":42,"x_max":557,"o":"m 392 504 q 514 412 471 474 q 557 256 557 350 q 519 111 557 174 q 414 15 481 49 q 264 -19 347 -19 q 42 29 143 -19 l 74 154 q 162 119 119 131 q 256 107 204 107 q 377 151 332 107 q 422 263 422 194 q 375 393 422 346 q 233 440 328 440 l 210 440 l 210 558 l 233 558 q 353 601 314 558 q 392 719 392 643 q 358 828 392 790 q 261 865 325 865 q 181 850 219 865 q 99 806 142 835 l 76 942 q 272 992 167 992 q 460 919 393 992 q 526 732 526 847 q 491 595 526 654 q 392 504 456 536 z "},"4":{"ha":628,"x_min":17,"x_max":603,"o":"m 603 343 l 603 238 l 506 238 l 506 0 l 379 0 l 379 238 l 17 238 l 413 972 l 506 972 l 506 343 l 603 343 m 379 343 l 379 688 l 197 343 l 379 343 z "},"5":{"ha":631,"x_min":57,"x_max":581,"o":"m 292 614 q 447 574 381 614 q 547 463 513 533 q 581 301 581 392 q 540 133 581 206 q 430 20 500 60 q 272 -19 360 -19 q 158 -3 214 -19 q 57 40 101 13 l 89 161 q 269 107 181 107 q 397 160 347 107 q 446 301 446 213 q 392 449 446 397 q 250 500 339 500 q 108 479 175 500 l 168 972 l 538 972 l 532 856 l 278 856 l 249 613 q 292 614 263 614 z "},"6":{"ha":667,"x_min":72,"x_max":619,"o":"m 372 583 q 499 545 443 583 q 588 440 556 507 q 619 289 619 372 q 585 130 619 200 q 490 20 551 60 q 347 -19 428 -19 q 144 74 215 -19 q 72 328 72 168 q 125 602 72 471 q 260 833 178 733 q 435 992 343 933 l 519 911 q 340 751 421 849 q 224 533 260 653 q 372 583 285 583 m 347 93 q 450 147 413 93 q 488 285 488 201 q 450 418 488 365 q 347 471 413 471 q 245 418 282 471 q 208 283 208 365 q 245 146 208 199 q 347 93 282 93 z "},"7":{"ha":588,"x_min":42,"x_max":574,"o":"m 574 972 l 249 0 l 117 0 l 404 856 l 42 856 l 42 972 l 574 972 z "},"8":{"ha":736,"x_min":75,"x_max":661,"o":"m 533 535 q 628 432 594 497 q 661 281 661 367 q 626 126 661 194 q 524 19 590 58 q 365 -19 457 -19 q 209 19 275 -19 q 109 126 143 58 q 75 281 75 193 q 108 433 75 367 q 201 535 140 499 q 141 622 163 571 q 119 736 119 674 q 181 917 119 842 q 365 992 242 992 q 551 917 490 992 q 611 736 611 842 q 592 621 611 672 q 533 535 572 569 m 365 872 q 281 834 310 872 q 251 731 251 796 q 281 626 251 668 q 365 585 311 585 q 450 626 419 585 q 481 731 481 668 q 451 833 481 794 q 365 872 421 872 m 365 99 q 483 151 440 99 q 526 288 526 204 q 484 421 526 371 q 365 471 442 471 q 251 421 292 471 q 211 288 211 371 q 251 151 211 203 q 365 99 292 99 z "},"9":{"ha":667,"x_min":47,"x_max":594,"o":"m 319 992 q 523 898 451 992 q 594 644 594 804 q 542 370 594 501 q 406 139 489 239 q 233 -19 324 39 l 149 61 q 327 222 247 125 q 443 439 407 319 q 294 389 382 389 q 167 427 224 389 q 79 533 111 465 q 47 683 47 600 q 81 842 47 772 q 177 952 115 913 q 319 992 239 992 m 319 501 q 422 554 385 501 q 460 689 460 607 q 423 826 460 774 q 319 879 386 879 q 217 825 254 879 q 179 688 179 771 q 217 554 179 607 q 319 501 254 501 z "},"\r":{"ha":269,"x_min":0,"x_max":0,"o":""}," ":{"ha":269,"x_min":0,"x_max":0,"o":""},"A":{"ha":750,"x_min":11,"x_max":739,"o":"m 526 264 l 225 264 l 147 0 l 11 0 l 310 972 l 440 972 l 739 0 l 604 0 l 526 264 m 492 382 l 375 776 l 260 382 l 492 382 z "},"Á":{"ha":750,"x_min":11,"x_max":739,"o":"m 526 264 l 225 264 l 147 0 l 11 0 l 310 972 l 440 972 l 739 0 l 604 0 l 526 264 m 492 382 l 375 776 l 260 382 l 492 382 m 275 1142 l 479 1254 l 479 1125 l 275 1061 l 275 1142 z "},"Ă":{"ha":750,"x_min":11,"x_max":739,"o":"m 526 264 l 225 264 l 147 0 l 11 0 l 310 972 l 440 972 l 739 0 l 604 0 l 526 264 m 492 382 l 375 776 l 260 382 l 492 382 m 376 1061 q 236 1108 285 1061 q 188 1219 188 1154 l 299 1219 q 320 1165 299 1183 q 376 1146 342 1146 q 433 1165 411 1146 q 454 1219 454 1183 l 565 1219 q 517 1108 565 1154 q 376 1061 468 1061 z "},"Ắ":{"ha":750,"x_min":11,"x_max":739,"o":"m 526 264 l 225 264 l 147 0 l 11 0 l 310 972 l 440 972 l 739 0 l 604 0 l 526 264 m 492 382 l 375 776 l 260 382 l 492 382 m 376 1061 q 236 1108 285 1061 q 188 1219 188 1154 l 299 1219 q 320 1165 299 1183 q 376 1146 342 1146 q 433 1165 411 1146 q 454 1219 454 1183 l 565 1219 q 517 1108 565 1154 q 376 1061 468 1061 m 275 1361 l 479 1474 l 479 1344 l 275 1281 l 275 1361 z "},"Ặ":{"ha":750,"x_min":11,"x_max":739,"o":"m 526 264 l 225 264 l 147 0 l 11 0 l 310 972 l 440 972 l 739 0 l 604 0 l 526 264 m 492 382 l 375 776 l 260 382 l 492 382 m 376 1092 q 236 1140 285 1092 q 188 1260 188 1189 l 296 1260 q 316 1203 296 1224 q 376 1182 336 1182 q 437 1203 417 1182 q 457 1260 457 1224 l 565 1260 q 517 1140 565 1189 q 376 1092 468 1092 m 315 -112 l 438 -112 l 438 -236 l 315 -236 l 315 -112 z "},"Ằ":{"ha":750,"x_min":11,"x_max":739,"o":"m 526 264 l 225 264 l 147 0 l 11 0 l 310 972 l 440 972 l 739 0 l 604 0 l 526 264 m 492 382 l 375 776 l 260 382 l 492 382 m 376 1060 q 236 1106 285 1060 q 188 1218 188 1153 l 299 1218 q 320 1163 299 1182 q 376 1144 342 1144 q 433 1163 411 1144 q 454 1218 454 1182 l 565 1218 q 517 1106 565 1153 q 376 1060 468 1060 m 274 1340 l 274 1472 l 478 1360 l 478 1279 l 274 1340 z "},"Ẳ":{"ha":750,"x_min":11,"x_max":739,"o":"m 526 264 l 225 264 l 147 0 l 11 0 l 310 972 l 440 972 l 739 0 l 604 0 l 526 264 m 492 382 l 375 776 l 260 382 l 492 382 m 376 1061 q 236 1108 285 1061 q 188 1219 188 1154 l 299 1219 q 320 1165 299 1183 q 376 1146 342 1146 q 433 1165 411 1146 q 454 1219 454 1183 l 565 1219 q 517 1108 565 1154 q 376 1061 468 1061 m 376 1296 q 403 1319 394 1307 q 411 1350 411 1332 q 399 1383 411 1372 q 363 1394 386 1394 q 294 1375 333 1394 l 271 1443 q 372 1464 319 1464 q 458 1435 424 1464 q 492 1360 492 1407 q 468 1290 492 1318 q 397 1243 444 1263 l 376 1296 z "},"Ẵ":{"ha":750,"x_min":11,"x_max":739,"o":"m 526 264 l 225 264 l 147 0 l 11 0 l 310 972 l 440 972 l 739 0 l 604 0 l 526 264 m 492 382 l 375 776 l 260 382 l 492 382 m 376 1061 q 236 1108 285 1061 q 188 1219 188 1154 l 299 1219 q 320 1165 299 1183 q 376 1146 342 1146 q 433 1165 411 1146 q 454 1219 454 1183 l 565 1219 q 517 1108 565 1154 q 376 1061 468 1061 m 475 1285 q 431 1292 453 1285 q 379 1314 408 1300 q 351 1326 375 1315 q 308 1336 326 1336 q 278 1324 289 1336 q 267 1292 267 1313 l 176 1292 q 203 1394 176 1358 q 278 1431 229 1431 q 322 1423 300 1431 q 374 1401 344 1415 q 402 1390 378 1400 q 444 1379 426 1379 q 475 1391 464 1379 q 486 1424 486 1403 l 576 1424 q 550 1321 576 1357 q 475 1285 524 1285 z "},"Â":{"ha":750,"x_min":11,"x_max":739,"o":"m 526 264 l 225 264 l 147 0 l 11 0 l 310 972 l 440 972 l 739 0 l 604 0 l 526 264 m 492 382 l 375 776 l 260 382 l 492 382 m 539 1133 l 539 1049 l 376 1135 l 214 1049 l 214 1133 l 376 1249 l 539 1133 z "},"Ấ":{"ha":750,"x_min":11,"x_max":739,"o":"m 526 264 l 225 264 l 147 0 l 11 0 l 310 972 l 440 972 l 739 0 l 604 0 l 526 264 m 492 382 l 375 776 l 260 382 l 492 382 m 553 1400 l 683 1400 l 561 1238 l 475 1238 l 553 1400 m 539 1131 l 539 1046 l 376 1132 l 214 1046 l 214 1131 l 376 1246 l 539 1131 z "},"Ậ":{"ha":750,"x_min":11,"x_max":739,"o":"m 526 264 l 225 264 l 147 0 l 11 0 l 310 972 l 440 972 l 739 0 l 604 0 l 526 264 m 492 382 l 375 776 l 260 382 l 492 382 m 228 1158 l 376 1285 l 525 1158 l 525 1075 l 376 1168 l 228 1075 l 228 1158 m 315 -112 l 438 -112 l 438 -236 l 315 -236 l 315 -112 z "},"Ầ":{"ha":750,"x_min":11,"x_max":739,"o":"m 526 264 l 225 264 l 147 0 l 11 0 l 310 972 l 440 972 l 739 0 l 604 0 l 526 264 m 492 382 l 375 776 l 260 382 l 492 382 m 500 1238 l 393 1400 l 518 1400 l 582 1238 l 500 1238 m 539 1131 l 539 1046 l 376 1132 l 214 1046 l 214 1131 l 376 1246 l 539 1131 z "},"Ẩ":{"ha":750,"x_min":11,"x_max":739,"o":"m 526 264 l 225 264 l 147 0 l 11 0 l 310 972 l 440 972 l 739 0 l 604 0 l 526 264 m 492 382 l 375 776 l 260 382 l 492 382 m 539 1131 l 539 1046 l 376 1132 l 214 1046 l 214 1131 l 376 1246 l 539 1131 m 497 1254 q 524 1278 515 1265 q 532 1308 532 1290 q 519 1342 532 1331 q 483 1353 507 1353 q 415 1333 454 1353 l 392 1401 q 493 1422 440 1422 q 578 1394 544 1422 q 613 1318 613 1365 q 589 1249 613 1276 q 518 1201 565 1221 l 497 1254 z "},"Ẫ":{"ha":750,"x_min":11,"x_max":739,"o":"m 526 264 l 225 264 l 147 0 l 11 0 l 310 972 l 440 972 l 739 0 l 604 0 l 526 264 m 492 382 l 375 776 l 260 382 l 492 382 m 539 1131 l 539 1046 l 376 1132 l 214 1046 l 214 1131 l 376 1246 l 539 1131 m 475 1303 q 431 1310 453 1303 q 379 1332 408 1318 q 351 1344 375 1333 q 308 1354 326 1354 q 278 1342 289 1354 q 267 1310 267 1331 l 176 1310 q 203 1413 176 1376 q 278 1449 229 1449 q 322 1441 300 1449 q 374 1419 344 1433 q 402 1408 378 1418 q 444 1397 426 1397 q 475 1409 464 1397 q 486 1442 486 1421 l 576 1442 q 550 1339 576 1375 q 475 1303 524 1303 z "},"Ȁ":{"ha":750,"x_min":11,"x_max":739,"o":"m 526 264 l 225 264 l 147 0 l 11 0 l 310 972 l 440 972 l 739 0 l 604 0 l 526 264 m 492 382 l 375 776 l 260 382 l 492 382 m 240 1094 l 124 1297 l 253 1297 l 326 1094 l 240 1094 m 429 1094 l 318 1297 l 449 1297 l 515 1094 l 429 1094 z "},"Ä":{"ha":750,"x_min":11,"x_max":739,"o":"m 526 264 l 225 264 l 147 0 l 11 0 l 310 972 l 440 972 l 739 0 l 604 0 l 526 264 m 492 382 l 375 776 l 260 382 l 492 382 m 211 1207 l 328 1207 l 328 1103 l 211 1103 l 211 1207 m 425 1207 l 542 1207 l 542 1103 l 425 1103 l 425 1207 z "},"Ạ":{"ha":750,"x_min":11,"x_max":739,"o":"m 526 264 l 225 264 l 147 0 l 11 0 l 310 972 l 440 972 l 739 0 l 604 0 l 526 264 m 492 382 l 375 776 l 260 382 l 492 382 m 315 -112 l 438 -112 l 438 -236 l 315 -236 l 315 -112 z "},"À":{"ha":750,"x_min":11,"x_max":739,"o":"m 526 264 l 225 264 l 147 0 l 11 0 l 310 972 l 440 972 l 739 0 l 604 0 l 526 264 m 492 382 l 375 776 l 260 382 l 492 382 m 274 1122 l 274 1254 l 478 1142 l 478 1061 l 274 1122 z "},"Ả":{"ha":750,"x_min":11,"x_max":739,"o":"m 526 264 l 225 264 l 147 0 l 11 0 l 310 972 l 440 972 l 739 0 l 604 0 l 526 264 m 492 382 l 375 776 l 260 382 l 492 382 m 350 1067 q 390 1117 379 1099 q 400 1158 400 1136 q 388 1192 400 1181 q 354 1204 375 1204 q 281 1181 324 1204 l 257 1247 q 361 1271 301 1271 q 445 1242 413 1271 q 478 1163 478 1213 q 459 1090 478 1121 q 397 1021 440 1060 l 350 1067 z "},"Ȃ":{"ha":750,"x_min":11,"x_max":739,"o":"m 526 264 l 225 264 l 147 0 l 11 0 l 310 972 l 440 972 l 739 0 l 604 0 l 526 264 m 492 382 l 375 776 l 260 382 l 492 382 m 376 1240 q 517 1194 468 1240 q 565 1082 565 1147 l 454 1082 q 433 1136 454 1118 q 376 1154 411 1154 q 320 1136 342 1154 q 299 1082 299 1118 l 188 1082 q 236 1194 188 1147 q 376 1240 285 1240 z "},"Ā":{"ha":750,"x_min":11,"x_max":739,"o":"m 526 264 l 225 264 l 147 0 l 11 0 l 310 972 l 440 972 l 739 0 l 604 0 l 526 264 m 492 382 l 375 776 l 260 382 l 492 382 m 168 1193 l 585 1193 l 585 1101 l 168 1101 l 168 1193 z "},"Ą":{"ha":750,"x_min":11,"x_max":763,"o":"m 526 264 l 225 264 l 147 0 l 11 0 l 310 972 l 440 972 l 739 0 l 604 0 l 526 264 m 492 382 l 375 776 l 260 382 l 492 382 m 710 0 q 639 -83 663 -47 q 615 -157 615 -119 q 633 -202 615 -186 q 682 -218 651 -218 q 742 -206 713 -218 l 763 -271 q 671 -289 724 -289 q 574 -258 613 -289 q 535 -174 535 -228 q 562 -84 535 -125 q 636 0 589 -43 l 710 0 z "},"Å":{"ha":750,"x_min":11,"x_max":739,"o":"m 526 264 l 225 264 l 147 0 l 11 0 l 310 972 l 440 972 l 739 0 l 604 0 l 526 264 m 492 382 l 375 776 l 260 382 l 492 382 m 376 1050 q 280 1090 314 1050 q 246 1186 246 1129 q 281 1282 246 1242 q 376 1322 315 1322 q 472 1282 438 1322 q 507 1186 507 1242 q 473 1090 507 1129 q 376 1050 439 1050 m 376 1111 q 421 1131 404 1111 q 438 1186 438 1151 q 421 1240 438 1219 q 376 1261 404 1261 q 332 1240 349 1261 q 315 1186 315 1219 q 332 1131 315 1151 q 376 1111 349 1111 z "},"Ǻ":{"ha":750,"x_min":11,"x_max":739,"o":"m 526 264 l 225 264 l 147 0 l 11 0 l 310 972 l 440 972 l 739 0 l 604 0 l 526 264 m 492 382 l 375 776 l 260 382 l 492 382 m 376 1050 q 280 1090 314 1050 q 246 1186 246 1129 q 281 1282 246 1242 q 376 1322 315 1322 q 472 1282 438 1322 q 507 1186 507 1242 q 473 1090 507 1129 q 376 1050 439 1050 m 376 1111 q 421 1131 404 1111 q 438 1186 438 1151 q 421 1240 438 1219 q 376 1261 404 1261 q 332 1240 349 1261 q 315 1186 315 1219 q 332 1131 315 1151 q 376 1111 349 1111 m 275 1449 l 479 1561 l 479 1432 l 275 1368 l 275 1449 z "},"Ã":{"ha":750,"x_min":11,"x_max":739,"o":"m 526 264 l 225 264 l 147 0 l 11 0 l 310 972 l 440 972 l 739 0 l 604 0 l 526 264 m 492 382 l 375 776 l 260 382 l 492 382 m 475 1094 q 431 1102 453 1094 q 379 1124 408 1110 q 351 1135 375 1125 q 308 1146 326 1146 q 278 1134 289 1146 q 267 1101 267 1122 l 176 1101 q 203 1204 176 1168 q 278 1240 229 1240 q 322 1233 300 1240 q 374 1211 344 1225 q 402 1199 378 1210 q 444 1189 426 1189 q 475 1201 464 1189 q 486 1233 486 1213 l 576 1233 q 550 1131 576 1167 q 475 1094 524 1094 z "},"Æ":{"ha":1044,"x_min":-7,"x_max":1004,"o":"m 1004 115 l 1004 0 l 474 0 l 474 257 l 235 257 l 126 0 l -7 0 l 404 972 l 993 972 l 993 857 l 600 857 l 600 567 l 910 567 l 910 450 l 600 450 l 600 115 l 1004 115 m 474 375 l 474 828 l 283 375 l 474 375 z "},"Ǽ":{"ha":1044,"x_min":-7,"x_max":1004,"o":"m 1004 115 l 1004 0 l 474 0 l 474 257 l 235 257 l 126 0 l -7 0 l 404 972 l 993 972 l 993 857 l 600 857 l 600 567 l 910 567 l 910 450 l 600 450 l 600 115 l 1004 115 m 474 375 l 474 828 l 283 375 l 474 375 m 599 1142 l 803 1254 l 803 1125 l 599 1061 l 599 1142 z "},"B":{"ha":738,"x_min":92,"x_max":685,"o":"m 528 524 q 685 278 685 465 q 610 75 685 150 q 406 0 536 0 l 92 0 l 92 972 l 344 972 q 544 912 474 972 q 615 733 615 851 q 593 609 615 664 q 528 524 571 554 m 218 567 l 329 567 q 447 598 413 567 q 481 714 481 629 q 447 826 481 796 q 329 857 413 857 l 218 857 l 218 567 m 394 115 q 506 158 465 115 q 547 282 547 200 q 508 410 547 371 q 394 450 468 450 l 218 450 l 218 115 l 394 115 z "},"C":{"ha":728,"x_min":42,"x_max":692,"o":"m 486 -19 q 251 42 351 -19 q 97 219 151 104 q 42 486 42 333 q 98 752 42 638 q 254 929 154 867 q 481 992 354 992 q 692 950 592 992 l 678 832 q 506 876 589 876 q 330 825 403 876 q 219 685 257 774 q 182 486 182 596 q 219 288 182 376 q 330 147 257 199 q 507 96 403 96 q 678 138 597 96 l 692 19 q 486 -19 603 -19 z "},"Ć":{"ha":728,"x_min":42,"x_max":692,"o":"m 486 -19 q 251 42 351 -19 q 97 219 151 104 q 42 486 42 333 q 98 752 42 638 q 254 929 154 867 q 481 992 354 992 q 692 950 592 992 l 678 832 q 506 876 589 876 q 330 825 403 876 q 219 685 257 774 q 182 486 182 596 q 219 288 182 376 q 330 147 257 199 q 507 96 403 96 q 678 138 597 96 l 692 19 q 486 -19 603 -19 m 364 1142 l 568 1254 l 568 1125 l 364 1061 l 364 1142 z "},"Č":{"ha":728,"x_min":42,"x_max":692,"o":"m 486 -19 q 251 42 351 -19 q 97 219 151 104 q 42 486 42 333 q 98 752 42 638 q 254 929 154 867 q 481 992 354 992 q 692 950 592 992 l 678 832 q 506 876 589 876 q 330 825 403 876 q 219 685 257 774 q 182 486 182 596 q 219 288 182 376 q 330 147 257 199 q 507 96 403 96 q 678 138 597 96 l 692 19 q 486 -19 603 -19 m 303 1203 l 303 1288 l 465 1201 l 628 1288 l 628 1203 l 465 1088 l 303 1203 z "},"Ç":{"ha":728,"x_min":42,"x_max":692,"o":"m 692 19 q 500 -19 606 -18 l 482 -75 q 565 -106 535 -75 q 594 -187 594 -136 q 555 -281 594 -247 q 454 -314 515 -314 q 363 -296 401 -314 l 383 -231 q 454 -246 418 -246 q 502 -231 485 -246 q 519 -187 519 -217 q 504 -147 519 -161 q 460 -132 489 -132 q 408 -140 438 -132 l 438 -17 q 227 59 317 -6 q 90 233 138 124 q 42 486 42 343 q 98 752 42 638 q 254 929 154 867 q 481 992 354 992 q 692 950 592 992 l 678 832 q 506 876 589 876 q 330 825 403 876 q 219 685 257 774 q 182 486 182 596 q 219 288 182 376 q 330 147 257 199 q 507 96 403 96 q 678 138 597 96 l 692 19 z "},"Ḉ":{"ha":728,"x_min":42,"x_max":692,"o":"m 568 1125 l 364 1061 l 364 1142 l 568 1254 l 568 1125 m 692 19 q 500 -19 606 -18 l 482 -75 q 565 -106 535 -75 q 594 -187 594 -136 q 555 -281 594 -247 q 454 -314 515 -314 q 363 -296 401 -314 l 383 -231 q 454 -246 418 -246 q 502 -231 485 -246 q 519 -187 519 -217 q 504 -147 519 -161 q 460 -132 489 -132 q 408 -140 438 -132 l 438 -17 q 227 59 317 -6 q 90 233 138 124 q 42 486 42 343 q 98 752 42 638 q 254 929 154 867 q 481 992 354 992 q 692 950 592 992 l 678 832 q 506 876 589 876 q 330 825 403 876 q 219 685 257 774 q 182 486 182 596 q 219 288 182 376 q 330 147 257 199 q 507 96 403 96 q 678 138 597 96 l 692 19 z "},"Ĉ":{"ha":728,"x_min":42,"x_max":692,"o":"m 486 -19 q 251 42 351 -19 q 97 219 151 104 q 42 486 42 333 q 98 752 42 638 q 254 929 154 867 q 481 992 354 992 q 692 950 592 992 l 678 832 q 506 876 589 876 q 330 825 403 876 q 219 685 257 774 q 182 486 182 596 q 219 288 182 376 q 330 147 257 199 q 507 96 403 96 q 678 138 597 96 l 692 19 q 486 -19 603 -19 m 628 1133 l 628 1049 l 465 1135 l 303 1049 l 303 1133 l 465 1249 l 628 1133 z "},"Ċ":{"ha":728,"x_min":42,"x_max":692,"o":"m 486 -19 q 251 42 351 -19 q 97 219 151 104 q 42 486 42 333 q 98 752 42 638 q 254 929 154 867 q 481 992 354 992 q 692 950 592 992 l 678 832 q 506 876 589 876 q 330 825 403 876 q 219 685 257 774 q 182 486 182 596 q 219 288 182 376 q 330 147 257 199 q 507 96 403 96 q 678 138 597 96 l 692 19 q 486 -19 603 -19 m 401 1222 l 529 1222 l 529 1099 l 401 1099 l 401 1222 z "},"D":{"ha":860,"x_min":92,"x_max":817,"o":"m 92 972 l 403 972 q 617 914 524 972 q 764 746 711 856 q 817 486 817 636 q 764 226 817 336 q 617 58 711 117 q 403 0 524 0 l 92 0 l 92 972 m 379 115 q 601 213 525 115 q 676 486 676 310 q 601 760 676 663 q 379 857 525 857 l 218 857 l 218 115 l 379 115 z "},"Ǆ":{"ha":1507,"x_min":92,"x_max":1492,"o":"m 92 972 l 403 972 q 617 914 524 972 q 764 746 711 856 q 817 486 817 636 q 764 226 817 336 q 617 58 711 117 q 403 0 524 0 l 92 0 l 92 972 m 379 115 q 601 213 525 115 q 676 486 676 310 q 601 760 676 663 q 379 857 525 857 l 218 857 l 218 115 l 379 115 m 1492 118 l 1492 0 l 850 0 l 1290 854 l 904 854 l 904 972 l 1486 972 l 1046 118 l 1492 118 m 1047 1196 l 1047 1279 l 1196 1185 l 1344 1279 l 1344 1196 l 1196 1067 l 1047 1196 z "},"Ð":{"ha":865,"x_min":14,"x_max":822,"o":"m 100 435 l 14 435 l 14 551 l 100 551 l 100 972 l 408 972 q 623 914 529 972 q 769 746 717 856 q 822 486 822 636 q 769 226 822 336 q 623 58 717 117 q 408 0 529 0 l 100 0 l 100 435 m 385 115 q 606 213 531 115 q 682 486 682 310 q 606 760 682 663 q 385 857 531 857 l 226 857 l 226 551 l 392 551 l 392 435 l 226 435 l 226 115 l 385 115 z "},"Ď":{"ha":860,"x_min":92,"x_max":817,"o":"m 92 972 l 403 972 q 617 914 524 972 q 764 746 711 856 q 817 486 817 636 q 764 226 817 336 q 617 58 711 117 q 403 0 524 0 l 92 0 l 92 972 m 379 115 q 601 213 525 115 q 676 486 676 310 q 601 760 676 663 q 379 857 525 857 l 218 857 l 218 115 l 379 115 m 268 1203 l 268 1288 l 431 1201 l 593 1288 l 593 1203 l 431 1088 l 268 1203 z "},"Đ":{"ha":865,"x_min":14,"x_max":822,"o":"m 100 435 l 14 435 l 14 551 l 100 551 l 100 972 l 408 972 q 623 914 529 972 q 769 746 717 856 q 822 486 822 636 q 769 226 822 336 q 623 58 717 117 q 408 0 529 0 l 100 0 l 100 435 m 385 115 q 606 213 531 115 q 682 486 682 310 q 606 760 682 663 q 385 857 531 857 l 226 857 l 226 551 l 392 551 l 392 435 l 226 435 l 226 115 l 385 115 z "},"Ḍ":{"ha":860,"x_min":92,"x_max":817,"o":"m 92 972 l 403 972 q 617 914 524 972 q 764 746 711 856 q 817 486 817 636 q 764 226 817 336 q 617 58 711 117 q 403 0 524 0 l 92 0 l 92 972 m 379 115 q 601 213 525 115 q 676 486 676 310 q 601 760 676 663 q 379 857 525 857 l 218 857 l 218 115 l 379 115 m 369 -112 l 492 -112 l 492 -236 l 369 -236 l 369 -112 z "},"Ḏ":{"ha":860,"x_min":92,"x_max":817,"o":"m 92 972 l 403 972 q 617 914 524 972 q 764 746 711 856 q 817 486 817 636 q 764 226 817 336 q 617 58 711 117 q 403 0 524 0 l 92 0 l 92 972 m 379 115 q 601 213 525 115 q 676 486 676 310 q 601 760 676 663 q 379 857 525 857 l 218 857 l 218 115 l 379 115 m 236 -129 l 625 -129 l 625 -224 l 236 -224 l 236 -129 z "},"ǅ":{"ha":1417,"x_min":92,"x_max":1386,"o":"m 92 972 l 403 972 q 617 914 524 972 q 764 746 711 856 q 817 486 817 636 q 764 226 817 336 q 617 58 711 117 q 403 0 524 0 l 92 0 l 92 972 m 379 115 q 601 213 525 115 q 676 486 676 310 q 601 760 676 663 q 379 857 525 857 l 218 857 l 218 115 l 379 115 m 1074 108 l 1379 108 l 1379 0 l 878 0 l 1190 571 l 893 571 l 893 681 l 1386 681 l 1074 108 m 992 904 l 992 988 l 1140 893 l 1289 988 l 1289 904 l 1140 775 l 992 904 z "},"E":{"ha":663,"x_min":92,"x_max":622,"o":"m 92 972 l 611 972 l 611 857 l 218 857 l 218 567 l 529 567 l 529 450 l 218 450 l 218 115 l 622 115 l 622 0 l 92 0 l 92 972 z "},"É":{"ha":663,"x_min":92,"x_max":622,"o":"m 92 972 l 611 972 l 611 857 l 218 857 l 218 567 l 529 567 l 529 450 l 218 450 l 218 115 l 622 115 l 622 0 l 92 0 l 92 972 m 251 1188 l 456 1318 l 456 1182 l 251 1103 l 251 1188 z "},"Ĕ":{"ha":663,"x_min":92,"x_max":622,"o":"m 92 972 l 611 972 l 611 857 l 218 857 l 218 567 l 529 567 l 529 450 l 218 450 l 218 115 l 622 115 l 622 0 l 92 0 l 92 972 m 353 1092 q 213 1140 261 1092 q 164 1260 164 1189 l 272 1260 q 292 1203 272 1224 q 353 1182 313 1182 q 413 1203 393 1182 q 433 1260 433 1224 l 542 1260 q 493 1140 542 1189 q 353 1092 444 1092 z "},"Ě":{"ha":663,"x_min":92,"x_max":622,"o":"m 92 972 l 611 972 l 611 857 l 218 857 l 218 567 l 529 567 l 529 450 l 218 450 l 218 115 l 622 115 l 622 0 l 92 0 l 92 972 m 204 1196 l 204 1279 l 353 1185 l 501 1279 l 501 1196 l 353 1067 l 204 1196 z "},"Ḝ":{"ha":663,"x_min":92,"x_max":622,"o":"m 92 972 l 611 972 l 611 857 l 218 857 l 218 567 l 529 567 l 529 450 l 218 450 l 218 115 l 622 115 l 622 0 l 92 0 l 92 972 m 379 -75 q 462 -106 432 -75 q 492 -187 492 -136 q 452 -281 492 -247 q 351 -314 413 -314 q 260 -296 299 -314 l 281 -231 q 351 -246 315 -246 q 399 -231 382 -246 q 417 -187 417 -217 q 401 -147 417 -161 q 357 -132 386 -132 q 306 -140 335 -132 l 339 0 l 403 0 l 379 -75 m 353 1061 q 213 1108 261 1061 q 164 1219 164 1154 l 275 1219 q 297 1165 275 1183 q 353 1146 318 1146 q 409 1165 388 1146 q 431 1219 431 1183 l 542 1219 q 493 1108 542 1154 q 353 1061 444 1061 z "},"Ê":{"ha":663,"x_min":92,"x_max":622,"o":"m 92 972 l 611 972 l 611 857 l 218 857 l 218 567 l 529 567 l 529 450 l 218 450 l 218 115 l 622 115 l 622 0 l 92 0 l 92 972 m 204 1158 l 353 1285 l 501 1158 l 501 1075 l 353 1168 l 204 1075 l 204 1158 z "},"Ế":{"ha":663,"x_min":92,"x_max":660,"o":"m 92 972 l 611 972 l 611 857 l 218 857 l 218 567 l 529 567 l 529 450 l 218 450 l 218 115 l 622 115 l 622 0 l 92 0 l 92 972 m 529 1400 l 660 1400 l 538 1238 l 451 1238 l 529 1400 m 515 1131 l 515 1046 l 353 1132 l 190 1046 l 190 1131 l 353 1246 l 515 1131 z "},"Ệ":{"ha":663,"x_min":92,"x_max":622,"o":"m 92 972 l 611 972 l 611 857 l 218 857 l 218 567 l 529 567 l 529 450 l 218 450 l 218 115 l 622 115 l 622 0 l 92 0 l 92 972 m 204 1158 l 353 1285 l 501 1158 l 501 1075 l 353 1168 l 204 1075 l 204 1158 m 297 -112 l 419 -112 l 419 -236 l 297 -236 l 297 -112 z "},"Ề":{"ha":663,"x_min":92,"x_max":622,"o":"m 92 972 l 611 972 l 611 857 l 218 857 l 218 567 l 529 567 l 529 450 l 218 450 l 218 115 l 622 115 l 622 0 l 92 0 l 92 972 m 476 1238 l 369 1400 l 494 1400 l 558 1238 l 476 1238 m 515 1131 l 515 1046 l 353 1132 l 190 1046 l 190 1131 l 353 1246 l 515 1131 z "},"Ể":{"ha":663,"x_min":92,"x_max":622,"o":"m 92 972 l 611 972 l 611 857 l 218 857 l 218 567 l 529 567 l 529 450 l 218 450 l 218 115 l 622 115 l 622 0 l 92 0 l 92 972 m 515 1131 l 515 1046 l 353 1132 l 190 1046 l 190 1131 l 353 1246 l 515 1131 m 474 1254 q 500 1278 492 1265 q 508 1308 508 1290 q 496 1342 508 1331 q 460 1353 483 1353 q 392 1333 431 1353 l 368 1401 q 469 1422 417 1422 q 555 1394 521 1422 q 589 1318 589 1365 q 565 1249 589 1276 q 494 1201 542 1221 l 474 1254 z "},"Ễ":{"ha":663,"x_min":92,"x_max":622,"o":"m 92 972 l 611 972 l 611 857 l 218 857 l 218 567 l 529 567 l 529 450 l 218 450 l 218 115 l 622 115 l 622 0 l 92 0 l 92 972 m 515 1131 l 515 1046 l 353 1132 l 190 1046 l 190 1131 l 353 1246 l 515 1131 m 451 1303 q 407 1310 429 1303 q 356 1332 385 1318 q 327 1344 351 1333 q 285 1354 303 1354 q 254 1342 265 1354 q 243 1310 243 1331 l 153 1310 q 179 1413 153 1376 q 254 1449 206 1449 q 299 1441 276 1449 q 350 1419 321 1433 q 378 1408 354 1418 q 421 1397 403 1397 q 451 1409 440 1397 q 463 1442 463 1421 l 553 1442 q 526 1339 553 1375 q 451 1303 500 1303 z "},"Ȅ":{"ha":663,"x_min":92,"x_max":622,"o":"m 92 972 l 611 972 l 611 857 l 218 857 l 218 567 l 529 567 l 529 450 l 218 450 l 218 115 l 622 115 l 622 0 l 92 0 l 92 972 m 217 1094 l 100 1297 l 229 1297 l 303 1094 l 217 1094 m 406 1094 l 294 1297 l 425 1297 l 492 1094 l 406 1094 z "},"Ë":{"ha":663,"x_min":92,"x_max":622,"o":"m 92 972 l 611 972 l 611 857 l 218 857 l 218 567 l 529 567 l 529 450 l 218 450 l 218 115 l 622 115 l 622 0 l 92 0 l 92 972 m 188 1224 l 301 1224 l 301 1113 l 188 1113 l 188 1224 m 404 1224 l 518 1224 l 518 1113 l 404 1113 l 404 1224 z "},"Ė":{"ha":663,"x_min":92,"x_max":622,"o":"m 92 972 l 611 972 l 611 857 l 218 857 l 218 567 l 529 567 l 529 450 l 218 450 l 218 115 l 622 115 l 622 0 l 92 0 l 92 972 m 289 1222 l 417 1222 l 417 1099 l 289 1099 l 289 1222 z "},"Ẹ":{"ha":663,"x_min":92,"x_max":622,"o":"m 92 972 l 611 972 l 611 857 l 218 857 l 218 567 l 529 567 l 529 450 l 218 450 l 218 115 l 622 115 l 622 0 l 92 0 l 92 972 m 297 -112 l 419 -112 l 419 -236 l 297 -236 l 297 -112 z "},"È":{"ha":663,"x_min":92,"x_max":622,"o":"m 92 972 l 611 972 l 611 857 l 218 857 l 218 567 l 529 567 l 529 450 l 218 450 l 218 115 l 622 115 l 622 0 l 92 0 l 92 972 m 250 1182 l 250 1319 l 454 1190 l 454 1103 l 250 1182 z "},"Ẻ":{"ha":663,"x_min":92,"x_max":622,"o":"m 92 972 l 611 972 l 611 857 l 218 857 l 218 567 l 529 567 l 529 450 l 218 450 l 218 115 l 622 115 l 622 0 l 92 0 l 92 972 m 326 1067 q 366 1117 356 1099 q 376 1158 376 1136 q 364 1192 376 1181 q 331 1204 351 1204 q 257 1181 300 1204 l 233 1247 q 338 1271 278 1271 q 422 1242 389 1271 q 454 1163 454 1213 q 435 1090 454 1121 q 374 1021 417 1060 l 326 1067 z "},"Ȇ":{"ha":663,"x_min":92,"x_max":622,"o":"m 92 972 l 611 972 l 611 857 l 218 857 l 218 567 l 529 567 l 529 450 l 218 450 l 218 115 l 622 115 l 622 0 l 92 0 l 92 972 m 353 1240 q 493 1194 444 1240 q 542 1082 542 1147 l 431 1082 q 409 1136 431 1118 q 353 1154 388 1154 q 297 1136 318 1154 q 275 1082 275 1118 l 164 1082 q 213 1194 164 1147 q 353 1240 261 1240 z "},"Ē":{"ha":663,"x_min":92,"x_max":622,"o":"m 92 972 l 611 972 l 611 857 l 218 857 l 218 567 l 529 567 l 529 450 l 218 450 l 218 115 l 622 115 l 622 0 l 92 0 l 92 972 m 144 1193 l 561 1193 l 561 1101 l 144 1101 l 144 1193 z "},"Ḗ":{"ha":663,"x_min":92,"x_max":622,"o":"m 92 972 l 611 972 l 611 857 l 218 857 l 218 567 l 529 567 l 529 450 l 218 450 l 218 115 l 622 115 l 622 0 l 92 0 l 92 972 m 144 1193 l 561 1193 l 561 1101 l 144 1101 l 144 1193 m 251 1354 l 456 1467 l 456 1338 l 251 1274 l 251 1354 z "},"Ḕ":{"ha":663,"x_min":92,"x_max":622,"o":"m 92 972 l 611 972 l 611 857 l 218 857 l 218 567 l 529 567 l 529 450 l 218 450 l 218 115 l 622 115 l 622 0 l 92 0 l 92 972 m 144 1193 l 561 1193 l 561 1101 l 144 1101 l 144 1193 m 250 1335 l 250 1467 l 454 1354 l 454 1274 l 250 1335 z "},"Ę":{"ha":663,"x_min":92,"x_max":676,"o":"m 92 972 l 611 972 l 611 857 l 218 857 l 218 567 l 529 567 l 529 450 l 218 450 l 218 115 l 622 115 l 622 0 l 92 0 l 92 972 m 624 0 q 553 -83 576 -47 q 529 -157 529 -119 q 547 -202 529 -186 q 596 -218 565 -218 q 656 -206 626 -218 l 676 -271 q 585 -289 638 -289 q 488 -258 526 -289 q 449 -174 449 -228 q 476 -84 449 -125 q 550 0 503 -43 l 624 0 z "},"Ẽ":{"ha":663,"x_min":92,"x_max":622,"o":"m 92 972 l 611 972 l 611 857 l 218 857 l 218 567 l 529 567 l 529 450 l 218 450 l 218 115 l 622 115 l 622 0 l 92 0 l 92 972 m 450 1097 q 401 1107 422 1097 q 351 1135 381 1117 q 288 1163 314 1163 q 260 1148 269 1163 q 250 1108 250 1133 l 150 1108 q 256 1263 157 1263 q 304 1253 283 1263 q 354 1225 325 1243 q 418 1197 392 1197 q 446 1212 436 1197 q 456 1251 456 1226 l 556 1251 q 450 1097 549 1097 z "},"F":{"ha":625,"x_min":92,"x_max":604,"o":"m 92 972 l 604 972 l 604 857 l 218 857 l 218 568 l 517 568 l 517 451 l 218 451 l 218 0 l 92 0 l 92 972 z "},"G":{"ha":793,"x_min":42,"x_max":738,"o":"m 497 -19 q 254 45 357 -19 q 97 224 151 110 q 42 486 42 339 q 100 752 42 638 q 260 929 158 867 q 493 992 363 992 q 710 950 613 992 l 696 832 q 605 865 650 854 q 506 876 560 876 q 330 825 403 876 q 219 685 257 774 q 182 486 182 596 q 264 203 182 311 q 504 96 346 96 q 611 115 565 96 l 611 372 l 488 372 l 488 488 l 738 488 l 738 44 q 628 -2 692 15 q 497 -19 564 -19 z "},"Ğ":{"ha":793,"x_min":42,"x_max":738,"o":"m 497 -19 q 254 45 357 -19 q 97 224 151 110 q 42 486 42 339 q 100 752 42 638 q 260 929 158 867 q 493 992 363 992 q 710 950 613 992 l 696 832 q 605 865 650 854 q 506 876 560 876 q 330 825 403 876 q 219 685 257 774 q 182 486 182 596 q 264 203 182 311 q 504 96 346 96 q 611 115 565 96 l 611 372 l 488 372 l 488 488 l 738 488 l 738 44 q 628 -2 692 15 q 497 -19 564 -19 m 486 1061 q 346 1108 394 1061 q 297 1219 297 1154 l 408 1219 q 430 1165 408 1183 q 486 1146 451 1146 q 542 1165 521 1146 q 564 1219 564 1183 l 675 1219 q 626 1108 675 1154 q 486 1061 578 1061 z "},"Ǧ":{"ha":793,"x_min":42,"x_max":738,"o":"m 497 -19 q 254 45 357 -19 q 97 224 151 110 q 42 486 42 339 q 100 752 42 638 q 260 929 158 867 q 493 992 363 992 q 710 950 613 992 l 696 832 q 605 865 650 854 q 506 876 560 876 q 330 825 403 876 q 219 685 257 774 q 182 486 182 596 q 264 203 182 311 q 504 96 346 96 q 611 115 565 96 l 611 372 l 488 372 l 488 488 l 738 488 l 738 44 q 628 -2 692 15 q 497 -19 564 -19 m 324 1203 l 324 1288 l 486 1201 l 649 1288 l 649 1203 l 486 1088 l 324 1203 z "},"Ĝ":{"ha":793,"x_min":42,"x_max":738,"o":"m 497 -19 q 254 45 357 -19 q 97 224 151 110 q 42 486 42 339 q 100 752 42 638 q 260 929 158 867 q 493 992 363 992 q 710 950 613 992 l 696 832 q 605 865 650 854 q 506 876 560 876 q 330 825 403 876 q 219 685 257 774 q 182 486 182 596 q 264 203 182 311 q 504 96 346 96 q 611 115 565 96 l 611 372 l 488 372 l 488 488 l 738 488 l 738 44 q 628 -2 692 15 q 497 -19 564 -19 m 649 1133 l 649 1049 l 486 1135 l 324 1049 l 324 1133 l 486 1249 l 649 1133 z "},"Ģ":{"ha":793,"x_min":42,"x_max":738,"o":"m 497 -19 q 254 45 357 -19 q 97 224 151 110 q 42 486 42 339 q 100 752 42 638 q 260 929 158 867 q 493 992 363 992 q 710 950 613 992 l 696 832 q 605 865 650 854 q 506 876 560 876 q 330 825 403 876 q 219 685 257 774 q 182 486 182 596 q 264 203 182 311 q 504 96 346 96 q 611 115 565 96 l 611 372 l 488 372 l 488 488 l 738 488 l 738 44 q 628 -2 692 15 q 497 -19 564 -19 m 433 -394 l 483 -246 l 438 -246 l 438 -126 l 565 -126 l 565 -232 l 493 -394 l 433 -394 z "},"Ġ":{"ha":793,"x_min":42,"x_max":738,"o":"m 497 -19 q 254 45 357 -19 q 97 224 151 110 q 42 486 42 339 q 100 752 42 638 q 260 929 158 867 q 493 992 363 992 q 710 950 613 992 l 696 832 q 605 865 650 854 q 506 876 560 876 q 330 825 403 876 q 219 685 257 774 q 182 486 182 596 q 264 203 182 311 q 504 96 346 96 q 611 115 565 96 l 611 372 l 488 372 l 488 488 l 738 488 l 738 44 q 628 -2 692 15 q 497 -19 564 -19 m 422 1222 l 550 1222 l 550 1099 l 422 1099 l 422 1222 z "},"Ḡ":{"ha":793,"x_min":42,"x_max":738,"o":"m 497 -19 q 254 45 357 -19 q 97 224 151 110 q 42 486 42 339 q 100 752 42 638 q 260 929 158 867 q 493 992 363 992 q 710 950 613 992 l 696 832 q 605 865 650 854 q 506 876 560 876 q 330 825 403 876 q 219 685 257 774 q 182 486 182 596 q 264 203 182 311 q 504 96 346 96 q 611 115 565 96 l 611 372 l 488 372 l 488 488 l 738 488 l 738 44 q 628 -2 692 15 q 497 -19 564 -19 m 278 1193 l 694 1193 l 694 1101 l 278 1101 l 278 1193 z "},"H":{"ha":883,"x_min":92,"x_max":792,"o":"m 92 972 l 218 972 l 218 571 l 665 571 l 665 972 l 792 972 l 792 0 l 665 0 l 665 447 l 218 447 l 218 0 l 92 0 l 92 972 z "},"Ħ":{"ha":894,"x_min":14,"x_max":881,"o":"m 881 696 l 797 696 l 797 0 l 671 0 l 671 447 l 224 447 l 224 0 l 97 0 l 97 696 l 14 696 l 14 782 l 97 782 l 97 972 l 224 972 l 224 782 l 671 782 l 671 972 l 797 972 l 797 782 l 881 782 l 881 696 m 671 696 l 224 696 l 224 571 l 671 571 l 671 696 z "},"Ḫ":{"ha":883,"x_min":92,"x_max":792,"o":"m 92 972 l 218 972 l 218 571 l 665 571 l 665 972 l 792 972 l 792 0 l 665 0 l 665 447 l 218 447 l 218 0 l 92 0 l 92 972 m 442 -301 q 301 -253 350 -301 q 253 -133 253 -204 l 361 -133 q 381 -190 361 -169 q 442 -211 401 -211 q 502 -190 482 -211 q 522 -133 522 -169 l 631 -133 q 582 -253 631 -204 q 442 -301 533 -301 z "},"Ĥ":{"ha":883,"x_min":92,"x_max":792,"o":"m 92 972 l 218 972 l 218 571 l 665 571 l 665 972 l 792 972 l 792 0 l 665 0 l 665 447 l 218 447 l 218 0 l 92 0 l 92 972 m 604 1133 l 604 1049 l 442 1135 l 279 1049 l 279 1133 l 442 1249 l 604 1133 z "},"Ḥ":{"ha":883,"x_min":92,"x_max":792,"o":"m 92 972 l 218 972 l 218 571 l 665 571 l 665 972 l 792 972 l 792 0 l 665 0 l 665 447 l 218 447 l 218 0 l 92 0 l 92 972 m 381 -112 l 503 -112 l 503 -236 l 381 -236 l 381 -112 z "},"I":{"ha":333,"x_min":103,"x_max":231,"o":"m 103 972 l 231 972 l 231 0 l 103 0 l 103 972 z "},"Ĳ":{"ha":829,"x_min":82,"x_max":747,"o":"m 82 972 l 208 972 l 208 449 l 82 449 l 82 972 m 210 353 q 261 163 217 229 q 414 96 306 96 q 545 138 500 96 q 606 250 590 181 q 621 421 621 319 l 621 972 l 747 972 l 747 385 q 665 85 747 190 q 414 -19 583 -19 q 174 74 256 -19 q 83 339 93 167 l 210 353 z "},"Í":{"ha":333,"x_min":65,"x_max":269,"o":"m 103 972 l 231 972 l 231 0 l 103 0 l 103 972 m 65 1188 l 269 1318 l 269 1182 l 65 1103 l 65 1188 z "},"Ĭ":{"ha":333,"x_min":-22,"x_max":356,"o":"m 103 972 l 231 972 l 231 0 l 103 0 l 103 972 m 167 1092 q 26 1140 75 1092 q -22 1260 -22 1189 l 86 1260 q 106 1203 86 1224 q 167 1182 126 1182 q 227 1203 207 1182 q 247 1260 247 1224 l 356 1260 q 307 1140 356 1189 q 167 1092 258 1092 z "},"Î":{"ha":333,"x_min":18,"x_max":315,"o":"m 103 972 l 231 972 l 231 0 l 103 0 l 103 972 m 18 1158 l 167 1285 l 315 1158 l 315 1075 l 167 1168 l 18 1075 l 18 1158 z "},"Ȉ":{"ha":333,"x_min":-86,"x_max":306,"o":"m 103 972 l 231 972 l 231 0 l 103 0 l 103 972 m 31 1094 l -86 1297 l 43 1297 l 117 1094 l 31 1094 m 219 1094 l 108 1297 l 239 1297 l 306 1094 l 219 1094 z "},"Ï":{"ha":333,"x_min":1,"x_max":332,"o":"m 103 972 l 231 972 l 231 0 l 103 0 l 103 972 m 1 1224 l 115 1224 l 115 1113 l 1 1113 l 1 1224 m 218 1224 l 332 1224 l 332 1113 l 218 1113 l 218 1224 z "},"Ḯ":{"ha":333,"x_min":1,"x_max":332,"o":"m 103 972 l 231 972 l 231 0 l 103 0 l 103 972 m 1 1207 l 118 1207 l 118 1103 l 1 1103 l 1 1207 m 215 1207 l 332 1207 l 332 1103 l 215 1103 l 215 1207 m 65 1364 l 269 1476 l 269 1347 l 65 1283 l 65 1364 z "},"İ":{"ha":333,"x_min":103,"x_max":231,"o":"m 103 972 l 231 972 l 231 0 l 103 0 l 103 972 m 103 1222 l 231 1222 l 231 1099 l 103 1099 l 103 1222 z "},"Ị":{"ha":333,"x_min":103,"x_max":231,"o":"m 103 972 l 231 972 l 231 0 l 103 0 l 103 972 m 106 -112 l 228 -112 l 228 -236 l 106 -236 l 106 -112 z "},"Ì":{"ha":333,"x_min":64,"x_max":268,"o":"m 103 972 l 231 972 l 231 0 l 103 0 l 103 972 m 64 1182 l 64 1319 l 268 1190 l 268 1103 l 64 1182 z "},"Ỉ":{"ha":333,"x_min":47,"x_max":268,"o":"m 103 972 l 231 972 l 231 0 l 103 0 l 103 972 m 140 1067 q 180 1117 169 1099 q 190 1158 190 1136 q 178 1192 190 1181 q 144 1204 165 1204 q 71 1181 114 1204 l 47 1247 q 151 1271 92 1271 q 235 1242 203 1271 q 268 1163 268 1213 q 249 1090 268 1121 q 188 1021 231 1060 l 140 1067 z "},"Ȋ":{"ha":333,"x_min":-22,"x_max":356,"o":"m 103 972 l 231 972 l 231 0 l 103 0 l 103 972 m 167 1240 q 307 1194 258 1240 q 356 1082 356 1147 l 244 1082 q 223 1136 244 1118 q 167 1154 201 1154 q 110 1136 132 1154 q 89 1082 89 1118 l -22 1082 q 26 1194 -22 1147 q 167 1240 75 1240 z "},"Ī":{"ha":333,"x_min":-42,"x_max":375,"o":"m 103 972 l 231 972 l 231 0 l 103 0 l 103 972 m -42 1193 l 375 1193 l 375 1101 l -42 1101 l -42 1193 z "},"Į":{"ha":333,"x_min":56,"x_max":283,"o":"m 103 972 l 231 972 l 231 0 l 103 0 l 103 972 m 231 0 q 160 -83 183 -47 q 136 -157 136 -119 q 154 -202 136 -186 q 203 -218 172 -218 q 263 -206 233 -218 l 283 -271 q 192 -289 244 -289 q 94 -258 133 -289 q 56 -174 56 -228 q 83 -84 56 -125 q 157 0 110 -43 l 231 0 z "},"Ĩ":{"ha":333,"x_min":-36,"x_max":369,"o":"m 103 972 l 231 972 l 231 0 l 103 0 l 103 972 m 264 1097 q 215 1107 236 1097 q 165 1135 194 1117 q 101 1163 128 1163 q 74 1148 83 1163 q 64 1108 64 1133 l -36 1108 q 69 1263 -29 1263 q 118 1253 97 1263 q 168 1225 139 1243 q 232 1197 206 1197 q 260 1212 250 1197 q 269 1251 269 1226 l 369 1251 q 264 1097 363 1097 z "},"J":{"ha":338,"x_min":-1,"x_max":235,"o":"m -1 -126 q 85 -101 63 -126 q 108 -4 108 -76 l 108 972 l 235 972 l 235 -44 q 183 -190 235 -140 q 40 -239 132 -239 l 11 -239 l -1 -126 z "},"Ĵ":{"ha":338,"x_min":-1,"x_max":333,"o":"m -1 -126 q 85 -101 63 -126 q 108 -4 108 -76 l 108 972 l 235 972 l 235 -44 q 183 -190 235 -140 q 40 -239 132 -239 l 11 -239 l -1 -126 m 333 1133 l 333 1049 l 171 1135 l 8 1049 l 8 1133 l 171 1249 l 333 1133 z "},"K":{"ha":732,"x_min":117,"x_max":703,"o":"m 117 972 l 243 972 l 243 0 l 117 0 l 117 972 m 250 515 l 563 972 l 703 972 l 388 515 l 703 0 l 563 0 l 250 515 z "},"Ķ":{"ha":732,"x_min":117,"x_max":703,"o":"m 117 972 l 243 972 l 243 0 l 117 0 l 117 972 m 250 515 l 563 972 l 703 972 l 388 515 l 703 0 l 563 0 l 250 515 m 335 -394 l 385 -246 l 339 -246 l 339 -126 l 467 -126 l 467 -232 l 394 -394 l 335 -394 z "},"L":{"ha":597,"x_min":92,"x_max":589,"o":"m 92 972 l 218 972 l 218 115 l 589 115 l 589 0 l 92 0 l 92 972 z "},"Ǉ":{"ha":935,"x_min":92,"x_max":832,"o":"m 92 972 l 218 972 l 218 115 l 589 115 l 589 0 l 92 0 l 92 972 m 596 -126 q 683 -101 660 -126 q 706 -4 706 -76 l 706 972 l 832 972 l 832 -44 q 781 -190 832 -140 q 638 -239 729 -239 l 608 -239 l 596 -126 z "},"Ĺ":{"ha":597,"x_min":54,"x_max":589,"o":"m 92 972 l 218 972 l 218 115 l 589 115 l 589 0 l 92 0 l 92 972 m 54 1142 l 258 1254 l 258 1125 l 54 1061 l 54 1142 z "},"Ľ":{"ha":597,"x_min":92,"x_max":589,"o":"m 92 972 l 218 972 l 218 115 l 589 115 l 589 0 l 92 0 l 92 972 m 461 972 l 589 972 l 550 740 l 461 740 l 461 972 z "},"Ļ":{"ha":597,"x_min":92,"x_max":589,"o":"m 92 972 l 218 972 l 218 115 l 589 115 l 589 0 l 92 0 l 92 972 m 272 -394 l 322 -246 l 276 -246 l 276 -126 l 404 -126 l 404 -232 l 332 -394 l 272 -394 z "},"Ŀ":{"ha":597,"x_min":92,"x_max":589,"o":"m 92 972 l 218 972 l 218 115 l 589 115 l 589 0 l 92 0 l 92 972 m 385 604 l 525 604 l 525 463 l 385 463 l 385 604 z "},"Ḷ":{"ha":597,"x_min":92,"x_max":589,"o":"m 92 972 l 218 972 l 218 115 l 589 115 l 589 0 l 92 0 l 92 972 m 279 -112 l 401 -112 l 401 -236 l 279 -236 l 279 -112 z "},"ǈ":{"ha":882,"x_min":92,"x_max":800,"o":"m 92 972 l 218 972 l 218 115 l 589 115 l 589 0 l 92 0 l 92 972 m 679 972 l 800 972 l 800 835 l 679 835 l 679 972 m 597 -242 q 651 -226 635 -237 q 674 -187 668 -214 q 679 -101 679 -160 l 679 681 l 800 681 l 800 -149 q 760 -278 800 -239 q 653 -329 719 -318 l 610 -336 l 597 -242 z "},"Ḻ":{"ha":597,"x_min":92,"x_max":589,"o":"m 92 972 l 218 972 l 218 115 l 589 115 l 589 0 l 92 0 l 92 972 m 146 -129 l 535 -129 l 535 -224 l 146 -224 l 146 -129 z "},"Ł":{"ha":606,"x_min":17,"x_max":597,"o":"m 597 115 l 597 0 l 100 0 l 100 531 l 17 507 l 17 596 l 100 619 l 100 972 l 226 972 l 226 654 l 454 717 l 454 628 l 226 565 l 226 115 l 597 115 z "},"M":{"ha":985,"x_min":65,"x_max":935,"o":"m 799 0 l 735 703 l 500 201 l 265 703 l 200 0 l 65 0 l 171 972 l 278 972 l 500 471 l 722 972 l 829 972 l 935 0 l 799 0 z "},"Ṃ":{"ha":985,"x_min":65,"x_max":935,"o":"m 799 0 l 735 703 l 500 201 l 265 703 l 200 0 l 65 0 l 171 972 l 278 972 l 500 471 l 722 972 l 829 972 l 935 0 l 799 0 m 439 -112 l 561 -112 l 561 -236 l 439 -236 l 439 -112 z "},"N":{"ha":838,"x_min":92,"x_max":746,"o":"m 92 972 l 235 972 l 619 261 l 619 972 l 746 972 l 746 0 l 628 0 l 218 751 l 218 0 l 92 0 l 92 972 z "},"Ǌ":{"ha":1175,"x_min":92,"x_max":1072,"o":"m 92 972 l 235 972 l 619 261 l 619 972 l 746 972 l 746 0 l 628 0 l 218 751 l 218 0 l 92 0 l 92 972 m 836 -126 q 923 -101 900 -126 q 946 -4 946 -76 l 946 972 l 1072 972 l 1072 -44 q 1021 -190 1072 -140 q 878 -239 969 -239 l 849 -239 l 836 -126 z "},"Ń":{"ha":838,"x_min":92,"x_max":746,"o":"m 92 972 l 235 972 l 619 261 l 619 972 l 746 972 l 746 0 l 628 0 l 218 751 l 218 0 l 92 0 l 92 972 m 326 1142 l 531 1254 l 531 1125 l 326 1061 l 326 1142 z "},"Ň":{"ha":838,"x_min":92,"x_max":746,"o":"m 92 972 l 235 972 l 619 261 l 619 972 l 746 972 l 746 0 l 628 0 l 218 751 l 218 0 l 92 0 l 92 972 m 265 1203 l 265 1288 l 428 1201 l 590 1288 l 590 1203 l 428 1088 l 265 1203 z "},"Ņ":{"ha":838,"x_min":92,"x_max":746,"o":"m 92 972 l 235 972 l 619 261 l 619 972 l 746 972 l 746 0 l 628 0 l 218 751 l 218 0 l 92 0 l 92 972 m 356 -394 l 406 -246 l 360 -246 l 360 -126 l 488 -126 l 488 -232 l 415 -394 l 356 -394 z "},"Ṅ":{"ha":838,"x_min":92,"x_max":746,"o":"m 92 972 l 235 972 l 619 261 l 619 972 l 746 972 l 746 0 l 628 0 l 218 751 l 218 0 l 92 0 l 92 972 m 364 1222 l 492 1222 l 492 1099 l 364 1099 l 364 1222 z "},"Ṇ":{"ha":838,"x_min":92,"x_max":746,"o":"m 92 972 l 235 972 l 619 261 l 619 972 l 746 972 l 746 0 l 628 0 l 218 751 l 218 0 l 92 0 l 92 972 m 363 -112 l 485 -112 l 485 -236 l 363 -236 l 363 -112 z "},"Ŋ":{"ha":901,"x_min":103,"x_max":818,"o":"m 818 69 q 735 -173 818 -90 q 514 -256 651 -256 q 401 -240 456 -256 l 419 -128 q 514 -140 465 -140 q 644 -90 596 -140 q 692 56 692 -40 l 692 628 q 634 812 692 747 q 465 876 576 876 q 333 848 392 876 q 231 774 274 819 l 231 0 l 103 0 l 103 972 l 210 972 l 218 879 q 343 962 271 932 q 494 992 415 992 q 735 897 653 992 q 818 640 818 803 l 818 69 z "},"ǋ":{"ha":1111,"x_min":92,"x_max":1029,"o":"m 92 972 l 235 972 l 619 261 l 619 972 l 746 972 l 746 0 l 628 0 l 218 751 l 218 0 l 92 0 l 92 972 m 908 972 l 1029 972 l 1029 835 l 908 835 l 908 972 m 826 -242 q 881 -226 864 -237 q 903 -187 897 -214 q 908 -101 908 -160 l 908 681 l 1029 681 l 1029 -149 q 989 -278 1029 -239 q 882 -329 949 -318 l 839 -336 l 826 -242 z "},"Ṉ":{"ha":838,"x_min":92,"x_max":746,"o":"m 92 972 l 235 972 l 619 261 l 619 972 l 746 972 l 746 0 l 628 0 l 218 751 l 218 0 l 92 0 l 92 972 m 229 -129 l 618 -129 l 618 -224 l 229 -224 l 229 -129 z "},"Ñ":{"ha":838,"x_min":92,"x_max":746,"o":"m 92 972 l 235 972 l 619 261 l 619 972 l 746 972 l 746 0 l 628 0 l 218 751 l 218 0 l 92 0 l 92 972 m 525 1097 q 476 1107 497 1097 q 426 1135 456 1117 q 363 1163 389 1163 q 335 1148 344 1163 q 325 1108 325 1133 l 225 1108 q 331 1263 232 1263 q 379 1253 358 1263 q 429 1225 400 1243 q 493 1197 467 1197 q 521 1212 511 1197 q 531 1251 531 1226 l 631 1251 q 525 1097 624 1097 z "},"O":{"ha":907,"x_min":42,"x_max":865,"o":"m 454 -19 q 241 43 335 -19 q 94 220 147 106 q 42 486 42 335 q 94 752 42 638 q 241 929 147 867 q 454 992 335 992 q 667 929 574 992 q 813 752 760 867 q 865 486 865 638 q 813 220 865 335 q 667 43 760 106 q 454 -19 574 -19 m 454 107 q 659 213 588 107 q 731 486 731 319 q 659 759 731 653 q 454 865 588 865 q 249 759 321 865 q 176 486 176 653 q 249 213 176 319 q 454 107 321 107 z "},"Ó":{"ha":907,"x_min":42,"x_max":865,"o":"m 454 -19 q 241 43 335 -19 q 94 220 147 106 q 42 486 42 335 q 94 752 42 638 q 241 929 147 867 q 454 992 335 992 q 667 929 574 992 q 813 752 760 867 q 865 486 865 638 q 813 220 865 335 q 667 43 760 106 q 454 -19 574 -19 m 454 107 q 659 213 588 107 q 731 486 731 319 q 659 759 731 653 q 454 865 588 865 q 249 759 321 865 q 176 486 176 653 q 249 213 176 319 q 454 107 321 107 m 353 1188 l 557 1318 l 557 1182 l 353 1103 l 353 1188 z "},"Ŏ":{"ha":907,"x_min":42,"x_max":865,"o":"m 454 -19 q 241 43 335 -19 q 94 220 147 106 q 42 486 42 335 q 94 752 42 638 q 241 929 147 867 q 454 992 335 992 q 667 929 574 992 q 813 752 760 867 q 865 486 865 638 q 813 220 865 335 q 667 43 760 106 q 454 -19 574 -19 m 454 107 q 659 213 588 107 q 731 486 731 319 q 659 759 731 653 q 454 865 588 865 q 249 759 321 865 q 176 486 176 653 q 249 213 176 319 q 454 107 321 107 m 454 1061 q 314 1108 363 1061 q 265 1219 265 1154 l 376 1219 q 398 1165 376 1183 q 454 1146 419 1146 q 510 1165 489 1146 q 532 1219 532 1183 l 643 1219 q 594 1108 643 1154 q 454 1061 546 1061 z "},"Ô":{"ha":907,"x_min":42,"x_max":865,"o":"m 454 -19 q 241 43 335 -19 q 94 220 147 106 q 42 486 42 335 q 94 752 42 638 q 241 929 147 867 q 454 992 335 992 q 667 929 574 992 q 813 752 760 867 q 865 486 865 638 q 813 220 865 335 q 667 43 760 106 q 454 -19 574 -19 m 454 107 q 659 213 588 107 q 731 486 731 319 q 659 759 731 653 q 454 865 588 865 q 249 759 321 865 q 176 486 176 653 q 249 213 176 319 q 454 107 321 107 m 306 1158 l 454 1285 l 603 1158 l 603 1075 l 454 1168 l 306 1075 l 306 1158 z "},"Ố":{"ha":907,"x_min":42,"x_max":865,"o":"m 454 -19 q 241 43 335 -19 q 94 220 147 106 q 42 486 42 335 q 94 752 42 638 q 241 929 147 867 q 454 992 335 992 q 667 929 574 992 q 813 752 760 867 q 865 486 865 638 q 813 220 865 335 q 667 43 760 106 q 454 -19 574 -19 m 454 107 q 659 213 588 107 q 731 486 731 319 q 659 759 731 653 q 454 865 588 865 q 249 759 321 865 q 176 486 176 653 q 249 213 176 319 q 454 107 321 107 m 631 1400 l 761 1400 l 639 1238 l 553 1238 l 631 1400 m 617 1131 l 617 1046 l 454 1132 l 292 1046 l 292 1131 l 454 1246 l 617 1131 z "},"Ộ":{"ha":907,"x_min":42,"x_max":865,"o":"m 454 -19 q 241 43 335 -19 q 94 220 147 106 q 42 486 42 335 q 94 752 42 638 q 241 929 147 867 q 454 992 335 992 q 667 929 574 992 q 813 752 760 867 q 865 486 865 638 q 813 220 865 335 q 667 43 760 106 q 454 -19 574 -19 m 454 107 q 659 213 588 107 q 731 486 731 319 q 659 759 731 653 q 454 865 588 865 q 249 759 321 865 q 176 486 176 653 q 249 213 176 319 q 454 107 321 107 m 306 1158 l 454 1285 l 603 1158 l 603 1075 l 454 1168 l 306 1075 l 306 1158 m 393 -112 l 515 -112 l 515 -236 l 393 -236 l 393 -112 z "},"Ồ":{"ha":907,"x_min":42,"x_max":865,"o":"m 454 -19 q 241 43 335 -19 q 94 220 147 106 q 42 486 42 335 q 94 752 42 638 q 241 929 147 867 q 454 992 335 992 q 667 929 574 992 q 813 752 760 867 q 865 486 865 638 q 813 220 865 335 q 667 43 760 106 q 454 -19 574 -19 m 454 107 q 659 213 588 107 q 731 486 731 319 q 659 759 731 653 q 454 865 588 865 q 249 759 321 865 q 176 486 176 653 q 249 213 176 319 q 454 107 321 107 m 578 1238 l 471 1400 l 596 1400 l 660 1238 l 578 1238 m 617 1131 l 617 1046 l 454 1132 l 292 1046 l 292 1131 l 454 1246 l 617 1131 z "},"Ổ":{"ha":907,"x_min":42,"x_max":865,"o":"m 454 -19 q 241 43 335 -19 q 94 220 147 106 q 42 486 42 335 q 94 752 42 638 q 241 929 147 867 q 454 992 335 992 q 667 929 574 992 q 813 752 760 867 q 865 486 865 638 q 813 220 865 335 q 667 43 760 106 q 454 -19 574 -19 m 454 107 q 659 213 588 107 q 731 486 731 319 q 659 759 731 653 q 454 865 588 865 q 249 759 321 865 q 176 486 176 653 q 249 213 176 319 q 454 107 321 107 m 617 1131 l 617 1046 l 454 1132 l 292 1046 l 292 1131 l 454 1246 l 617 1131 m 575 1254 q 601 1278 593 1265 q 610 1308 610 1290 q 597 1342 610 1331 q 561 1353 585 1353 q 493 1333 532 1353 l 469 1401 q 571 1422 518 1422 q 656 1394 622 1422 q 690 1318 690 1365 q 667 1249 690 1276 q 596 1201 643 1221 l 575 1254 z "},"Ỗ":{"ha":907,"x_min":42,"x_max":865,"o":"m 454 -19 q 241 43 335 -19 q 94 220 147 106 q 42 486 42 335 q 94 752 42 638 q 241 929 147 867 q 454 992 335 992 q 667 929 574 992 q 813 752 760 867 q 865 486 865 638 q 813 220 865 335 q 667 43 760 106 q 454 -19 574 -19 m 454 107 q 659 213 588 107 q 731 486 731 319 q 659 759 731 653 q 454 865 588 865 q 249 759 321 865 q 176 486 176 653 q 249 213 176 319 q 454 107 321 107 m 617 1131 l 617 1046 l 454 1132 l 292 1046 l 292 1131 l 454 1246 l 617 1131 m 553 1303 q 508 1310 531 1303 q 457 1332 486 1318 q 428 1344 453 1333 q 386 1354 404 1354 q 356 1342 367 1354 q 344 1310 344 1331 l 254 1310 q 281 1413 254 1376 q 356 1449 307 1449 q 400 1441 378 1449 q 451 1419 422 1433 q 480 1408 456 1418 q 522 1397 504 1397 q 553 1409 542 1397 q 564 1442 564 1421 l 654 1442 q 628 1339 654 1375 q 553 1303 601 1303 z "},"Ȍ":{"ha":907,"x_min":42,"x_max":865,"o":"m 454 -19 q 241 43 335 -19 q 94 220 147 106 q 42 486 42 335 q 94 752 42 638 q 241 929 147 867 q 454 992 335 992 q 667 929 574 992 q 813 752 760 867 q 865 486 865 638 q 813 220 865 335 q 667 43 760 106 q 454 -19 574 -19 m 454 107 q 659 213 588 107 q 731 486 731 319 q 659 759 731 653 q 454 865 588 865 q 249 759 321 865 q 176 486 176 653 q 249 213 176 319 q 454 107 321 107 m 318 1094 l 201 1297 l 331 1297 l 404 1094 l 318 1094 m 507 1094 l 396 1297 l 526 1297 l 593 1094 l 507 1094 z "},"Ö":{"ha":907,"x_min":42,"x_max":865,"o":"m 454 -19 q 241 43 335 -19 q 94 220 147 106 q 42 486 42 335 q 94 752 42 638 q 241 929 147 867 q 454 992 335 992 q 667 929 574 992 q 813 752 760 867 q 865 486 865 638 q 813 220 865 335 q 667 43 760 106 q 454 -19 574 -19 m 454 107 q 659 213 588 107 q 731 486 731 319 q 659 759 731 653 q 454 865 588 865 q 249 759 321 865 q 176 486 176 653 q 249 213 176 319 q 454 107 321 107 m 289 1224 l 403 1224 l 403 1113 l 289 1113 l 289 1224 m 506 1224 l 619 1224 l 619 1113 l 506 1113 l 506 1224 z "},"Ȫ":{"ha":907,"x_min":42,"x_max":865,"o":"m 454 -19 q 241 43 335 -19 q 94 220 147 106 q 42 486 42 335 q 94 752 42 638 q 241 929 147 867 q 454 992 335 992 q 667 929 574 992 q 813 752 760 867 q 865 486 865 638 q 813 220 865 335 q 667 43 760 106 q 454 -19 574 -19 m 454 107 q 659 213 588 107 q 731 486 731 319 q 659 759 731 653 q 454 865 588 865 q 249 759 321 865 q 176 486 176 653 q 249 213 176 319 q 454 107 321 107 m 289 1207 l 406 1207 l 406 1103 l 289 1103 l 289 1207 m 503 1207 l 619 1207 l 619 1103 l 503 1103 l 503 1207 m 246 1415 l 663 1415 l 663 1324 l 246 1324 l 246 1415 z "},"Ȱ":{"ha":907,"x_min":42,"x_max":865,"o":"m 454 -19 q 241 43 335 -19 q 94 220 147 106 q 42 486 42 335 q 94 752 42 638 q 241 929 147 867 q 454 992 335 992 q 667 929 574 992 q 813 752 760 867 q 865 486 865 638 q 813 220 865 335 q 667 43 760 106 q 454 -19 574 -19 m 454 107 q 659 213 588 107 q 731 486 731 319 q 659 759 731 653 q 454 865 588 865 q 249 759 321 865 q 176 486 176 653 q 249 213 176 319 q 454 107 321 107 m 390 1222 l 518 1222 l 518 1099 l 390 1099 l 390 1222 m 246 1422 l 663 1422 l 663 1331 l 246 1331 l 246 1422 z "},"Ọ":{"ha":907,"x_min":42,"x_max":865,"o":"m 454 -19 q 241 43 335 -19 q 94 220 147 106 q 42 486 42 335 q 94 752 42 638 q 241 929 147 867 q 454 992 335 992 q 667 929 574 992 q 813 752 760 867 q 865 486 865 638 q 813 220 865 335 q 667 43 760 106 q 454 -19 574 -19 m 454 107 q 659 213 588 107 q 731 486 731 319 q 659 759 731 653 q 454 865 588 865 q 249 759 321 865 q 176 486 176 653 q 249 213 176 319 q 454 107 321 107 m 393 -112 l 515 -112 l 515 -236 l 393 -236 l 393 -112 z "},"Ò":{"ha":907,"x_min":42,"x_max":865,"o":"m 454 -19 q 241 43 335 -19 q 94 220 147 106 q 42 486 42 335 q 94 752 42 638 q 241 929 147 867 q 454 992 335 992 q 667 929 574 992 q 813 752 760 867 q 865 486 865 638 q 813 220 865 335 q 667 43 760 106 q 454 -19 574 -19 m 454 107 q 659 213 588 107 q 731 486 731 319 q 659 759 731 653 q 454 865 588 865 q 249 759 321 865 q 176 486 176 653 q 249 213 176 319 q 454 107 321 107 m 351 1182 l 351 1319 l 556 1190 l 556 1103 l 351 1182 z "},"Ỏ":{"ha":907,"x_min":42,"x_max":865,"o":"m 454 -19 q 241 43 335 -19 q 94 220 147 106 q 42 486 42 335 q 94 752 42 638 q 241 929 147 867 q 454 992 335 992 q 667 929 574 992 q 813 752 760 867 q 865 486 865 638 q 813 220 865 335 q 667 43 760 106 q 454 -19 574 -19 m 454 107 q 659 213 588 107 q 731 486 731 319 q 659 759 731 653 q 454 865 588 865 q 249 759 321 865 q 176 486 176 653 q 249 213 176 319 q 454 107 321 107 m 428 1067 q 467 1117 457 1099 q 478 1158 478 1136 q 465 1192 478 1181 q 432 1204 453 1204 q 358 1181 401 1204 l 335 1247 q 439 1271 379 1271 q 523 1242 490 1271 q 556 1163 556 1213 q 537 1090 556 1121 q 475 1021 518 1060 l 428 1067 z "},"Ơ":{"ha":907,"x_min":42,"x_max":865,"o":"m 686 915 q 818 740 771 850 q 865 486 865 629 q 813 220 865 335 q 667 43 760 106 q 454 -19 574 -19 q 241 43 335 -19 q 94 220 147 106 q 42 486 42 335 q 94 752 42 638 q 241 929 147 867 q 454 992 335 992 q 576 972 518 992 q 661 1075 661 979 l 774 1075 q 751 981 774 1022 q 686 915 728 939 m 454 107 q 659 213 588 107 q 731 486 731 319 q 659 759 731 653 q 454 865 588 865 q 249 759 321 865 q 176 486 176 653 q 249 213 176 319 q 454 107 321 107 z "},"Ớ":{"ha":907,"x_min":42,"x_max":865,"o":"m 686 915 q 818 740 771 850 q 865 486 865 629 q 813 220 865 335 q 667 43 760 106 q 454 -19 574 -19 q 241 43 335 -19 q 94 220 147 106 q 42 486 42 335 q 94 752 42 638 q 241 929 147 867 q 454 992 335 992 q 576 972 518 992 q 661 1075 661 979 l 774 1075 q 751 981 774 1022 q 686 915 728 939 m 454 107 q 659 213 588 107 q 731 486 731 319 q 659 759 731 653 q 454 865 588 865 q 249 759 321 865 q 176 486 176 653 q 249 213 176 319 q 454 107 321 107 m 353 1188 l 557 1318 l 557 1182 l 353 1103 l 353 1188 z "},"Ợ":{"ha":907,"x_min":42,"x_max":865,"o":"m 686 915 q 818 740 771 850 q 865 486 865 629 q 813 220 865 335 q 667 43 760 106 q 454 -19 574 -19 q 241 43 335 -19 q 94 220 147 106 q 42 486 42 335 q 94 752 42 638 q 241 929 147 867 q 454 992 335 992 q 576 972 518 992 q 661 1075 661 979 l 774 1075 q 751 981 774 1022 q 686 915 728 939 m 454 107 q 659 213 588 107 q 731 486 731 319 q 659 759 731 653 q 454 865 588 865 q 249 759 321 865 q 176 486 176 653 q 249 213 176 319 q 454 107 321 107 m 393 -112 l 515 -112 l 515 -236 l 393 -236 l 393 -112 z "},"Ờ":{"ha":907,"x_min":42,"x_max":865,"o":"m 686 915 q 818 740 771 850 q 865 486 865 629 q 813 220 865 335 q 667 43 760 106 q 454 -19 574 -19 q 241 43 335 -19 q 94 220 147 106 q 42 486 42 335 q 94 752 42 638 q 241 929 147 867 q 454 992 335 992 q 576 972 518 992 q 661 1075 661 979 l 774 1075 q 751 981 774 1022 q 686 915 728 939 m 454 107 q 659 213 588 107 q 731 486 731 319 q 659 759 731 653 q 454 865 588 865 q 249 759 321 865 q 176 486 176 653 q 249 213 176 319 q 454 107 321 107 m 351 1182 l 351 1319 l 556 1190 l 556 1103 l 351 1182 z "},"Ở":{"ha":907,"x_min":42,"x_max":865,"o":"m 686 915 q 818 740 771 850 q 865 486 865 629 q 813 220 865 335 q 667 43 760 106 q 454 -19 574 -19 q 241 43 335 -19 q 94 220 147 106 q 42 486 42 335 q 94 752 42 638 q 241 929 147 867 q 454 992 335 992 q 576 972 518 992 q 661 1075 661 979 l 774 1075 q 751 981 774 1022 q 686 915 728 939 m 454 107 q 659 213 588 107 q 731 486 731 319 q 659 759 731 653 q 454 865 588 865 q 249 759 321 865 q 176 486 176 653 q 249 213 176 319 q 454 107 321 107 m 428 1067 q 467 1117 457 1099 q 478 1158 478 1136 q 465 1192 478 1181 q 432 1204 453 1204 q 358 1181 401 1204 l 335 1247 q 439 1271 379 1271 q 523 1242 490 1271 q 556 1163 556 1213 q 537 1090 556 1121 q 475 1021 518 1060 l 428 1067 z "},"Ỡ":{"ha":907,"x_min":42,"x_max":865,"o":"m 686 915 q 818 740 771 850 q 865 486 865 629 q 813 220 865 335 q 667 43 760 106 q 454 -19 574 -19 q 241 43 335 -19 q 94 220 147 106 q 42 486 42 335 q 94 752 42 638 q 241 929 147 867 q 454 992 335 992 q 576 972 518 992 q 661 1075 661 979 l 774 1075 q 751 981 774 1022 q 686 915 728 939 m 454 107 q 659 213 588 107 q 731 486 731 319 q 659 759 731 653 q 454 865 588 865 q 249 759 321 865 q 176 486 176 653 q 249 213 176 319 q 454 107 321 107 m 551 1097 q 503 1107 524 1097 q 453 1135 482 1117 q 389 1163 415 1163 q 361 1148 371 1163 q 351 1108 351 1133 l 251 1108 q 357 1263 258 1263 q 406 1253 385 1263 q 456 1225 426 1243 q 519 1197 493 1197 q 547 1212 538 1197 q 557 1251 557 1226 l 657 1251 q 551 1097 650 1097 z "},"Ő":{"ha":907,"x_min":42,"x_max":865,"o":"m 454 -19 q 241 43 335 -19 q 94 220 147 106 q 42 486 42 335 q 94 752 42 638 q 241 929 147 867 q 454 992 335 992 q 667 929 574 992 q 813 752 760 867 q 865 486 865 638 q 813 220 865 335 q 667 43 760 106 q 454 -19 574 -19 m 454 107 q 659 213 588 107 q 731 486 731 319 q 659 759 731 653 q 454 865 588 865 q 249 759 321 865 q 176 486 176 653 q 249 213 176 319 q 454 107 321 107 m 393 1297 l 524 1297 l 401 1094 l 315 1094 l 393 1297 m 589 1297 l 719 1297 l 590 1094 l 504 1094 l 589 1297 z "},"Ȏ":{"ha":907,"x_min":42,"x_max":865,"o":"m 454 -19 q 241 43 335 -19 q 94 220 147 106 q 42 486 42 335 q 94 752 42 638 q 241 929 147 867 q 454 992 335 992 q 667 929 574 992 q 813 752 760 867 q 865 486 865 638 q 813 220 865 335 q 667 43 760 106 q 454 -19 574 -19 m 454 107 q 659 213 588 107 q 731 486 731 319 q 659 759 731 653 q 454 865 588 865 q 249 759 321 865 q 176 486 176 653 q 249 213 176 319 q 454 107 321 107 m 454 1240 q 594 1194 546 1240 q 643 1082 643 1147 l 532 1082 q 510 1136 532 1118 q 454 1154 489 1154 q 398 1136 419 1154 q 376 1082 376 1118 l 265 1082 q 314 1194 265 1147 q 454 1240 363 1240 z "},"Ō":{"ha":907,"x_min":42,"x_max":865,"o":"m 454 -19 q 241 43 335 -19 q 94 220 147 106 q 42 486 42 335 q 94 752 42 638 q 241 929 147 867 q 454 992 335 992 q 667 929 574 992 q 813 752 760 867 q 865 486 865 638 q 813 220 865 335 q 667 43 760 106 q 454 -19 574 -19 m 454 107 q 659 213 588 107 q 731 486 731 319 q 659 759 731 653 q 454 865 588 865 q 249 759 321 865 q 176 486 176 653 q 249 213 176 319 q 454 107 321 107 m 246 1193 l 663 1193 l 663 1101 l 246 1101 l 246 1193 z "},"Ṓ":{"ha":907,"x_min":42,"x_max":865,"o":"m 454 -19 q 241 43 335 -19 q 94 220 147 106 q 42 486 42 335 q 94 752 42 638 q 241 929 147 867 q 454 992 335 992 q 667 929 574 992 q 813 752 760 867 q 865 486 865 638 q 813 220 865 335 q 667 43 760 106 q 454 -19 574 -19 m 454 107 q 659 213 588 107 q 731 486 731 319 q 659 759 731 653 q 454 865 588 865 q 249 759 321 865 q 176 486 176 653 q 249 213 176 319 q 454 107 321 107 m 246 1193 l 663 1193 l 663 1101 l 246 1101 l 246 1193 m 353 1354 l 557 1467 l 557 1338 l 353 1274 l 353 1354 z "},"Ṑ":{"ha":907,"x_min":42,"x_max":865,"o":"m 454 -19 q 241 43 335 -19 q 94 220 147 106 q 42 486 42 335 q 94 752 42 638 q 241 929 147 867 q 454 992 335 992 q 667 929 574 992 q 813 752 760 867 q 865 486 865 638 q 813 220 865 335 q 667 43 760 106 q 454 -19 574 -19 m 454 107 q 659 213 588 107 q 731 486 731 319 q 659 759 731 653 q 454 865 588 865 q 249 759 321 865 q 176 486 176 653 q 249 213 176 319 q 454 107 321 107 m 246 1193 l 663 1193 l 663 1101 l 246 1101 l 246 1193 m 351 1335 l 351 1467 l 556 1354 l 556 1274 l 351 1335 z "},"Ǫ":{"ha":907,"x_min":42,"x_max":865,"o":"m 865 486 q 820 237 865 346 q 694 63 775 128 q 507 -17 613 -3 q 448 -90 468 -57 q 428 -157 428 -122 q 446 -202 428 -186 q 494 -218 464 -218 q 554 -206 525 -218 l 575 -271 q 483 -289 536 -289 q 386 -258 425 -289 q 347 -174 347 -228 q 429 -18 347 -97 q 228 51 317 -12 q 91 228 140 115 q 42 486 42 340 q 94 752 42 638 q 241 929 147 867 q 454 992 335 992 q 667 929 574 992 q 813 752 760 867 q 865 486 865 638 m 176 486 q 249 213 176 319 q 454 107 321 107 q 659 213 588 107 q 731 486 731 319 q 659 759 731 653 q 454 865 588 865 q 249 759 321 865 q 176 486 176 653 z "},"Ø":{"ha":907,"x_min":42,"x_max":865,"o":"m 742 864 q 833 700 801 796 q 865 486 865 604 q 813 220 865 335 q 667 43 760 106 q 454 -19 574 -19 q 243 42 336 -19 l 181 -61 l 63 -61 l 165 110 q 74 272 106 176 q 42 486 42 368 q 94 752 42 638 q 241 929 147 867 q 454 992 335 992 q 664 931 574 992 l 726 1033 l 844 1033 l 742 864 m 176 486 q 239 229 176 329 l 597 821 q 454 865 538 865 q 249 759 321 865 q 176 486 176 653 m 454 107 q 659 213 588 107 q 731 486 731 319 q 669 743 731 642 l 310 151 q 454 107 372 107 z "},"Ǿ":{"ha":907,"x_min":42,"x_max":865,"o":"m 742 864 q 833 700 801 796 q 865 486 865 604 q 813 220 865 335 q 667 43 760 106 q 454 -19 574 -19 q 243 42 336 -19 l 181 -61 l 63 -61 l 165 110 q 74 272 106 176 q 42 486 42 368 q 94 752 42 638 q 241 929 147 867 q 454 992 335 992 q 664 931 574 992 l 726 1033 l 844 1033 l 742 864 m 176 486 q 239 229 176 329 l 597 821 q 454 865 538 865 q 249 759 321 865 q 176 486 176 653 m 454 107 q 659 213 588 107 q 731 486 731 319 q 669 743 731 642 l 310 151 q 454 107 372 107 m 353 1188 l 557 1318 l 557 1182 l 353 1103 l 353 1188 z "},"Õ":{"ha":907,"x_min":42,"x_max":865,"o":"m 454 -19 q 241 43 335 -19 q 94 220 147 106 q 42 486 42 335 q 94 752 42 638 q 241 929 147 867 q 454 992 335 992 q 667 929 574 992 q 813 752 760 867 q 865 486 865 638 q 813 220 865 335 q 667 43 760 106 q 454 -19 574 -19 m 454 107 q 659 213 588 107 q 731 486 731 319 q 659 759 731 653 q 454 865 588 865 q 249 759 321 865 q 176 486 176 653 q 249 213 176 319 q 454 107 321 107 m 551 1097 q 503 1107 524 1097 q 453 1135 482 1117 q 389 1163 415 1163 q 361 1148 371 1163 q 351 1108 351 1133 l 251 1108 q 357 1263 258 1263 q 406 1253 385 1263 q 456 1225 426 1243 q 519 1197 493 1197 q 547 1212 538 1197 q 557 1251 557 1226 l 657 1251 q 551 1097 650 1097 z "},"Ṍ":{"ha":907,"x_min":42,"x_max":865,"o":"m 454 -19 q 241 43 335 -19 q 94 220 147 106 q 42 486 42 335 q 94 752 42 638 q 241 929 147 867 q 454 992 335 992 q 667 929 574 992 q 813 752 760 867 q 865 486 865 638 q 813 220 865 335 q 667 43 760 106 q 454 -19 574 -19 m 454 107 q 659 213 588 107 q 731 486 731 319 q 659 759 731 653 q 454 865 588 865 q 249 759 321 865 q 176 486 176 653 q 249 213 176 319 q 454 107 321 107 m 553 1094 q 508 1102 531 1094 q 457 1124 486 1110 q 428 1135 453 1125 q 386 1146 404 1146 q 356 1134 367 1146 q 344 1101 344 1122 l 254 1101 q 281 1204 254 1168 q 356 1240 307 1240 q 400 1233 378 1240 q 451 1211 422 1225 q 480 1199 456 1210 q 522 1189 504 1189 q 553 1201 542 1189 q 564 1233 564 1213 l 654 1233 q 628 1131 654 1167 q 553 1094 601 1094 m 353 1386 l 557 1499 l 557 1369 l 353 1306 l 353 1386 z "},"Ṏ":{"ha":907,"x_min":42,"x_max":865,"o":"m 454 -19 q 241 43 335 -19 q 94 220 147 106 q 42 486 42 335 q 94 752 42 638 q 241 929 147 867 q 454 992 335 992 q 667 929 574 992 q 813 752 760 867 q 865 486 865 638 q 813 220 865 335 q 667 43 760 106 q 454 -19 574 -19 m 454 107 q 659 213 588 107 q 731 486 731 319 q 659 759 731 653 q 454 865 588 865 q 249 759 321 865 q 176 486 176 653 q 249 213 176 319 q 454 107 321 107 m 553 1094 q 508 1102 531 1094 q 457 1124 486 1110 q 428 1135 453 1125 q 386 1146 404 1146 q 356 1134 367 1146 q 344 1101 344 1122 l 254 1101 q 281 1204 254 1168 q 356 1240 307 1240 q 400 1233 378 1240 q 451 1211 422 1225 q 480 1199 456 1210 q 522 1189 504 1189 q 553 1201 542 1189 q 564 1233 564 1213 l 654 1233 q 628 1131 654 1167 q 553 1094 601 1094 m 289 1451 l 406 1451 l 406 1347 l 289 1347 l 289 1451 m 503 1451 l 619 1451 l 619 1347 l 503 1347 l 503 1451 z "},"Ȭ":{"ha":907,"x_min":42,"x_max":865,"o":"m 454 -19 q 241 43 335 -19 q 94 220 147 106 q 42 486 42 335 q 94 752 42 638 q 241 929 147 867 q 454 992 335 992 q 667 929 574 992 q 813 752 760 867 q 865 486 865 638 q 813 220 865 335 q 667 43 760 106 q 454 -19 574 -19 m 454 107 q 659 213 588 107 q 731 486 731 319 q 659 759 731 653 q 454 865 588 865 q 249 759 321 865 q 176 486 176 653 q 249 213 176 319 q 454 107 321 107 m 553 1094 q 508 1102 531 1094 q 457 1124 486 1110 q 428 1135 453 1125 q 386 1146 404 1146 q 356 1134 367 1146 q 344 1101 344 1122 l 254 1101 q 281 1204 254 1168 q 356 1240 307 1240 q 400 1233 378 1240 q 451 1211 422 1225 q 480 1199 456 1210 q 522 1189 504 1189 q 553 1201 542 1189 q 564 1233 564 1213 l 654 1233 q 628 1131 654 1167 q 553 1094 601 1094 m 246 1438 l 663 1438 l 663 1346 l 246 1346 l 246 1438 z "},"Œ":{"ha":1299,"x_min":42,"x_max":1258,"o":"m 1258 118 l 1258 0 l 728 0 l 728 126 q 602 19 675 57 q 442 -19 529 -19 q 235 43 326 -19 q 93 220 144 106 q 42 486 42 335 q 93 752 42 638 q 235 929 144 867 q 442 992 326 992 q 602 953 529 992 q 728 846 675 915 l 728 972 l 1247 972 l 1247 854 l 858 854 l 858 567 l 1164 567 l 1164 450 l 858 450 l 858 118 l 1258 118 m 454 99 q 655 208 585 99 q 725 486 725 317 q 655 765 725 656 q 454 874 585 874 q 253 765 324 874 q 182 486 182 656 q 253 208 182 317 q 454 99 324 99 z "},"P":{"ha":701,"x_min":103,"x_max":676,"o":"m 103 972 l 353 972 q 591 892 506 972 q 676 657 676 811 q 591 422 676 503 q 353 340 506 340 l 231 340 l 231 0 l 103 0 l 103 972 m 342 457 q 544 657 544 457 q 342 857 544 857 l 231 857 l 231 457 l 342 457 z "},"Þ":{"ha":710,"x_min":103,"x_max":686,"o":"m 103 972 l 231 972 l 231 757 l 401 757 q 616 692 546 757 q 686 511 686 626 q 615 332 686 397 q 401 267 544 267 l 231 267 l 231 0 l 103 0 l 103 972 m 392 376 q 516 411 474 376 q 558 511 558 446 q 516 611 558 576 q 392 646 474 646 l 231 646 l 231 376 l 392 376 z "},"Q":{"ha":907,"x_min":42,"x_max":865,"o":"m 865 486 q 840 296 865 383 q 769 144 815 208 l 856 54 l 776 -19 l 696 64 q 454 -19 593 -19 q 241 43 335 -19 q 94 220 147 106 q 42 486 42 335 q 94 752 42 638 q 241 929 147 867 q 454 992 335 992 q 667 929 574 992 q 813 752 760 867 q 865 486 865 638 m 454 107 q 607 157 544 107 l 489 281 l 567 354 l 676 240 q 731 486 731 340 q 659 759 731 653 q 454 865 588 865 q 249 759 321 865 q 176 486 176 653 q 249 213 176 319 q 454 107 321 107 z "},"R":{"ha":751,"x_min":101,"x_max":719,"o":"m 101 972 l 351 972 q 590 897 504 972 q 675 675 675 821 q 635 524 675 592 q 525 418 596 457 l 719 0 l 569 0 l 396 381 q 350 378 374 378 l 228 378 l 228 0 l 101 0 l 101 972 m 340 494 q 494 540 446 494 q 543 675 543 586 q 494 811 543 765 q 340 857 446 857 l 228 857 l 228 494 l 340 494 z "},"Ŕ":{"ha":751,"x_min":101,"x_max":719,"o":"m 101 972 l 351 972 q 590 897 504 972 q 675 675 675 821 q 635 524 675 592 q 525 418 596 457 l 719 0 l 569 0 l 396 381 q 350 378 374 378 l 228 378 l 228 0 l 101 0 l 101 972 m 340 494 q 494 540 446 494 q 543 675 543 586 q 494 811 543 765 q 340 857 446 857 l 228 857 l 228 494 l 340 494 m 275 1142 l 479 1254 l 479 1125 l 275 1061 l 275 1142 z "},"Ř":{"ha":751,"x_min":101,"x_max":719,"o":"m 101 972 l 351 972 q 590 897 504 972 q 675 675 675 821 q 635 524 675 592 q 525 418 596 457 l 719 0 l 569 0 l 396 381 q 350 378 374 378 l 228 378 l 228 0 l 101 0 l 101 972 m 340 494 q 494 540 446 494 q 543 675 543 586 q 494 811 543 765 q 340 857 446 857 l 228 857 l 228 494 l 340 494 m 214 1203 l 214 1288 l 376 1201 l 539 1288 l 539 1203 l 376 1088 l 214 1203 z "},"Ŗ":{"ha":751,"x_min":101,"x_max":719,"o":"m 101 972 l 351 972 q 590 897 504 972 q 675 675 675 821 q 635 524 675 592 q 525 418 596 457 l 719 0 l 569 0 l 396 381 q 350 378 374 378 l 228 378 l 228 0 l 101 0 l 101 972 m 340 494 q 494 540 446 494 q 543 675 543 586 q 494 811 543 765 q 340 857 446 857 l 228 857 l 228 494 l 340 494 m 332 -394 l 382 -246 l 336 -246 l 336 -126 l 464 -126 l 464 -232 l 392 -394 l 332 -394 z "},"Ȑ":{"ha":751,"x_min":101,"x_max":719,"o":"m 101 972 l 351 972 q 590 897 504 972 q 675 675 675 821 q 635 524 675 592 q 525 418 596 457 l 719 0 l 569 0 l 396 381 q 350 378 374 378 l 228 378 l 228 0 l 101 0 l 101 972 m 340 494 q 494 540 446 494 q 543 675 543 586 q 494 811 543 765 q 340 857 446 857 l 228 857 l 228 494 l 340 494 m 240 1094 l 124 1297 l 253 1297 l 326 1094 l 240 1094 m 429 1094 l 318 1297 l 449 1297 l 515 1094 l 429 1094 z "},"Ṛ":{"ha":751,"x_min":101,"x_max":719,"o":"m 101 972 l 351 972 q 590 897 504 972 q 675 675 675 821 q 635 524 675 592 q 525 418 596 457 l 719 0 l 569 0 l 396 381 q 350 378 374 378 l 228 378 l 228 0 l 101 0 l 101 972 m 340 494 q 494 540 446 494 q 543 675 543 586 q 494 811 543 765 q 340 857 446 857 l 228 857 l 228 494 l 340 494 m 339 -112 l 461 -112 l 461 -236 l 339 -236 l 339 -112 z "},"Ȓ":{"ha":751,"x_min":101,"x_max":719,"o":"m 101 972 l 351 972 q 590 897 504 972 q 675 675 675 821 q 635 524 675 592 q 525 418 596 457 l 719 0 l 569 0 l 396 381 q 350 378 374 378 l 228 378 l 228 0 l 101 0 l 101 972 m 340 494 q 494 540 446 494 q 543 675 543 586 q 494 811 543 765 q 340 857 446 857 l 228 857 l 228 494 l 340 494 m 376 1240 q 517 1194 468 1240 q 565 1082 565 1147 l 454 1082 q 433 1136 454 1118 q 376 1154 411 1154 q 320 1136 342 1154 q 299 1082 299 1118 l 188 1082 q 236 1194 188 1147 q 376 1240 285 1240 z "},"Ṟ":{"ha":751,"x_min":101,"x_max":719,"o":"m 101 972 l 351 972 q 590 897 504 972 q 675 675 675 821 q 635 524 675 592 q 525 418 596 457 l 719 0 l 569 0 l 396 381 q 350 378 374 378 l 228 378 l 228 0 l 101 0 l 101 972 m 340 494 q 494 540 446 494 q 543 675 543 586 q 494 811 543 765 q 340 857 446 857 l 228 857 l 228 494 l 340 494 m 206 -129 l 594 -129 l 594 -224 l 206 -224 l 206 -129 z "},"S":{"ha":693,"x_min":46,"x_max":658,"o":"m 322 -19 q 180 -3 254 -19 q 58 35 106 13 l 76 174 q 200 117 132 139 q 335 96 268 96 q 469 131 421 96 q 518 235 518 167 q 495 318 518 283 q 429 380 472 353 q 308 442 386 407 q 163 518 217 483 q 78 604 110 553 q 46 732 46 656 q 86 869 46 810 q 199 960 126 928 q 365 992 272 992 q 499 976 436 992 q 607 939 563 961 l 593 808 q 358 876 478 876 q 232 843 278 876 q 186 740 186 810 q 210 662 186 693 q 278 606 235 631 q 408 542 321 582 q 599 416 539 483 q 658 247 658 349 q 568 52 658 124 q 322 -19 478 -19 z "},"Ś":{"ha":693,"x_min":46,"x_max":658,"o":"m 322 -19 q 180 -3 254 -19 q 58 35 106 13 l 76 174 q 200 117 132 139 q 335 96 268 96 q 469 131 421 96 q 518 235 518 167 q 495 318 518 283 q 429 380 472 353 q 308 442 386 407 q 163 518 217 483 q 78 604 110 553 q 46 732 46 656 q 86 869 46 810 q 199 960 126 928 q 365 992 272 992 q 499 976 436 992 q 607 939 563 961 l 593 808 q 358 876 478 876 q 232 843 278 876 q 186 740 186 810 q 210 662 186 693 q 278 606 235 631 q 408 542 321 582 q 599 416 539 483 q 658 247 658 349 q 568 52 658 124 q 322 -19 478 -19 m 261 1142 l 465 1254 l 465 1125 l 261 1061 l 261 1142 z "},"Ṥ":{"ha":693,"x_min":46,"x_max":658,"o":"m 322 -19 q 180 -3 254 -19 q 58 35 106 13 l 76 174 q 200 117 132 139 q 335 96 268 96 q 469 131 421 96 q 518 235 518 167 q 495 318 518 283 q 429 380 472 353 q 308 442 386 407 q 163 518 217 483 q 78 604 110 553 q 46 732 46 656 q 86 869 46 810 q 199 960 126 928 q 365 992 272 992 q 499 976 436 992 q 607 939 563 961 l 593 808 q 358 876 478 876 q 232 843 278 876 q 186 740 186 810 q 210 662 186 693 q 278 606 235 631 q 408 542 321 582 q 599 416 539 483 q 658 247 658 349 q 568 52 658 124 q 322 -19 478 -19 m 261 1142 l 465 1254 l 465 1125 l 261 1061 l 261 1142 m 299 1449 l 426 1449 l 426 1325 l 299 1325 l 299 1449 z "},"Š":{"ha":693,"x_min":46,"x_max":658,"o":"m 322 -19 q 180 -3 254 -19 q 58 35 106 13 l 76 174 q 200 117 132 139 q 335 96 268 96 q 469 131 421 96 q 518 235 518 167 q 495 318 518 283 q 429 380 472 353 q 308 442 386 407 q 163 518 217 483 q 78 604 110 553 q 46 732 46 656 q 86 869 46 810 q 199 960 126 928 q 365 992 272 992 q 499 976 436 992 q 607 939 563 961 l 593 808 q 358 876 478 876 q 232 843 278 876 q 186 740 186 810 q 210 662 186 693 q 278 606 235 631 q 408 542 321 582 q 599 416 539 483 q 658 247 658 349 q 568 52 658 124 q 322 -19 478 -19 m 214 1196 l 214 1279 l 363 1185 l 511 1279 l 511 1196 l 363 1067 l 214 1196 z "},"Ṧ":{"ha":693,"x_min":46,"x_max":658,"o":"m 322 -19 q 180 -3 254 -19 q 58 35 106 13 l 76 174 q 200 117 132 139 q 335 96 268 96 q 469 131 421 96 q 518 235 518 167 q 495 318 518 283 q 429 380 472 353 q 308 442 386 407 q 163 518 217 483 q 78 604 110 553 q 46 732 46 656 q 86 869 46 810 q 199 960 126 928 q 365 992 272 992 q 499 976 436 992 q 607 939 563 961 l 593 808 q 358 876 478 876 q 232 843 278 876 q 186 740 186 810 q 210 662 186 693 q 278 606 235 631 q 408 542 321 582 q 599 416 539 483 q 658 247 658 349 q 568 52 658 124 q 322 -19 478 -19 m 200 1203 l 200 1288 l 363 1201 l 525 1288 l 525 1203 l 363 1088 l 200 1203 m 299 1479 l 426 1479 l 426 1356 l 299 1356 l 299 1479 z "},"Ş":{"ha":693,"x_min":46,"x_max":658,"o":"m 658 247 q 584 65 658 135 q 378 -17 510 -4 l 360 -75 q 442 -106 413 -75 q 472 -187 472 -136 q 433 -281 472 -247 q 332 -314 393 -314 q 240 -296 279 -314 l 261 -231 q 332 -246 296 -246 q 380 -231 363 -246 q 397 -187 397 -217 q 382 -147 397 -161 q 338 -132 367 -132 q 286 -140 315 -132 l 315 -19 q 177 -2 249 -18 q 58 35 106 14 l 76 174 q 200 117 132 139 q 335 96 268 96 q 469 131 421 96 q 518 235 518 167 q 495 318 518 283 q 429 380 472 353 q 308 442 386 407 q 163 518 217 483 q 78 604 110 553 q 46 732 46 656 q 86 869 46 810 q 199 960 126 928 q 365 992 272 992 q 499 976 436 992 q 607 939 563 961 l 593 808 q 358 876 478 876 q 232 843 278 876 q 186 740 186 810 q 210 662 186 693 q 278 606 235 631 q 408 542 321 582 q 599 416 539 483 q 658 247 658 349 z "},"Ŝ":{"ha":693,"x_min":46,"x_max":658,"o":"m 322 -19 q 180 -3 254 -19 q 58 35 106 13 l 76 174 q 200 117 132 139 q 335 96 268 96 q 469 131 421 96 q 518 235 518 167 q 495 318 518 283 q 429 380 472 353 q 308 442 386 407 q 163 518 217 483 q 78 604 110 553 q 46 732 46 656 q 86 869 46 810 q 199 960 126 928 q 365 992 272 992 q 499 976 436 992 q 607 939 563 961 l 593 808 q 358 876 478 876 q 232 843 278 876 q 186 740 186 810 q 210 662 186 693 q 278 606 235 631 q 408 542 321 582 q 599 416 539 483 q 658 247 658 349 q 568 52 658 124 q 322 -19 478 -19 m 525 1133 l 525 1049 l 363 1135 l 200 1049 l 200 1133 l 363 1249 l 525 1133 z "},"Ș":{"ha":693,"x_min":46,"x_max":658,"o":"m 322 -19 q 180 -3 254 -19 q 58 35 106 13 l 76 174 q 200 117 132 139 q 335 96 268 96 q 469 131 421 96 q 518 235 518 167 q 495 318 518 283 q 429 380 472 353 q 308 442 386 407 q 163 518 217 483 q 78 604 110 553 q 46 732 46 656 q 86 869 46 810 q 199 960 126 928 q 365 992 272 992 q 499 976 436 992 q 607 939 563 961 l 593 808 q 358 876 478 876 q 232 843 278 876 q 186 740 186 810 q 210 662 186 693 q 278 606 235 631 q 408 542 321 582 q 599 416 539 483 q 658 247 658 349 q 568 52 658 124 q 322 -19 478 -19 m 271 -394 l 321 -246 l 275 -246 l 275 -126 l 403 -126 l 403 -232 l 331 -394 l 271 -394 z "},"Ṡ":{"ha":693,"x_min":46,"x_max":658,"o":"m 322 -19 q 180 -3 254 -19 q 58 35 106 13 l 76 174 q 200 117 132 139 q 335 96 268 96 q 469 131 421 96 q 518 235 518 167 q 495 318 518 283 q 429 380 472 353 q 308 442 386 407 q 163 518 217 483 q 78 604 110 553 q 46 732 46 656 q 86 869 46 810 q 199 960 126 928 q 365 992 272 992 q 499 976 436 992 q 607 939 563 961 l 593 808 q 358 876 478 876 q 232 843 278 876 q 186 740 186 810 q 210 662 186 693 q 278 606 235 631 q 408 542 321 582 q 599 416 539 483 q 658 247 658 349 q 568 52 658 124 q 322 -19 478 -19 m 299 1222 l 426 1222 l 426 1099 l 299 1099 l 299 1222 z "},"Ṣ":{"ha":693,"x_min":46,"x_max":658,"o":"m 322 -19 q 180 -3 254 -19 q 58 35 106 13 l 76 174 q 200 117 132 139 q 335 96 268 96 q 469 131 421 96 q 518 235 518 167 q 495 318 518 283 q 429 380 472 353 q 308 442 386 407 q 163 518 217 483 q 78 604 110 553 q 46 732 46 656 q 86 869 46 810 q 199 960 126 928 q 365 992 272 992 q 499 976 436 992 q 607 939 563 961 l 593 808 q 358 876 478 876 q 232 843 278 876 q 186 740 186 810 q 210 662 186 693 q 278 606 235 631 q 408 542 321 582 q 599 416 539 483 q 658 247 658 349 q 568 52 658 124 q 322 -19 478 -19 m 278 -112 l 400 -112 l 400 -236 l 278 -236 l 278 -112 z "},"Ṩ":{"ha":693,"x_min":46,"x_max":658,"o":"m 322 -19 q 180 -3 254 -19 q 58 35 106 13 l 76 174 q 200 117 132 139 q 335 96 268 96 q 469 131 421 96 q 518 235 518 167 q 495 318 518 283 q 429 380 472 353 q 308 442 386 407 q 163 518 217 483 q 78 604 110 553 q 46 732 46 656 q 86 869 46 810 q 199 960 126 928 q 365 992 272 992 q 499 976 436 992 q 607 939 563 961 l 593 808 q 358 876 478 876 q 232 843 278 876 q 186 740 186 810 q 210 662 186 693 q 278 606 235 631 q 408 542 321 582 q 599 416 539 483 q 658 247 658 349 q 568 52 658 124 q 322 -19 478 -19 m 299 1222 l 426 1222 l 426 1099 l 299 1099 l 299 1222 m 278 -112 l 400 -112 l 400 -236 l 278 -236 l 278 -112 z "},"ẞ":{"ha":743,"x_min":92,"x_max":699,"o":"m 478 554 q 642 458 585 529 q 699 267 699 386 q 660 109 699 174 q 558 13 621 44 q 419 -19 494 -19 q 294 0 360 -19 l 294 114 q 407 96 347 96 q 517 144 476 96 q 558 276 558 192 q 510 417 558 368 q 367 467 461 467 l 347 467 l 347 567 l 533 851 q 403 874 476 874 q 268 824 318 874 q 218 686 218 774 l 218 0 l 92 0 l 92 683 q 176 913 92 835 q 403 992 261 992 q 540 972 476 992 q 647 918 603 951 l 647 818 l 478 554 z "},"Ə":{"ha":817,"x_min":36,"x_max":775,"o":"m 375 992 q 588 928 497 992 q 726 749 678 865 q 775 472 775 632 q 730 225 775 338 q 600 47 685 113 q 400 -19 515 -19 q 212 28 294 -19 q 83 165 129 75 q 36 381 36 256 q 44 486 36 432 l 640 486 q 567 772 638 671 q 357 874 496 874 q 233 855 293 874 q 104 800 174 836 l 79 910 q 375 992 225 992 m 396 99 q 556 169 496 99 q 633 371 617 240 l 171 371 q 226 171 171 243 q 396 99 282 99 z "},"T":{"ha":661,"x_min":25,"x_max":636,"o":"m 267 857 l 25 857 l 25 972 l 636 972 l 636 857 l 394 857 l 394 0 l 267 0 l 267 857 z "},"Ŧ":{"ha":661,"x_min":25,"x_max":636,"o":"m 394 857 l 394 542 l 560 542 l 560 456 l 394 456 l 394 0 l 267 0 l 267 456 l 101 456 l 101 542 l 267 542 l 267 857 l 25 857 l 25 972 l 636 972 l 636 857 l 394 857 z "},"Ť":{"ha":661,"x_min":25,"x_max":636,"o":"m 267 857 l 25 857 l 25 972 l 636 972 l 636 857 l 394 857 l 394 0 l 267 0 l 267 857 m 182 1196 l 182 1279 l 331 1185 l 479 1279 l 479 1196 l 331 1067 l 182 1196 z "},"Ţ":{"ha":661,"x_min":25,"x_max":636,"o":"m 267 857 l 25 857 l 25 972 l 636 972 l 636 857 l 394 857 l 394 0 l 267 0 l 267 857 m 351 -75 q 434 -106 404 -75 q 464 -187 464 -136 q 424 -281 464 -247 q 324 -314 385 -314 q 232 -296 271 -314 l 253 -231 q 324 -246 288 -246 q 372 -231 354 -246 q 389 -187 389 -217 q 374 -147 389 -161 q 329 -132 358 -132 q 278 -140 307 -132 l 311 0 l 375 0 l 351 -75 z "},"Ț":{"ha":661,"x_min":25,"x_max":636,"o":"m 267 857 l 25 857 l 25 972 l 636 972 l 636 857 l 394 857 l 394 0 l 267 0 l 267 857 m 263 -394 l 313 -246 l 267 -246 l 267 -126 l 394 -126 l 394 -232 l 322 -394 l 263 -394 z "},"Ṭ":{"ha":661,"x_min":25,"x_max":636,"o":"m 267 857 l 25 857 l 25 972 l 636 972 l 636 857 l 394 857 l 394 0 l 267 0 l 267 857 m 269 -112 l 392 -112 l 392 -236 l 269 -236 l 269 -112 z "},"Ṯ":{"ha":661,"x_min":25,"x_max":636,"o":"m 267 857 l 25 857 l 25 972 l 636 972 l 636 857 l 394 857 l 394 0 l 267 0 l 267 857 m 136 -129 l 525 -129 l 525 -224 l 136 -224 l 136 -129 z "},"U":{"ha":857,"x_min":82,"x_max":775,"o":"m 428 -19 q 167 86 251 -19 q 82 385 82 192 l 82 972 l 208 972 l 208 421 q 224 250 208 319 q 289 138 240 181 q 428 96 338 96 q 568 138 519 96 q 633 250 617 181 q 649 421 649 319 l 649 972 l 775 972 l 775 385 q 690 85 775 190 q 428 -19 606 -19 z "},"Ú":{"ha":857,"x_min":82,"x_max":775,"o":"m 428 -19 q 167 86 251 -19 q 82 385 82 192 l 82 972 l 208 972 l 208 421 q 224 250 208 319 q 289 138 240 181 q 428 96 338 96 q 568 138 519 96 q 633 250 617 181 q 649 421 649 319 l 649 972 l 775 972 l 775 385 q 690 85 775 190 q 428 -19 606 -19 m 328 1188 l 532 1318 l 532 1182 l 328 1103 l 328 1188 z "},"Ŭ":{"ha":857,"x_min":82,"x_max":775,"o":"m 428 -19 q 167 86 251 -19 q 82 385 82 192 l 82 972 l 208 972 l 208 421 q 224 250 208 319 q 289 138 240 181 q 428 96 338 96 q 568 138 519 96 q 633 250 617 181 q 649 421 649 319 l 649 972 l 775 972 l 775 385 q 690 85 775 190 q 428 -19 606 -19 m 429 1061 q 289 1108 338 1061 q 240 1219 240 1154 l 351 1219 q 373 1165 351 1183 q 429 1146 394 1146 q 485 1165 464 1146 q 507 1219 507 1183 l 618 1219 q 569 1108 618 1154 q 429 1061 521 1061 z "},"Û":{"ha":857,"x_min":82,"x_max":775,"o":"m 428 -19 q 167 86 251 -19 q 82 385 82 192 l 82 972 l 208 972 l 208 421 q 224 250 208 319 q 289 138 240 181 q 428 96 338 96 q 568 138 519 96 q 633 250 617 181 q 649 421 649 319 l 649 972 l 775 972 l 775 385 q 690 85 775 190 q 428 -19 606 -19 m 281 1158 l 429 1285 l 578 1158 l 578 1075 l 429 1168 l 281 1075 l 281 1158 z "},"Ȕ":{"ha":857,"x_min":82,"x_max":775,"o":"m 428 -19 q 167 86 251 -19 q 82 385 82 192 l 82 972 l 208 972 l 208 421 q 224 250 208 319 q 289 138 240 181 q 428 96 338 96 q 568 138 519 96 q 633 250 617 181 q 649 421 649 319 l 649 972 l 775 972 l 775 385 q 690 85 775 190 q 428 -19 606 -19 m 296 1094 l 169 1325 l 306 1325 l 388 1094 l 296 1094 m 490 1094 l 371 1325 l 497 1325 l 574 1094 l 490 1094 z "},"Ü":{"ha":857,"x_min":82,"x_max":775,"o":"m 428 -19 q 167 86 251 -19 q 82 385 82 192 l 82 972 l 208 972 l 208 421 q 224 250 208 319 q 289 138 240 181 q 428 96 338 96 q 568 138 519 96 q 633 250 617 181 q 649 421 649 319 l 649 972 l 775 972 l 775 385 q 690 85 775 190 q 428 -19 606 -19 m 264 1224 l 378 1224 l 378 1113 l 264 1113 l 264 1224 m 481 1224 l 594 1224 l 594 1113 l 481 1113 l 481 1224 z "},"Ụ":{"ha":857,"x_min":82,"x_max":775,"o":"m 428 -19 q 167 86 251 -19 q 82 385 82 192 l 82 972 l 208 972 l 208 421 q 224 250 208 319 q 289 138 240 181 q 428 96 338 96 q 568 138 519 96 q 633 250 617 181 q 649 421 649 319 l 649 972 l 775 972 l 775 385 q 690 85 775 190 q 428 -19 606 -19 m 368 -112 l 490 -112 l 490 -236 l 368 -236 l 368 -112 z "},"Ù":{"ha":857,"x_min":82,"x_max":775,"o":"m 428 -19 q 167 86 251 -19 q 82 385 82 192 l 82 972 l 208 972 l 208 421 q 224 250 208 319 q 289 138 240 181 q 428 96 338 96 q 568 138 519 96 q 633 250 617 181 q 649 421 649 319 l 649 972 l 775 972 l 775 385 q 690 85 775 190 q 428 -19 606 -19 m 326 1182 l 326 1319 l 531 1190 l 531 1103 l 326 1182 z "},"Ủ":{"ha":857,"x_min":82,"x_max":775,"o":"m 428 -19 q 167 86 251 -19 q 82 385 82 192 l 82 972 l 208 972 l 208 421 q 224 250 208 319 q 289 138 240 181 q 428 96 338 96 q 568 138 519 96 q 633 250 617 181 q 649 421 649 319 l 649 972 l 775 972 l 775 385 q 690 85 775 190 q 428 -19 606 -19 m 403 1067 q 442 1117 432 1099 q 453 1158 453 1136 q 440 1192 453 1181 q 407 1204 428 1204 q 333 1181 376 1204 l 310 1247 q 414 1271 354 1271 q 498 1242 465 1271 q 531 1163 531 1213 q 512 1090 531 1121 q 450 1021 493 1060 l 403 1067 z "},"Ư":{"ha":857,"x_min":82,"x_max":897,"o":"m 897 1075 q 865 965 897 1011 q 775 899 832 919 l 775 385 q 690 85 775 190 q 428 -19 606 -19 q 167 86 251 -19 q 82 385 82 192 l 82 972 l 208 972 l 208 421 q 224 250 208 319 q 289 138 240 181 q 428 96 338 96 q 568 138 519 96 q 633 250 617 181 q 649 421 649 319 l 649 972 l 688 972 q 785 1075 785 972 l 897 1075 z "},"Ứ":{"ha":857,"x_min":82,"x_max":897,"o":"m 897 1075 q 865 965 897 1011 q 775 899 832 919 l 775 385 q 690 85 775 190 q 428 -19 606 -19 q 167 86 251 -19 q 82 385 82 192 l 82 972 l 208 972 l 208 421 q 224 250 208 319 q 289 138 240 181 q 428 96 338 96 q 568 138 519 96 q 633 250 617 181 q 649 421 649 319 l 649 972 l 688 972 q 785 1075 785 972 l 897 1075 m 328 1188 l 532 1318 l 532 1182 l 328 1103 l 328 1188 z "},"Ự":{"ha":857,"x_min":82,"x_max":897,"o":"m 897 1075 q 865 965 897 1011 q 775 899 832 919 l 775 385 q 690 85 775 190 q 428 -19 606 -19 q 167 86 251 -19 q 82 385 82 192 l 82 972 l 208 972 l 208 421 q 224 250 208 319 q 289 138 240 181 q 428 96 338 96 q 568 138 519 96 q 633 250 617 181 q 649 421 649 319 l 649 972 l 688 972 q 785 1075 785 972 l 897 1075 m 368 -112 l 490 -112 l 490 -236 l 368 -236 l 368 -112 z "},"Ừ":{"ha":857,"x_min":82,"x_max":897,"o":"m 897 1075 q 865 965 897 1011 q 775 899 832 919 l 775 385 q 690 85 775 190 q 428 -19 606 -19 q 167 86 251 -19 q 82 385 82 192 l 82 972 l 208 972 l 208 421 q 224 250 208 319 q 289 138 240 181 q 428 96 338 96 q 568 138 519 96 q 633 250 617 181 q 649 421 649 319 l 649 972 l 688 972 q 785 1075 785 972 l 897 1075 m 326 1182 l 326 1319 l 531 1190 l 531 1103 l 326 1182 z "},"Ử":{"ha":857,"x_min":82,"x_max":897,"o":"m 897 1075 q 865 965 897 1011 q 775 899 832 919 l 775 385 q 690 85 775 190 q 428 -19 606 -19 q 167 86 251 -19 q 82 385 82 192 l 82 972 l 208 972 l 208 421 q 224 250 208 319 q 289 138 240 181 q 428 96 338 96 q 568 138 519 96 q 633 250 617 181 q 649 421 649 319 l 649 972 l 688 972 q 785 1075 785 972 l 897 1075 m 403 1067 q 442 1117 432 1099 q 453 1158 453 1136 q 440 1192 453 1181 q 407 1204 428 1204 q 333 1181 376 1204 l 310 1247 q 414 1271 354 1271 q 498 1242 465 1271 q 531 1163 531 1213 q 512 1090 531 1121 q 450 1021 493 1060 l 403 1067 z "},"Ữ":{"ha":857,"x_min":82,"x_max":897,"o":"m 897 1075 q 865 965 897 1011 q 775 899 832 919 l 775 385 q 690 85 775 190 q 428 -19 606 -19 q 167 86 251 -19 q 82 385 82 192 l 82 972 l 208 972 l 208 421 q 224 250 208 319 q 289 138 240 181 q 428 96 338 96 q 568 138 519 96 q 633 250 617 181 q 649 421 649 319 l 649 972 l 688 972 q 785 1075 785 972 l 897 1075 m 526 1097 q 478 1107 499 1097 q 428 1135 457 1117 q 364 1163 390 1163 q 336 1148 346 1163 q 326 1108 326 1133 l 226 1108 q 332 1263 233 1263 q 381 1253 360 1263 q 431 1225 401 1243 q 494 1197 468 1197 q 522 1212 513 1197 q 532 1251 532 1226 l 632 1251 q 526 1097 625 1097 z "},"Ű":{"ha":857,"x_min":82,"x_max":775,"o":"m 428 -19 q 167 86 251 -19 q 82 385 82 192 l 82 972 l 208 972 l 208 421 q 224 250 208 319 q 289 138 240 181 q 428 96 338 96 q 568 138 519 96 q 633 250 617 181 q 649 421 649 319 l 649 972 l 775 972 l 775 385 q 690 85 775 190 q 428 -19 606 -19 m 368 1297 l 499 1297 l 376 1094 l 290 1094 l 368 1297 m 564 1297 l 694 1297 l 565 1094 l 479 1094 l 564 1297 z "},"Ȗ":{"ha":857,"x_min":82,"x_max":775,"o":"m 428 -19 q 167 86 251 -19 q 82 385 82 192 l 82 972 l 208 972 l 208 421 q 224 250 208 319 q 289 138 240 181 q 428 96 338 96 q 568 138 519 96 q 633 250 617 181 q 649 421 649 319 l 649 972 l 775 972 l 775 385 q 690 85 775 190 q 428 -19 606 -19 m 429 1240 q 569 1194 521 1240 q 618 1082 618 1147 l 507 1082 q 485 1136 507 1118 q 429 1154 464 1154 q 373 1136 394 1154 q 351 1082 351 1118 l 240 1082 q 289 1194 240 1147 q 429 1240 338 1240 z "},"Ū":{"ha":857,"x_min":82,"x_max":775,"o":"m 428 -19 q 167 86 251 -19 q 82 385 82 192 l 82 972 l 208 972 l 208 421 q 224 250 208 319 q 289 138 240 181 q 428 96 338 96 q 568 138 519 96 q 633 250 617 181 q 649 421 649 319 l 649 972 l 775 972 l 775 385 q 690 85 775 190 q 428 -19 606 -19 m 221 1193 l 638 1193 l 638 1101 l 221 1101 l 221 1193 z "},"Ṻ":{"ha":857,"x_min":82,"x_max":775,"o":"m 428 -19 q 167 86 251 -19 q 82 385 82 192 l 82 972 l 208 972 l 208 421 q 224 250 208 319 q 289 138 240 181 q 428 96 338 96 q 568 138 519 96 q 633 250 617 181 q 649 421 649 319 l 649 972 l 775 972 l 775 385 q 690 85 775 190 q 428 -19 606 -19 m 221 1193 l 638 1193 l 638 1101 l 221 1101 l 221 1193 m 264 1419 l 381 1419 l 381 1315 l 264 1315 l 264 1419 m 478 1419 l 594 1419 l 594 1315 l 478 1315 l 478 1419 z "},"Ų":{"ha":857,"x_min":82,"x_max":775,"o":"m 775 972 l 775 385 q 719 128 775 228 q 547 -4 664 28 q 479 -86 501 -51 q 457 -157 457 -121 q 475 -202 457 -186 q 524 -218 493 -218 q 583 -206 554 -218 l 604 -271 q 513 -289 565 -289 q 415 -258 454 -289 q 376 -174 376 -228 q 458 -18 376 -97 q 428 -19 449 -19 q 167 86 251 -19 q 82 385 82 192 l 82 972 l 208 972 l 208 421 q 224 250 208 319 q 289 138 240 181 q 428 96 338 96 q 568 138 519 96 q 633 250 617 181 q 649 421 649 319 l 649 972 l 775 972 z "},"Ů":{"ha":857,"x_min":82,"x_max":775,"o":"m 428 -19 q 167 86 251 -19 q 82 385 82 192 l 82 972 l 208 972 l 208 421 q 224 250 208 319 q 289 138 240 181 q 428 96 338 96 q 568 138 519 96 q 633 250 617 181 q 649 421 649 319 l 649 972 l 775 972 l 775 385 q 690 85 775 190 q 428 -19 606 -19 m 429 1050 q 333 1090 367 1050 q 299 1186 299 1129 q 333 1282 299 1242 q 429 1322 368 1322 q 525 1282 490 1322 q 560 1186 560 1242 q 526 1090 560 1129 q 429 1050 492 1050 m 429 1111 q 474 1131 457 1111 q 490 1186 490 1151 q 474 1240 490 1219 q 429 1261 457 1261 q 385 1240 401 1261 q 368 1186 368 1219 q 385 1131 368 1151 q 429 1111 401 1111 z "},"Ũ":{"ha":857,"x_min":82,"x_max":775,"o":"m 428 -19 q 167 86 251 -19 q 82 385 82 192 l 82 972 l 208 972 l 208 421 q 224 250 208 319 q 289 138 240 181 q 428 96 338 96 q 568 138 519 96 q 633 250 617 181 q 649 421 649 319 l 649 972 l 775 972 l 775 385 q 690 85 775 190 q 428 -19 606 -19 m 526 1097 q 478 1107 499 1097 q 428 1135 457 1117 q 364 1163 390 1163 q 336 1148 346 1163 q 326 1108 326 1133 l 226 1108 q 332 1263 233 1263 q 381 1253 360 1263 q 431 1225 401 1243 q 494 1197 468 1197 q 522 1212 513 1197 q 532 1251 532 1226 l 632 1251 q 526 1097 625 1097 z "},"Ṹ":{"ha":857,"x_min":82,"x_max":775,"o":"m 428 -19 q 167 86 251 -19 q 82 385 82 192 l 82 972 l 208 972 l 208 421 q 224 250 208 319 q 289 138 240 181 q 428 96 338 96 q 568 138 519 96 q 633 250 617 181 q 649 421 649 319 l 649 972 l 775 972 l 775 385 q 690 85 775 190 q 428 -19 606 -19 m 528 1094 q 483 1102 506 1094 q 432 1124 461 1110 q 403 1135 428 1125 q 361 1146 379 1146 q 331 1134 342 1146 q 319 1101 319 1122 l 229 1101 q 256 1204 229 1168 q 331 1240 282 1240 q 375 1233 353 1240 q 426 1211 397 1225 q 455 1199 431 1210 q 497 1189 479 1189 q 528 1201 517 1189 q 539 1233 539 1213 l 629 1233 q 603 1131 629 1167 q 528 1094 576 1094 m 328 1386 l 532 1499 l 532 1369 l 328 1306 l 328 1386 z "},"V":{"ha":786,"x_min":11,"x_max":774,"o":"m 11 972 l 147 972 l 393 164 l 639 972 l 774 972 l 465 0 l 319 0 l 11 972 z "},"W":{"ha":1154,"x_min":11,"x_max":1142,"o":"m 11 972 l 147 972 l 322 176 l 506 953 l 649 953 l 831 176 l 1007 972 l 1142 972 l 903 0 l 760 0 l 575 769 l 394 0 l 251 0 l 11 972 z "},"Ẃ":{"ha":1154,"x_min":11,"x_max":1142,"o":"m 11 972 l 147 972 l 322 176 l 506 953 l 649 953 l 831 176 l 1007 972 l 1142 972 l 903 0 l 760 0 l 575 769 l 394 0 l 251 0 l 11 972 m 475 1142 l 679 1254 l 679 1125 l 475 1061 l 475 1142 z "},"Ŵ":{"ha":1154,"x_min":11,"x_max":1142,"o":"m 11 972 l 147 972 l 322 176 l 506 953 l 649 953 l 831 176 l 1007 972 l 1142 972 l 903 0 l 760 0 l 575 769 l 394 0 l 251 0 l 11 972 m 739 1133 l 739 1049 l 576 1135 l 414 1049 l 414 1133 l 576 1249 l 739 1133 z "},"Ẅ":{"ha":1154,"x_min":11,"x_max":1142,"o":"m 11 972 l 147 972 l 322 176 l 506 953 l 649 953 l 831 176 l 1007 972 l 1142 972 l 903 0 l 760 0 l 575 769 l 394 0 l 251 0 l 11 972 m 411 1207 l 528 1207 l 528 1103 l 411 1103 l 411 1207 m 625 1207 l 742 1207 l 742 1103 l 625 1103 l 625 1207 z "},"Ẁ":{"ha":1154,"x_min":11,"x_max":1142,"o":"m 11 972 l 147 972 l 322 176 l 506 953 l 649 953 l 831 176 l 1007 972 l 1142 972 l 903 0 l 760 0 l 575 769 l 394 0 l 251 0 l 11 972 m 474 1122 l 474 1254 l 678 1142 l 678 1061 l 474 1122 z "},"X":{"ha":742,"x_min":11,"x_max":731,"o":"m 304 490 l 17 972 l 157 972 l 372 606 l 585 972 l 725 972 l 439 490 l 731 0 l 590 0 l 372 376 l 151 0 l 11 0 l 304 490 z "},"Y":{"ha":718,"x_min":-1,"x_max":700,"o":"m 700 972 l 414 421 l 414 0 l 288 0 l 288 421 l -1 972 l 139 972 l 350 554 l 560 972 l 700 972 z "},"Ý":{"ha":718,"x_min":-1,"x_max":700,"o":"m 700 972 l 414 421 l 414 0 l 288 0 l 288 421 l -1 972 l 139 972 l 350 554 l 560 972 l 700 972 m 249 1188 l 453 1318 l 453 1182 l 249 1103 l 249 1188 z "},"Ŷ":{"ha":718,"x_min":-1,"x_max":700,"o":"m 700 972 l 414 421 l 414 0 l 288 0 l 288 421 l -1 972 l 139 972 l 350 554 l 560 972 l 700 972 m 513 1133 l 513 1049 l 350 1135 l 188 1049 l 188 1133 l 350 1249 l 513 1133 z "},"Ÿ":{"ha":718,"x_min":-1,"x_max":700,"o":"m 700 972 l 414 421 l 414 0 l 288 0 l 288 421 l -1 972 l 139 972 l 350 554 l 560 972 l 700 972 m 185 1224 l 299 1224 l 299 1113 l 185 1113 l 185 1224 m 401 1224 l 515 1224 l 515 1113 l 401 1113 l 401 1224 z "},"Ẏ":{"ha":718,"x_min":-1,"x_max":700,"o":"m 700 972 l 414 421 l 414 0 l 288 0 l 288 421 l -1 972 l 139 972 l 350 554 l 560 972 l 700 972 m 286 1222 l 414 1222 l 414 1099 l 286 1099 l 286 1222 z "},"Ỵ":{"ha":718,"x_min":-1,"x_max":700,"o":"m 700 972 l 414 421 l 414 0 l 288 0 l 288 421 l -1 972 l 139 972 l 350 554 l 560 972 l 700 972 m 290 -112 l 413 -112 l 413 -236 l 290 -236 l 290 -112 z "},"Ỳ":{"ha":718,"x_min":-1,"x_max":700,"o":"m 700 972 l 414 421 l 414 0 l 288 0 l 288 421 l -1 972 l 139 972 l 350 554 l 560 972 l 700 972 m 247 1182 l 247 1319 l 451 1190 l 451 1103 l 247 1182 z "},"Ỷ":{"ha":718,"x_min":-1,"x_max":700,"o":"m 700 972 l 414 421 l 414 0 l 288 0 l 288 421 l -1 972 l 139 972 l 350 554 l 560 972 l 700 972 m 324 1067 q 363 1117 353 1099 q 374 1158 374 1136 q 361 1192 374 1181 q 328 1204 349 1204 q 254 1181 297 1204 l 231 1247 q 335 1271 275 1271 q 419 1242 386 1271 q 451 1163 451 1213 q 433 1090 451 1121 q 371 1021 414 1060 l 324 1067 z "},"Ȳ":{"ha":718,"x_min":-1,"x_max":700,"o":"m 700 972 l 414 421 l 414 0 l 288 0 l 288 421 l -1 972 l 139 972 l 350 554 l 560 972 l 700 972 m 142 1193 l 558 1193 l 558 1101 l 142 1101 l 142 1193 z "},"Ỹ":{"ha":718,"x_min":-1,"x_max":700,"o":"m 700 972 l 414 421 l 414 0 l 288 0 l 288 421 l -1 972 l 139 972 l 350 554 l 560 972 l 700 972 m 447 1097 q 399 1107 419 1097 q 349 1135 378 1117 q 285 1163 311 1163 q 257 1148 267 1163 q 247 1108 247 1133 l 147 1108 q 253 1263 154 1263 q 301 1253 281 1263 q 351 1225 322 1243 q 415 1197 389 1197 q 443 1212 433 1197 q 453 1251 453 1226 l 553 1251 q 447 1097 546 1097 z "},"Z":{"ha":667,"x_min":10,"x_max":651,"o":"m 651 118 l 651 0 l 10 0 l 450 854 l 64 854 l 64 972 l 646 972 l 206 118 l 651 118 z "},"Ź":{"ha":667,"x_min":10,"x_max":651,"o":"m 651 118 l 651 0 l 10 0 l 450 854 l 64 854 l 64 972 l 646 972 l 206 118 l 651 118 m 254 1142 l 458 1254 l 458 1125 l 254 1061 l 254 1142 z "},"Ž":{"ha":667,"x_min":10,"x_max":651,"o":"m 651 118 l 651 0 l 10 0 l 450 854 l 64 854 l 64 972 l 646 972 l 206 118 l 651 118 m 207 1196 l 207 1279 l 356 1185 l 504 1279 l 504 1196 l 356 1067 l 207 1196 z "},"Ż":{"ha":667,"x_min":10,"x_max":651,"o":"m 651 118 l 651 0 l 10 0 l 450 854 l 64 854 l 64 972 l 646 972 l 206 118 l 651 118 m 292 1222 l 419 1222 l 419 1099 l 292 1099 l 292 1222 z "},"Ẓ":{"ha":667,"x_min":10,"x_max":651,"o":"m 651 118 l 651 0 l 10 0 l 450 854 l 64 854 l 64 972 l 646 972 l 206 118 l 651 118 m 269 -112 l 392 -112 l 392 -236 l 269 -236 l 269 -112 z "},"a":{"ha":603,"x_min":33,"x_max":578,"o":"m 211 -14 q 83 42 133 -14 q 33 183 33 97 q 140 367 33 311 q 379 426 247 424 q 353 550 379 515 q 264 585 326 585 q 100 522 183 585 l 85 624 q 288 694 172 694 q 450 631 397 694 q 503 428 503 568 l 503 229 q 514 117 503 150 q 563 85 525 85 l 578 85 l 563 -14 l 536 -14 q 442 10 472 -14 q 392 86 411 33 q 313 13 360 40 q 211 -14 265 -14 m 249 85 q 318 110 282 85 q 379 178 354 136 l 379 340 q 217 299 272 335 q 161 190 161 264 q 249 85 161 85 z "},"á":{"ha":603,"x_min":33,"x_max":578,"o":"m 211 -14 q 83 42 133 -14 q 33 183 33 97 q 140 367 33 311 q 379 426 247 424 q 353 550 379 515 q 264 585 326 585 q 100 522 183 585 l 85 624 q 288 694 172 694 q 450 631 397 694 q 503 428 503 568 l 503 229 q 514 117 503 150 q 563 85 525 85 l 578 85 l 563 -14 l 536 -14 q 442 10 472 -14 q 392 86 411 33 q 313 13 360 40 q 211 -14 265 -14 m 249 85 q 318 110 282 85 q 379 178 354 136 l 379 340 q 217 299 272 335 q 161 190 161 264 q 249 85 161 85 m 200 896 l 404 1026 l 404 890 l 200 811 l 200 896 z "},"ă":{"ha":603,"x_min":33,"x_max":578,"o":"m 211 -14 q 83 42 133 -14 q 33 183 33 97 q 140 367 33 311 q 379 426 247 424 q 353 550 379 515 q 264 585 326 585 q 100 522 183 585 l 85 624 q 288 694 172 694 q 450 631 397 694 q 503 428 503 568 l 503 229 q 514 117 503 150 q 563 85 525 85 l 578 85 l 563 -14 l 536 -14 q 442 10 472 -14 q 392 86 411 33 q 313 13 360 40 q 211 -14 265 -14 m 249 85 q 318 110 282 85 q 379 178 354 136 l 379 340 q 217 299 272 335 q 161 190 161 264 q 249 85 161 85 m 301 800 q 161 849 210 800 q 113 968 113 897 l 221 968 q 241 911 221 932 q 301 890 261 890 q 362 911 342 890 q 382 968 382 932 l 490 968 q 442 849 490 897 q 301 800 393 800 z "},"ắ":{"ha":603,"x_min":33,"x_max":578,"o":"m 211 -14 q 83 42 133 -14 q 33 183 33 97 q 140 367 33 311 q 379 426 247 424 q 353 550 379 515 q 264 585 326 585 q 100 522 183 585 l 85 624 q 288 694 172 694 q 450 631 397 694 q 503 428 503 568 l 503 229 q 514 117 503 150 q 563 85 525 85 l 578 85 l 563 -14 l 536 -14 q 442 10 472 -14 q 392 86 411 33 q 313 13 360 40 q 211 -14 265 -14 m 249 85 q 318 110 282 85 q 379 178 354 136 l 379 340 q 217 299 272 335 q 161 190 161 264 q 249 85 161 85 m 301 769 q 161 816 210 769 q 113 928 113 863 l 224 928 q 245 873 224 892 q 301 854 267 854 q 358 873 336 854 q 379 928 379 892 l 490 928 q 442 816 490 863 q 301 769 393 769 m 200 1069 l 404 1182 l 404 1053 l 200 989 l 200 1069 z "},"ặ":{"ha":603,"x_min":33,"x_max":578,"o":"m 211 -14 q 83 42 133 -14 q 33 183 33 97 q 140 367 33 311 q 379 426 247 424 q 353 550 379 515 q 264 585 326 585 q 100 522 183 585 l 85 624 q 288 694 172 694 q 450 631 397 694 q 503 428 503 568 l 503 229 q 514 117 503 150 q 563 85 525 85 l 578 85 l 563 -14 l 536 -14 q 442 10 472 -14 q 392 86 411 33 q 313 13 360 40 q 211 -14 265 -14 m 249 85 q 318 110 282 85 q 379 178 354 136 l 379 340 q 217 299 272 335 q 161 190 161 264 q 249 85 161 85 m 301 800 q 161 849 210 800 q 113 968 113 897 l 221 968 q 241 911 221 932 q 301 890 261 890 q 362 911 342 890 q 382 968 382 932 l 490 968 q 442 849 490 897 q 301 800 393 800 m 240 -112 l 363 -112 l 363 -236 l 240 -236 l 240 -112 z "},"ằ":{"ha":603,"x_min":33,"x_max":578,"o":"m 211 -14 q 83 42 133 -14 q 33 183 33 97 q 140 367 33 311 q 379 426 247 424 q 353 550 379 515 q 264 585 326 585 q 100 522 183 585 l 85 624 q 288 694 172 694 q 450 631 397 694 q 503 428 503 568 l 503 229 q 514 117 503 150 q 563 85 525 85 l 578 85 l 563 -14 l 536 -14 q 442 10 472 -14 q 392 86 411 33 q 313 13 360 40 q 211 -14 265 -14 m 249 85 q 318 110 282 85 q 379 178 354 136 l 379 340 q 217 299 272 335 q 161 190 161 264 q 249 85 161 85 m 301 768 q 161 815 210 768 q 113 926 113 861 l 224 926 q 245 872 224 890 q 301 853 267 853 q 358 872 336 853 q 379 926 379 890 l 490 926 q 442 815 490 861 q 301 768 393 768 m 199 1049 l 199 1181 l 403 1068 l 403 988 l 199 1049 z "},"ẳ":{"ha":603,"x_min":33,"x_max":578,"o":"m 211 -14 q 83 42 133 -14 q 33 183 33 97 q 140 367 33 311 q 379 426 247 424 q 353 550 379 515 q 264 585 326 585 q 100 522 183 585 l 85 624 q 288 694 172 694 q 450 631 397 694 q 503 428 503 568 l 503 229 q 514 117 503 150 q 563 85 525 85 l 578 85 l 563 -14 l 536 -14 q 442 10 472 -14 q 392 86 411 33 q 313 13 360 40 q 211 -14 265 -14 m 249 85 q 318 110 282 85 q 379 178 354 136 l 379 340 q 217 299 272 335 q 161 190 161 264 q 249 85 161 85 m 301 769 q 161 816 210 769 q 113 928 113 863 l 224 928 q 245 873 224 892 q 301 854 267 854 q 358 873 336 854 q 379 928 379 892 l 490 928 q 442 816 490 863 q 301 769 393 769 m 301 1004 q 328 1028 319 1015 q 336 1058 336 1040 q 324 1092 336 1081 q 288 1103 311 1103 q 219 1083 258 1103 l 196 1151 q 297 1172 244 1172 q 383 1144 349 1172 q 417 1068 417 1115 q 393 999 417 1026 q 322 951 369 971 l 301 1004 z "},"ẵ":{"ha":603,"x_min":33,"x_max":578,"o":"m 211 -14 q 83 42 133 -14 q 33 183 33 97 q 140 367 33 311 q 379 426 247 424 q 353 550 379 515 q 264 585 326 585 q 100 522 183 585 l 85 624 q 288 694 172 694 q 450 631 397 694 q 503 428 503 568 l 503 229 q 514 117 503 150 q 563 85 525 85 l 578 85 l 563 -14 l 536 -14 q 442 10 472 -14 q 392 86 411 33 q 313 13 360 40 q 211 -14 265 -14 m 249 85 q 318 110 282 85 q 379 178 354 136 l 379 340 q 217 299 272 335 q 161 190 161 264 q 249 85 161 85 m 301 769 q 161 816 210 769 q 113 928 113 863 l 224 928 q 245 873 224 892 q 301 854 267 854 q 358 873 336 854 q 379 928 379 892 l 490 928 q 442 816 490 863 q 301 769 393 769 m 400 993 q 356 1001 378 993 q 304 1022 333 1008 q 276 1034 300 1024 q 233 1044 251 1044 q 203 1033 214 1044 q 192 1000 192 1021 l 101 1000 q 128 1103 101 1067 q 203 1139 154 1139 q 247 1131 225 1139 q 299 1110 269 1124 q 327 1098 303 1108 q 369 1088 351 1088 q 400 1099 389 1088 q 411 1132 411 1111 l 501 1132 q 475 1029 501 1065 q 400 993 449 993 z "},"â":{"ha":603,"x_min":33,"x_max":578,"o":"m 211 -14 q 83 42 133 -14 q 33 183 33 97 q 140 367 33 311 q 379 426 247 424 q 353 550 379 515 q 264 585 326 585 q 100 522 183 585 l 85 624 q 288 694 172 694 q 450 631 397 694 q 503 428 503 568 l 503 229 q 514 117 503 150 q 563 85 525 85 l 578 85 l 563 -14 l 536 -14 q 442 10 472 -14 q 392 86 411 33 q 313 13 360 40 q 211 -14 265 -14 m 249 85 q 318 110 282 85 q 379 178 354 136 l 379 340 q 217 299 272 335 q 161 190 161 264 q 249 85 161 85 m 153 867 l 301 993 l 450 867 l 450 783 l 301 876 l 153 783 l 153 867 z "},"ấ":{"ha":603,"x_min":33,"x_max":608,"o":"m 211 -14 q 83 42 133 -14 q 33 183 33 97 q 140 367 33 311 q 379 426 247 424 q 353 550 379 515 q 264 585 326 585 q 100 522 183 585 l 85 624 q 288 694 172 694 q 450 631 397 694 q 503 428 503 568 l 503 229 q 514 117 503 150 q 563 85 525 85 l 578 85 l 563 -14 l 536 -14 q 442 10 472 -14 q 392 86 411 33 q 313 13 360 40 q 211 -14 265 -14 m 249 85 q 318 110 282 85 q 379 178 354 136 l 379 340 q 217 299 272 335 q 161 190 161 264 q 249 85 161 85 m 478 1108 l 608 1108 l 486 946 l 400 946 l 478 1108 m 464 839 l 464 754 l 301 840 l 139 754 l 139 839 l 301 954 l 464 839 z "},"ậ":{"ha":603,"x_min":33,"x_max":578,"o":"m 211 -14 q 83 42 133 -14 q 33 183 33 97 q 140 367 33 311 q 379 426 247 424 q 353 550 379 515 q 264 585 326 585 q 100 522 183 585 l 85 624 q 288 694 172 694 q 450 631 397 694 q 503 428 503 568 l 503 229 q 514 117 503 150 q 563 85 525 85 l 578 85 l 563 -14 l 536 -14 q 442 10 472 -14 q 392 86 411 33 q 313 13 360 40 q 211 -14 265 -14 m 249 85 q 318 110 282 85 q 379 178 354 136 l 379 340 q 217 299 272 335 q 161 190 161 264 q 249 85 161 85 m 153 867 l 301 993 l 450 867 l 450 783 l 301 876 l 153 783 l 153 867 m 240 -112 l 363 -112 l 363 -236 l 240 -236 l 240 -112 z "},"ầ":{"ha":603,"x_min":33,"x_max":578,"o":"m 211 -14 q 83 42 133 -14 q 33 183 33 97 q 140 367 33 311 q 379 426 247 424 q 353 550 379 515 q 264 585 326 585 q 100 522 183 585 l 85 624 q 288 694 172 694 q 450 631 397 694 q 503 428 503 568 l 503 229 q 514 117 503 150 q 563 85 525 85 l 578 85 l 563 -14 l 536 -14 q 442 10 472 -14 q 392 86 411 33 q 313 13 360 40 q 211 -14 265 -14 m 249 85 q 318 110 282 85 q 379 178 354 136 l 379 340 q 217 299 272 335 q 161 190 161 264 q 249 85 161 85 m 425 946 l 318 1108 l 443 1108 l 507 946 l 425 946 m 464 839 l 464 754 l 301 840 l 139 754 l 139 839 l 301 954 l 464 839 z "},"ẩ":{"ha":603,"x_min":33,"x_max":578,"o":"m 211 -14 q 83 42 133 -14 q 33 183 33 97 q 140 367 33 311 q 379 426 247 424 q 353 550 379 515 q 264 585 326 585 q 100 522 183 585 l 85 624 q 288 694 172 694 q 450 631 397 694 q 503 428 503 568 l 503 229 q 514 117 503 150 q 563 85 525 85 l 578 85 l 563 -14 l 536 -14 q 442 10 472 -14 q 392 86 411 33 q 313 13 360 40 q 211 -14 265 -14 m 249 85 q 318 110 282 85 q 379 178 354 136 l 379 340 q 217 299 272 335 q 161 190 161 264 q 249 85 161 85 m 464 839 l 464 754 l 301 840 l 139 754 l 139 839 l 301 954 l 464 839 m 422 963 q 449 986 440 974 q 457 1017 457 999 q 444 1050 457 1039 q 408 1061 432 1061 q 340 1042 379 1061 l 317 1110 q 418 1131 365 1131 q 503 1102 469 1131 q 538 1026 538 1074 q 514 957 538 985 q 443 910 490 929 l 422 963 z "},"ẫ":{"ha":603,"x_min":33,"x_max":578,"o":"m 211 -14 q 83 42 133 -14 q 33 183 33 97 q 140 367 33 311 q 379 426 247 424 q 353 550 379 515 q 264 585 326 585 q 100 522 183 585 l 85 624 q 288 694 172 694 q 450 631 397 694 q 503 428 503 568 l 503 229 q 514 117 503 150 q 563 85 525 85 l 578 85 l 563 -14 l 536 -14 q 442 10 472 -14 q 392 86 411 33 q 313 13 360 40 q 211 -14 265 -14 m 249 85 q 318 110 282 85 q 379 178 354 136 l 379 340 q 217 299 272 335 q 161 190 161 264 q 249 85 161 85 m 464 839 l 464 754 l 301 840 l 139 754 l 139 839 l 301 954 l 464 839 m 400 1011 q 356 1019 378 1011 q 304 1040 333 1026 q 276 1052 300 1042 q 233 1063 251 1063 q 203 1051 214 1063 q 192 1018 192 1039 l 101 1018 q 128 1121 101 1085 q 203 1157 154 1157 q 247 1149 225 1157 q 299 1128 269 1142 q 327 1116 303 1126 q 369 1106 351 1106 q 400 1117 389 1106 q 411 1150 411 1129 l 501 1150 q 475 1047 501 1083 q 400 1011 449 1011 z "},"ȁ":{"ha":603,"x_min":33,"x_max":578,"o":"m 211 -14 q 83 42 133 -14 q 33 183 33 97 q 140 367 33 311 q 379 426 247 424 q 353 550 379 515 q 264 585 326 585 q 100 522 183 585 l 85 624 q 288 694 172 694 q 450 631 397 694 q 503 428 503 568 l 503 229 q 514 117 503 150 q 563 85 525 85 l 578 85 l 563 -14 l 536 -14 q 442 10 472 -14 q 392 86 411 33 q 313 13 360 40 q 211 -14 265 -14 m 249 85 q 318 110 282 85 q 379 178 354 136 l 379 340 q 217 299 272 335 q 161 190 161 264 q 249 85 161 85 m 168 803 l 42 1033 l 178 1033 l 260 803 l 168 803 m 363 803 l 243 1033 l 369 1033 l 446 803 l 363 803 z "},"ä":{"ha":603,"x_min":33,"x_max":578,"o":"m 211 -14 q 83 42 133 -14 q 33 183 33 97 q 140 367 33 311 q 379 426 247 424 q 353 550 379 515 q 264 585 326 585 q 100 522 183 585 l 85 624 q 288 694 172 694 q 450 631 397 694 q 503 428 503 568 l 503 229 q 514 117 503 150 q 563 85 525 85 l 578 85 l 563 -14 l 536 -14 q 442 10 472 -14 q 392 86 411 33 q 313 13 360 40 q 211 -14 265 -14 m 249 85 q 318 110 282 85 q 379 178 354 136 l 379 340 q 217 299 272 335 q 161 190 161 264 q 249 85 161 85 m 136 932 l 250 932 l 250 821 l 136 821 l 136 932 m 353 932 l 467 932 l 467 821 l 353 821 l 353 932 z "},"ạ":{"ha":603,"x_min":33,"x_max":578,"o":"m 211 -14 q 83 42 133 -14 q 33 183 33 97 q 140 367 33 311 q 379 426 247 424 q 353 550 379 515 q 264 585 326 585 q 100 522 183 585 l 85 624 q 288 694 172 694 q 450 631 397 694 q 503 428 503 568 l 503 229 q 514 117 503 150 q 563 85 525 85 l 578 85 l 563 -14 l 536 -14 q 442 10 472 -14 q 392 86 411 33 q 313 13 360 40 q 211 -14 265 -14 m 249 85 q 318 110 282 85 q 379 178 354 136 l 379 340 q 217 299 272 335 q 161 190 161 264 q 249 85 161 85 m 240 -112 l 363 -112 l 363 -236 l 240 -236 l 240 -112 z "},"à":{"ha":603,"x_min":33,"x_max":578,"o":"m 211 -14 q 83 42 133 -14 q 33 183 33 97 q 140 367 33 311 q 379 426 247 424 q 353 550 379 515 q 264 585 326 585 q 100 522 183 585 l 85 624 q 288 694 172 694 q 450 631 397 694 q 503 428 503 568 l 503 229 q 514 117 503 150 q 563 85 525 85 l 578 85 l 563 -14 l 536 -14 q 442 10 472 -14 q 392 86 411 33 q 313 13 360 40 q 211 -14 265 -14 m 249 85 q 318 110 282 85 q 379 178 354 136 l 379 340 q 217 299 272 335 q 161 190 161 264 q 249 85 161 85 m 199 890 l 199 1028 l 403 899 l 403 811 l 199 890 z "},"ả":{"ha":603,"x_min":33,"x_max":578,"o":"m 211 -14 q 83 42 133 -14 q 33 183 33 97 q 140 367 33 311 q 379 426 247 424 q 353 550 379 515 q 264 585 326 585 q 100 522 183 585 l 85 624 q 288 694 172 694 q 450 631 397 694 q 503 428 503 568 l 503 229 q 514 117 503 150 q 563 85 525 85 l 578 85 l 563 -14 l 536 -14 q 442 10 472 -14 q 392 86 411 33 q 313 13 360 40 q 211 -14 265 -14 m 249 85 q 318 110 282 85 q 379 178 354 136 l 379 340 q 217 299 272 335 q 161 190 161 264 q 249 85 161 85 m 275 775 q 315 826 304 807 q 325 867 325 844 q 313 901 325 889 q 279 913 300 913 q 206 889 249 913 l 182 956 q 286 979 226 979 q 370 950 338 979 q 403 871 403 921 q 384 799 403 829 q 322 729 365 768 l 275 775 z "},"ȃ":{"ha":603,"x_min":33,"x_max":578,"o":"m 211 -14 q 83 42 133 -14 q 33 183 33 97 q 140 367 33 311 q 379 426 247 424 q 353 550 379 515 q 264 585 326 585 q 100 522 183 585 l 85 624 q 288 694 172 694 q 450 631 397 694 q 503 428 503 568 l 503 229 q 514 117 503 150 q 563 85 525 85 l 578 85 l 563 -14 l 536 -14 q 442 10 472 -14 q 392 86 411 33 q 313 13 360 40 q 211 -14 265 -14 m 249 85 q 318 110 282 85 q 379 178 354 136 l 379 340 q 217 299 272 335 q 161 190 161 264 q 249 85 161 85 m 301 961 q 442 915 393 961 q 490 800 490 868 l 382 800 q 362 852 382 833 q 301 871 342 871 q 241 852 261 871 q 221 800 221 833 l 113 800 q 161 915 113 868 q 301 961 210 961 z "},"ā":{"ha":603,"x_min":33,"x_max":578,"o":"m 211 -14 q 83 42 133 -14 q 33 183 33 97 q 140 367 33 311 q 379 426 247 424 q 353 550 379 515 q 264 585 326 585 q 100 522 183 585 l 85 624 q 288 694 172 694 q 450 631 397 694 q 503 428 503 568 l 503 229 q 514 117 503 150 q 563 85 525 85 l 578 85 l 563 -14 l 536 -14 q 442 10 472 -14 q 392 86 411 33 q 313 13 360 40 q 211 -14 265 -14 m 249 85 q 318 110 282 85 q 379 178 354 136 l 379 340 q 217 299 272 335 q 161 190 161 264 q 249 85 161 85 m 107 917 l 496 917 l 496 822 l 107 822 l 107 917 z "},"ą":{"ha":603,"x_min":33,"x_max":607,"o":"m 607 -271 q 515 -289 568 -289 q 418 -258 457 -289 q 379 -174 379 -228 q 405 -87 379 -128 q 474 -6 431 -47 q 424 26 442 4 q 392 86 406 49 q 313 13 360 40 q 211 -14 265 -14 q 83 42 133 -14 q 33 183 33 97 q 140 367 33 311 q 379 426 247 424 q 353 550 379 515 q 264 585 326 585 q 100 522 183 585 l 85 624 q 288 694 172 694 q 450 631 397 694 q 503 428 503 568 l 503 229 q 514 117 503 150 q 563 85 525 85 l 578 85 l 563 -14 l 540 -14 q 480 -89 500 -56 q 460 -157 460 -122 q 478 -202 460 -186 q 526 -218 496 -218 q 586 -206 557 -218 l 607 -271 m 379 340 q 217 299 272 335 q 161 190 161 264 q 249 85 161 85 q 318 110 282 85 q 379 178 354 136 l 379 340 z "},"å":{"ha":603,"x_min":33,"x_max":578,"o":"m 211 -14 q 83 42 133 -14 q 33 183 33 97 q 140 367 33 311 q 379 426 247 424 q 353 550 379 515 q 264 585 326 585 q 100 522 183 585 l 85 624 q 288 694 172 694 q 450 631 397 694 q 503 428 503 568 l 503 229 q 514 117 503 150 q 563 85 525 85 l 578 85 l 563 -14 l 536 -14 q 442 10 472 -14 q 392 86 411 33 q 313 13 360 40 q 211 -14 265 -14 m 249 85 q 318 110 282 85 q 379 178 354 136 l 379 340 q 217 299 272 335 q 161 190 161 264 q 249 85 161 85 m 301 789 q 205 829 239 789 q 171 928 171 869 q 205 1026 171 985 q 301 1067 239 1067 q 399 1026 365 1067 q 432 928 432 986 q 399 829 432 869 q 301 789 365 789 m 301 849 q 349 870 331 849 q 367 928 367 892 q 349 985 367 963 q 301 1007 331 1007 q 254 985 272 1007 q 236 928 236 963 q 254 870 236 892 q 301 849 272 849 z "},"ǻ":{"ha":603,"x_min":33,"x_max":578,"o":"m 211 -14 q 83 42 133 -14 q 33 183 33 97 q 140 367 33 311 q 379 426 247 424 q 353 550 379 515 q 264 585 326 585 q 100 522 183 585 l 85 624 q 288 694 172 694 q 450 631 397 694 q 503 428 503 568 l 503 229 q 514 117 503 150 q 563 85 525 85 l 578 85 l 563 -14 l 536 -14 q 442 10 472 -14 q 392 86 411 33 q 313 13 360 40 q 211 -14 265 -14 m 249 85 q 318 110 282 85 q 379 178 354 136 l 379 340 q 217 299 272 335 q 161 190 161 264 q 249 85 161 85 m 301 789 q 205 829 239 789 q 171 928 171 869 q 205 1026 171 985 q 301 1067 239 1067 q 399 1026 365 1067 q 432 928 432 986 q 399 829 432 869 q 301 789 365 789 m 301 849 q 349 870 331 849 q 367 928 367 892 q 349 985 367 963 q 301 1007 331 1007 q 254 985 272 1007 q 236 928 236 963 q 254 870 236 892 q 301 849 272 849 m 200 1201 l 404 1314 l 404 1185 l 200 1121 l 200 1201 z "},"ã":{"ha":603,"x_min":33,"x_max":578,"o":"m 211 -14 q 83 42 133 -14 q 33 183 33 97 q 140 367 33 311 q 379 426 247 424 q 353 550 379 515 q 264 585 326 585 q 100 522 183 585 l 85 624 q 288 694 172 694 q 450 631 397 694 q 503 428 503 568 l 503 229 q 514 117 503 150 q 563 85 525 85 l 578 85 l 563 -14 l 536 -14 q 442 10 472 -14 q 392 86 411 33 q 313 13 360 40 q 211 -14 265 -14 m 249 85 q 318 110 282 85 q 379 178 354 136 l 379 340 q 217 299 272 335 q 161 190 161 264 q 249 85 161 85 m 399 806 q 350 815 371 806 q 300 843 329 825 q 236 871 263 871 q 208 856 218 871 q 199 817 199 842 l 99 817 q 204 971 106 971 q 253 961 232 971 q 303 933 274 951 q 367 906 340 906 q 394 920 385 906 q 404 960 404 935 l 504 960 q 399 806 497 806 z "},"æ":{"ha":954,"x_min":33,"x_max":925,"o":"m 925 407 q 919 342 925 383 l 507 342 q 566 159 510 222 q 713 96 622 96 q 803 106 756 96 q 888 136 851 117 l 899 28 q 706 -14 822 -14 q 558 19 622 -14 q 451 110 493 51 q 352 17 403 49 q 232 -14 301 -14 q 89 41 144 -14 q 33 183 33 96 q 131 366 33 310 q 383 426 229 422 l 383 435 q 356 551 383 518 q 264 585 328 585 q 100 522 183 585 l 85 624 q 288 694 172 694 q 400 669 356 694 q 469 589 444 643 q 689 694 553 694 q 859 618 793 694 q 925 407 925 542 m 801 426 q 768 540 801 496 q 671 583 735 583 q 566 544 607 583 q 513 426 525 504 l 801 426 m 258 85 q 342 113 303 85 q 410 189 381 140 q 383 342 383 261 q 221 297 281 338 q 161 185 161 257 q 188 113 161 140 q 258 85 215 85 z "},"ǽ":{"ha":954,"x_min":33,"x_max":925,"o":"m 925 407 q 919 342 925 383 l 507 342 q 566 159 510 222 q 713 96 622 96 q 803 106 756 96 q 888 136 851 117 l 899 28 q 706 -14 822 -14 q 558 19 622 -14 q 451 110 493 51 q 352 17 403 49 q 232 -14 301 -14 q 89 41 144 -14 q 33 183 33 96 q 131 366 33 310 q 383 426 229 422 l 383 435 q 356 551 383 518 q 264 585 328 585 q 100 522 183 585 l 85 624 q 288 694 172 694 q 400 669 356 694 q 469 589 444 643 q 689 694 553 694 q 859 618 793 694 q 925 407 925 542 m 801 426 q 768 540 801 496 q 671 583 735 583 q 566 544 607 583 q 513 426 525 504 l 801 426 m 258 85 q 342 113 303 85 q 410 189 381 140 q 383 342 383 261 q 221 297 281 338 q 161 185 161 257 q 188 113 161 140 q 258 85 215 85 m 393 896 l 597 1026 l 597 890 l 393 811 l 393 896 z "},"b":{"ha":683,"x_min":69,"x_max":635,"o":"m 368 694 q 510 646 450 694 q 603 516 571 597 q 635 340 635 435 q 601 160 635 242 q 508 33 568 79 q 368 -14 447 -14 q 265 7 313 -14 q 185 67 217 28 l 179 0 l 69 0 l 69 1042 l 190 1042 l 190 615 q 368 694 263 694 m 347 93 q 466 165 421 93 q 511 340 511 236 q 467 517 511 447 q 347 586 422 586 q 226 523 272 586 q 179 340 179 460 q 226 155 179 217 q 347 93 272 93 z "},"c":{"ha":535,"x_min":33,"x_max":504,"o":"m 350 -14 q 114 84 194 -14 q 33 336 33 182 q 114 595 33 496 q 353 694 194 694 q 504 660 438 694 l 485 553 q 354 586 422 586 q 209 522 261 586 q 157 342 157 457 q 210 160 157 226 q 358 93 264 93 q 486 126 431 93 l 503 18 q 433 -5 475 4 q 350 -14 392 -14 z "},"ć":{"ha":535,"x_min":33,"x_max":504,"o":"m 350 -14 q 114 84 194 -14 q 33 336 33 182 q 114 595 33 496 q 353 694 194 694 q 504 660 438 694 l 485 553 q 354 586 422 586 q 209 522 261 586 q 157 342 157 457 q 210 160 157 226 q 358 93 264 93 q 486 126 431 93 l 503 18 q 433 -5 475 4 q 350 -14 392 -14 m 222 896 l 426 1026 l 426 890 l 222 811 l 222 896 z "},"č":{"ha":535,"x_min":33,"x_max":504,"o":"m 350 -14 q 114 84 194 -14 q 33 336 33 182 q 114 595 33 496 q 353 694 194 694 q 504 660 438 694 l 485 553 q 354 586 422 586 q 209 522 261 586 q 157 342 157 457 q 210 160 157 226 q 358 93 264 93 q 486 126 431 93 l 503 18 q 433 -5 475 4 q 350 -14 392 -14 m 175 904 l 175 988 l 324 893 l 472 988 l 472 904 l 324 775 l 175 904 z "},"ç":{"ha":535,"x_min":33,"x_max":504,"o":"m 503 18 q 438 -3 476 6 q 361 -14 400 -12 l 342 -75 q 424 -106 394 -75 q 454 -187 454 -136 q 415 -281 454 -247 q 314 -314 375 -314 q 222 -296 261 -314 l 243 -231 q 314 -246 278 -246 q 362 -231 344 -246 q 379 -187 379 -217 q 364 -147 379 -161 q 319 -132 349 -132 q 268 -140 297 -132 l 299 -11 q 101 101 168 6 q 33 336 33 196 q 114 595 33 496 q 353 694 194 694 q 504 660 438 694 l 485 553 q 354 586 422 586 q 209 522 261 586 q 157 342 157 457 q 210 160 157 226 q 358 93 264 93 q 486 126 431 93 l 503 18 z "},"ḉ":{"ha":535,"x_min":33,"x_max":504,"o":"m 426 890 l 222 811 l 222 896 l 426 1026 l 426 890 m 503 18 q 438 -3 476 6 q 361 -14 400 -12 l 342 -75 q 424 -106 394 -75 q 454 -187 454 -136 q 415 -281 454 -247 q 314 -314 375 -314 q 222 -296 261 -314 l 243 -231 q 314 -246 278 -246 q 362 -231 344 -246 q 379 -187 379 -217 q 364 -147 379 -161 q 319 -132 349 -132 q 268 -140 297 -132 l 299 -11 q 101 101 168 6 q 33 336 33 196 q 114 595 33 496 q 353 694 194 694 q 504 660 438 694 l 485 553 q 354 586 422 586 q 209 522 261 586 q 157 342 157 457 q 210 160 157 226 q 358 93 264 93 q 486 126 431 93 l 503 18 z "},"ĉ":{"ha":535,"x_min":33,"x_max":504,"o":"m 350 -14 q 114 84 194 -14 q 33 336 33 182 q 114 595 33 496 q 353 694 194 694 q 504 660 438 694 l 485 553 q 354 586 422 586 q 209 522 261 586 q 157 342 157 457 q 210 160 157 226 q 358 93 264 93 q 486 126 431 93 l 503 18 q 433 -5 475 4 q 350 -14 392 -14 m 175 867 l 324 993 l 472 867 l 472 783 l 324 876 l 175 783 l 175 867 z "},"ċ":{"ha":535,"x_min":33,"x_max":504,"o":"m 350 -14 q 114 84 194 -14 q 33 336 33 182 q 114 595 33 496 q 353 694 194 694 q 504 660 438 694 l 485 553 q 354 586 422 586 q 209 522 261 586 q 157 342 157 457 q 210 160 157 226 q 358 93 264 93 q 486 126 431 93 l 503 18 q 433 -5 475 4 q 350 -14 392 -14 m 263 944 l 385 944 l 385 821 l 263 821 l 263 944 z "},"d":{"ha":683,"x_min":40,"x_max":607,"o":"m 607 1042 l 607 0 l 500 0 l 490 63 q 414 6 458 25 q 317 -14 369 -14 q 175 33 238 -14 q 76 160 113 79 q 40 339 40 240 q 74 516 40 435 q 172 646 108 597 q 317 694 235 694 q 486 624 418 694 l 486 1042 l 607 1042 m 329 93 q 451 153 406 93 q 497 339 497 214 q 451 523 497 460 q 329 586 406 586 q 244 554 282 586 q 185 466 207 522 q 164 339 164 410 q 185 216 164 272 q 245 126 207 160 q 329 93 283 93 z "},"ð":{"ha":611,"x_min":24,"x_max":568,"o":"m 403 835 q 526 628 485 749 q 568 375 568 508 q 493 78 568 174 q 289 -17 418 -17 q 149 22 210 -17 q 56 130 89 61 q 24 285 24 199 q 54 442 24 372 q 143 551 85 511 q 282 592 201 592 q 429 529 376 592 q 393 664 422 599 q 315 782 364 729 l 174 697 l 128 772 l 246 843 q 128 899 194 878 l 146 974 q 333 894 250 954 l 464 972 l 508 897 l 403 835 m 288 97 q 395 151 354 97 q 436 289 436 206 q 396 424 436 372 q 289 476 356 476 q 186 422 225 476 q 147 292 147 367 q 185 153 147 210 q 288 97 224 97 z "},"ď":{"ha":761,"x_min":40,"x_max":790,"o":"m 607 1042 l 607 0 l 500 0 l 490 63 q 414 6 458 25 q 317 -14 369 -14 q 175 33 238 -14 q 76 160 113 79 q 40 339 40 240 q 74 516 40 435 q 172 646 108 597 q 317 694 235 694 q 486 624 418 694 l 486 1042 l 607 1042 m 329 93 q 451 153 406 93 q 497 339 497 214 q 451 523 497 460 q 329 586 406 586 q 244 554 282 586 q 185 466 207 522 q 164 339 164 410 q 185 216 164 272 q 245 126 207 160 q 329 93 283 93 m 663 1042 l 790 1042 l 751 810 l 663 810 l 663 1042 z "},"đ":{"ha":699,"x_min":40,"x_max":696,"o":"m 696 815 l 607 815 l 607 0 l 500 0 l 490 63 q 414 6 458 25 q 317 -14 369 -14 q 175 33 238 -14 q 76 160 113 79 q 40 339 40 240 q 74 516 40 435 q 172 646 108 597 q 317 694 235 694 q 486 624 418 694 l 486 815 l 292 815 l 292 913 l 486 913 l 486 1042 l 607 1042 l 607 913 l 696 913 l 696 815 m 329 93 q 451 153 406 93 q 497 339 497 214 q 451 523 497 460 q 329 586 406 586 q 244 554 282 586 q 185 466 207 522 q 164 339 164 410 q 185 216 164 272 q 245 126 207 160 q 329 93 283 93 z "},"ḍ":{"ha":683,"x_min":40,"x_max":607,"o":"m 607 1042 l 607 0 l 500 0 l 490 63 q 414 6 458 25 q 317 -14 369 -14 q 175 33 238 -14 q 76 160 113 79 q 40 339 40 240 q 74 516 40 435 q 172 646 108 597 q 317 694 235 694 q 486 624 418 694 l 486 1042 l 607 1042 m 329 93 q 451 153 406 93 q 497 339 497 214 q 451 523 497 460 q 329 586 406 586 q 244 554 282 586 q 185 466 207 522 q 164 339 164 410 q 185 216 164 272 q 245 126 207 160 q 329 93 283 93 m 281 -112 l 403 -112 l 403 -236 l 281 -236 l 281 -112 z "},"ḏ":{"ha":683,"x_min":40,"x_max":607,"o":"m 607 1042 l 607 0 l 500 0 l 490 63 q 414 6 458 25 q 317 -14 369 -14 q 175 33 238 -14 q 76 160 113 79 q 40 339 40 240 q 74 516 40 435 q 172 646 108 597 q 317 694 235 694 q 486 624 418 694 l 486 1042 l 607 1042 m 329 93 q 451 153 406 93 q 497 339 497 214 q 451 523 497 460 q 329 586 406 586 q 244 554 282 586 q 185 466 207 522 q 164 339 164 410 q 185 216 164 272 q 245 126 207 160 q 329 93 283 93 m 147 -129 l 536 -129 l 536 -224 l 147 -224 l 147 -129 z "},"ǆ":{"ha":1247,"x_min":40,"x_max":1217,"o":"m 607 1042 l 607 0 l 500 0 l 490 63 q 414 6 458 25 q 317 -14 369 -14 q 175 33 238 -14 q 76 160 113 79 q 40 339 40 240 q 74 516 40 435 q 172 646 108 597 q 317 694 235 694 q 486 624 418 694 l 486 1042 l 607 1042 m 329 93 q 451 153 406 93 q 497 339 497 214 q 451 523 497 460 q 329 586 406 586 q 244 554 282 586 q 185 466 207 522 q 164 339 164 410 q 185 216 164 272 q 245 126 207 160 q 329 93 283 93 m 904 108 l 1210 108 l 1210 0 l 708 0 l 1021 571 l 724 571 l 724 681 l 1217 681 l 904 108 m 822 904 l 822 988 l 971 893 l 1119 988 l 1119 904 l 971 775 l 822 904 z "},"e":{"ha":610,"x_min":38,"x_max":581,"o":"m 581 407 q 575 342 581 383 l 161 342 q 221 159 164 222 q 368 96 278 96 q 459 106 411 96 q 543 136 507 117 l 554 28 q 360 -14 478 -14 q 184 34 257 -14 q 74 164 111 82 q 38 346 38 246 q 72 522 38 442 q 170 648 106 601 q 324 694 235 694 q 509 618 438 694 q 581 407 581 542 m 457 426 q 423 540 457 496 q 325 583 389 583 q 222 544 263 583 q 167 426 181 504 l 457 426 z "},"é":{"ha":610,"x_min":38,"x_max":581,"o":"m 581 407 q 575 342 581 383 l 161 342 q 221 159 164 222 q 368 96 278 96 q 459 106 411 96 q 543 136 507 117 l 554 28 q 360 -14 478 -14 q 184 34 257 -14 q 74 164 111 82 q 38 346 38 246 q 72 522 38 442 q 170 648 106 601 q 324 694 235 694 q 509 618 438 694 q 581 407 581 542 m 457 426 q 423 540 457 496 q 325 583 389 583 q 222 544 263 583 q 167 426 181 504 l 457 426 m 224 896 l 428 1026 l 428 890 l 224 811 l 224 896 z "},"ĕ":{"ha":610,"x_min":38,"x_max":581,"o":"m 581 407 q 575 342 581 383 l 161 342 q 221 159 164 222 q 368 96 278 96 q 459 106 411 96 q 543 136 507 117 l 554 28 q 360 -14 478 -14 q 184 34 257 -14 q 74 164 111 82 q 38 346 38 246 q 72 522 38 442 q 170 648 106 601 q 324 694 235 694 q 509 618 438 694 q 581 407 581 542 m 457 426 q 423 540 457 496 q 325 583 389 583 q 222 544 263 583 q 167 426 181 504 l 457 426 m 325 800 q 185 849 233 800 q 136 968 136 897 l 244 968 q 265 911 244 932 q 325 890 285 890 q 385 911 365 890 q 406 968 406 932 l 514 968 q 465 849 514 897 q 325 800 417 800 z "},"ě":{"ha":610,"x_min":38,"x_max":581,"o":"m 581 407 q 575 342 581 383 l 161 342 q 221 159 164 222 q 368 96 278 96 q 459 106 411 96 q 543 136 507 117 l 554 28 q 360 -14 478 -14 q 184 34 257 -14 q 74 164 111 82 q 38 346 38 246 q 72 522 38 442 q 170 648 106 601 q 324 694 235 694 q 509 618 438 694 q 581 407 581 542 m 457 426 q 423 540 457 496 q 325 583 389 583 q 222 544 263 583 q 167 426 181 504 l 457 426 m 176 904 l 176 988 l 325 893 l 474 988 l 474 904 l 325 775 l 176 904 z "},"ḝ":{"ha":610,"x_min":38,"x_max":581,"o":"m 325 800 q 185 849 233 800 q 136 968 136 897 l 244 968 q 265 911 244 932 q 325 890 285 890 q 385 911 365 890 q 406 968 406 932 l 514 968 q 465 849 514 897 q 325 800 417 800 m 581 407 q 575 342 581 383 l 161 342 q 221 159 164 222 q 368 96 278 96 q 459 106 411 96 q 543 136 507 117 l 554 28 q 388 -14 490 -7 l 368 -75 q 451 -106 421 -75 q 481 -187 481 -136 q 441 -281 481 -247 q 340 -314 401 -314 q 249 -296 288 -314 l 269 -231 q 340 -246 304 -246 q 388 -231 371 -246 q 406 -187 406 -217 q 390 -147 406 -161 q 346 -132 375 -132 q 294 -140 324 -132 l 325 -12 q 168 45 233 -4 q 70 173 103 94 q 38 346 38 251 q 72 522 38 442 q 170 648 106 601 q 324 694 235 694 q 509 618 438 694 q 581 407 581 542 m 457 426 q 423 540 457 496 q 325 583 389 583 q 222 544 263 583 q 167 426 181 504 l 457 426 z "},"ê":{"ha":610,"x_min":38,"x_max":581,"o":"m 581 407 q 575 342 581 383 l 161 342 q 221 159 164 222 q 368 96 278 96 q 459 106 411 96 q 543 136 507 117 l 554 28 q 360 -14 478 -14 q 184 34 257 -14 q 74 164 111 82 q 38 346 38 246 q 72 522 38 442 q 170 648 106 601 q 324 694 235 694 q 509 618 438 694 q 581 407 581 542 m 457 426 q 423 540 457 496 q 325 583 389 583 q 222 544 263 583 q 167 426 181 504 l 457 426 m 176 867 l 325 993 l 474 867 l 474 783 l 325 876 l 176 783 l 176 867 z "},"ế":{"ha":610,"x_min":38,"x_max":632,"o":"m 581 407 q 575 342 581 383 l 161 342 q 221 159 164 222 q 368 96 278 96 q 459 106 411 96 q 543 136 507 117 l 554 28 q 360 -14 478 -14 q 184 34 257 -14 q 74 164 111 82 q 38 346 38 246 q 72 522 38 442 q 170 648 106 601 q 324 694 235 694 q 509 618 438 694 q 581 407 581 542 m 457 426 q 423 540 457 496 q 325 583 389 583 q 222 544 263 583 q 167 426 181 504 l 457 426 m 501 1108 l 632 1108 l 510 946 l 424 946 l 501 1108 m 488 839 l 488 754 l 325 840 l 163 754 l 163 839 l 325 954 l 488 839 z "},"ệ":{"ha":610,"x_min":38,"x_max":581,"o":"m 581 407 q 575 342 581 383 l 161 342 q 221 159 164 222 q 368 96 278 96 q 459 106 411 96 q 543 136 507 117 l 554 28 q 360 -14 478 -14 q 184 34 257 -14 q 74 164 111 82 q 38 346 38 246 q 72 522 38 442 q 170 648 106 601 q 324 694 235 694 q 509 618 438 694 q 581 407 581 542 m 457 426 q 423 540 457 496 q 325 583 389 583 q 222 544 263 583 q 167 426 181 504 l 457 426 m 176 867 l 325 993 l 474 867 l 474 783 l 325 876 l 176 783 l 176 867 m 286 -112 l 408 -112 l 408 -236 l 286 -236 l 286 -112 z "},"ề":{"ha":610,"x_min":38,"x_max":581,"o":"m 581 407 q 575 342 581 383 l 161 342 q 221 159 164 222 q 368 96 278 96 q 459 106 411 96 q 543 136 507 117 l 554 28 q 360 -14 478 -14 q 184 34 257 -14 q 74 164 111 82 q 38 346 38 246 q 72 522 38 442 q 170 648 106 601 q 324 694 235 694 q 509 618 438 694 q 581 407 581 542 m 457 426 q 423 540 457 496 q 325 583 389 583 q 222 544 263 583 q 167 426 181 504 l 457 426 m 449 946 l 342 1108 l 467 1108 l 531 946 l 449 946 m 488 839 l 488 754 l 325 840 l 163 754 l 163 839 l 325 954 l 488 839 z "},"ể":{"ha":610,"x_min":38,"x_max":581,"o":"m 581 407 q 575 342 581 383 l 161 342 q 221 159 164 222 q 368 96 278 96 q 459 106 411 96 q 543 136 507 117 l 554 28 q 360 -14 478 -14 q 184 34 257 -14 q 74 164 111 82 q 38 346 38 246 q 72 522 38 442 q 170 648 106 601 q 324 694 235 694 q 509 618 438 694 q 581 407 581 542 m 457 426 q 423 540 457 496 q 325 583 389 583 q 222 544 263 583 q 167 426 181 504 l 457 426 m 488 839 l 488 754 l 325 840 l 163 754 l 163 839 l 325 954 l 488 839 m 446 963 q 472 986 464 974 q 481 1017 481 999 q 468 1050 481 1039 q 432 1061 456 1061 q 364 1042 403 1061 l 340 1110 q 442 1131 389 1131 q 527 1102 493 1131 q 561 1026 561 1074 q 538 957 561 985 q 467 910 514 929 l 446 963 z "},"ễ":{"ha":610,"x_min":38,"x_max":581,"o":"m 581 407 q 575 342 581 383 l 161 342 q 221 159 164 222 q 368 96 278 96 q 459 106 411 96 q 543 136 507 117 l 554 28 q 360 -14 478 -14 q 184 34 257 -14 q 74 164 111 82 q 38 346 38 246 q 72 522 38 442 q 170 648 106 601 q 324 694 235 694 q 509 618 438 694 q 581 407 581 542 m 457 426 q 423 540 457 496 q 325 583 389 583 q 222 544 263 583 q 167 426 181 504 l 457 426 m 488 839 l 488 754 l 325 840 l 163 754 l 163 839 l 325 954 l 488 839 m 424 1011 q 379 1019 401 1011 q 328 1040 357 1026 q 299 1052 324 1042 q 257 1063 275 1063 q 226 1051 238 1063 q 215 1018 215 1039 l 125 1018 q 151 1121 125 1085 q 226 1157 178 1157 q 271 1149 249 1157 q 322 1128 293 1142 q 351 1116 326 1126 q 393 1106 375 1106 q 424 1117 413 1106 q 435 1150 435 1129 l 525 1150 q 499 1047 525 1083 q 424 1011 472 1011 z "},"ȅ":{"ha":610,"x_min":38,"x_max":581,"o":"m 581 407 q 575 342 581 383 l 161 342 q 221 159 164 222 q 368 96 278 96 q 459 106 411 96 q 543 136 507 117 l 554 28 q 360 -14 478 -14 q 184 34 257 -14 q 74 164 111 82 q 38 346 38 246 q 72 522 38 442 q 170 648 106 601 q 324 694 235 694 q 509 618 438 694 q 581 407 581 542 m 457 426 q 423 540 457 496 q 325 583 389 583 q 222 544 263 583 q 167 426 181 504 l 457 426 m 192 803 l 65 1033 l 201 1033 l 283 803 l 192 803 m 386 803 l 267 1033 l 393 1033 l 469 803 l 386 803 z "},"ë":{"ha":610,"x_min":38,"x_max":581,"o":"m 581 407 q 575 342 581 383 l 161 342 q 221 159 164 222 q 368 96 278 96 q 459 106 411 96 q 543 136 507 117 l 554 28 q 360 -14 478 -14 q 184 34 257 -14 q 74 164 111 82 q 38 346 38 246 q 72 522 38 442 q 170 648 106 601 q 324 694 235 694 q 509 618 438 694 q 581 407 581 542 m 457 426 q 423 540 457 496 q 325 583 389 583 q 222 544 263 583 q 167 426 181 504 l 457 426 m 160 932 l 274 932 l 274 821 l 160 821 l 160 932 m 376 932 l 490 932 l 490 821 l 376 821 l 376 932 z "},"ė":{"ha":610,"x_min":38,"x_max":581,"o":"m 581 407 q 575 342 581 383 l 161 342 q 221 159 164 222 q 368 96 278 96 q 459 106 411 96 q 543 136 507 117 l 554 28 q 360 -14 478 -14 q 184 34 257 -14 q 74 164 111 82 q 38 346 38 246 q 72 522 38 442 q 170 648 106 601 q 324 694 235 694 q 509 618 438 694 q 581 407 581 542 m 457 426 q 423 540 457 496 q 325 583 389 583 q 222 544 263 583 q 167 426 181 504 l 457 426 m 264 944 l 386 944 l 386 821 l 264 821 l 264 944 z "},"ẹ":{"ha":610,"x_min":38,"x_max":581,"o":"m 581 407 q 575 342 581 383 l 161 342 q 221 159 164 222 q 368 96 278 96 q 459 106 411 96 q 543 136 507 117 l 554 28 q 360 -14 478 -14 q 184 34 257 -14 q 74 164 111 82 q 38 346 38 246 q 72 522 38 442 q 170 648 106 601 q 324 694 235 694 q 509 618 438 694 q 581 407 581 542 m 457 426 q 423 540 457 496 q 325 583 389 583 q 222 544 263 583 q 167 426 181 504 l 457 426 m 286 -112 l 408 -112 l 408 -236 l 286 -236 l 286 -112 z "},"è":{"ha":610,"x_min":38,"x_max":581,"o":"m 581 407 q 575 342 581 383 l 161 342 q 221 159 164 222 q 368 96 278 96 q 459 106 411 96 q 543 136 507 117 l 554 28 q 360 -14 478 -14 q 184 34 257 -14 q 74 164 111 82 q 38 346 38 246 q 72 522 38 442 q 170 648 106 601 q 324 694 235 694 q 509 618 438 694 q 581 407 581 542 m 457 426 q 423 540 457 496 q 325 583 389 583 q 222 544 263 583 q 167 426 181 504 l 457 426 m 222 890 l 222 1028 l 426 899 l 426 811 l 222 890 z "},"ẻ":{"ha":610,"x_min":38,"x_max":581,"o":"m 581 407 q 575 342 581 383 l 161 342 q 221 159 164 222 q 368 96 278 96 q 459 106 411 96 q 543 136 507 117 l 554 28 q 360 -14 478 -14 q 184 34 257 -14 q 74 164 111 82 q 38 346 38 246 q 72 522 38 442 q 170 648 106 601 q 324 694 235 694 q 509 618 438 694 q 581 407 581 542 m 457 426 q 423 540 457 496 q 325 583 389 583 q 222 544 263 583 q 167 426 181 504 l 457 426 m 299 775 q 338 826 328 807 q 349 867 349 844 q 336 901 349 889 q 303 913 324 913 q 229 889 272 913 l 206 956 q 310 979 250 979 q 394 950 361 979 q 426 871 426 921 q 408 799 426 829 q 346 729 389 768 l 299 775 z "},"ȇ":{"ha":610,"x_min":38,"x_max":581,"o":"m 581 407 q 575 342 581 383 l 161 342 q 221 159 164 222 q 368 96 278 96 q 459 106 411 96 q 543 136 507 117 l 554 28 q 360 -14 478 -14 q 184 34 257 -14 q 74 164 111 82 q 38 346 38 246 q 72 522 38 442 q 170 648 106 601 q 324 694 235 694 q 509 618 438 694 q 581 407 581 542 m 457 426 q 423 540 457 496 q 325 583 389 583 q 222 544 263 583 q 167 426 181 504 l 457 426 m 325 961 q 465 915 417 961 q 514 800 514 868 l 406 800 q 385 852 406 833 q 325 871 365 871 q 265 852 285 871 q 244 800 244 833 l 136 800 q 185 915 136 868 q 325 961 233 961 z "},"ē":{"ha":610,"x_min":38,"x_max":581,"o":"m 581 407 q 575 342 581 383 l 161 342 q 221 159 164 222 q 368 96 278 96 q 459 106 411 96 q 543 136 507 117 l 554 28 q 360 -14 478 -14 q 184 34 257 -14 q 74 164 111 82 q 38 346 38 246 q 72 522 38 442 q 170 648 106 601 q 324 694 235 694 q 509 618 438 694 q 581 407 581 542 m 457 426 q 423 540 457 496 q 325 583 389 583 q 222 544 263 583 q 167 426 181 504 l 457 426 m 131 917 l 519 917 l 519 822 l 131 822 l 131 917 z "},"ḗ":{"ha":610,"x_min":38,"x_max":581,"o":"m 581 407 q 575 342 581 383 l 161 342 q 221 159 164 222 q 368 96 278 96 q 459 106 411 96 q 543 136 507 117 l 554 28 q 360 -14 478 -14 q 184 34 257 -14 q 74 164 111 82 q 38 346 38 246 q 72 522 38 442 q 170 648 106 601 q 324 694 235 694 q 509 618 438 694 q 581 407 581 542 m 457 426 q 423 540 457 496 q 325 583 389 583 q 222 544 263 583 q 167 426 181 504 l 457 426 m 117 901 l 533 901 l 533 810 l 117 810 l 117 901 m 224 1063 l 428 1175 l 428 1046 l 224 982 l 224 1063 z "},"ḕ":{"ha":610,"x_min":38,"x_max":581,"o":"m 581 407 q 575 342 581 383 l 161 342 q 221 159 164 222 q 368 96 278 96 q 459 106 411 96 q 543 136 507 117 l 554 28 q 360 -14 478 -14 q 184 34 257 -14 q 74 164 111 82 q 38 346 38 246 q 72 522 38 442 q 170 648 106 601 q 324 694 235 694 q 509 618 438 694 q 581 407 581 542 m 457 426 q 423 540 457 496 q 325 583 389 583 q 222 544 263 583 q 167 426 181 504 l 457 426 m 117 901 l 533 901 l 533 810 l 117 810 l 117 901 m 222 1043 l 222 1175 l 426 1063 l 426 982 l 222 1043 z "},"ę":{"ha":610,"x_min":38,"x_max":607,"o":"m 607 -243 q 515 -261 568 -261 q 418 -231 457 -261 q 379 -146 379 -200 q 397 -75 379 -108 q 444 -7 414 -42 q 360 -14 400 -14 q 184 34 257 -14 q 74 164 111 82 q 38 346 38 246 q 72 522 38 442 q 170 648 106 601 q 324 694 235 694 q 509 618 438 694 q 581 407 581 542 q 575 342 581 383 l 161 342 q 221 159 164 222 q 368 96 278 96 q 459 106 411 96 q 543 136 507 117 l 554 28 q 483 -56 507 -19 q 460 -129 460 -92 q 478 -174 460 -158 q 526 -190 496 -190 q 586 -178 557 -190 l 607 -243 m 325 583 q 222 544 263 583 q 167 426 181 504 l 457 426 q 423 540 457 496 q 325 583 389 583 z "},"ẽ":{"ha":610,"x_min":38,"x_max":581,"o":"m 581 407 q 575 342 581 383 l 161 342 q 221 159 164 222 q 368 96 278 96 q 459 106 411 96 q 543 136 507 117 l 554 28 q 360 -14 478 -14 q 184 34 257 -14 q 74 164 111 82 q 38 346 38 246 q 72 522 38 442 q 170 648 106 601 q 324 694 235 694 q 509 618 438 694 q 581 407 581 542 m 457 426 q 423 540 457 496 q 325 583 389 583 q 222 544 263 583 q 167 426 181 504 l 457 426 m 422 806 q 374 815 394 806 q 324 843 353 825 q 260 871 286 871 q 232 856 242 871 q 222 817 222 842 l 122 817 q 228 971 129 971 q 276 961 256 971 q 326 933 297 951 q 390 906 364 906 q 418 920 408 906 q 428 960 428 935 l 528 960 q 422 806 521 806 z "},"ə":{"ha":610,"x_min":29,"x_max":572,"o":"m 250 694 q 426 647 353 694 q 535 517 499 599 q 572 335 572 435 q 538 159 572 239 q 440 33 504 79 q 286 -14 375 -14 q 101 63 172 -14 q 29 274 29 139 q 35 339 29 297 l 449 339 q 389 522 446 458 q 242 585 332 585 q 151 574 199 585 q 67 544 103 564 l 56 653 q 250 694 132 694 m 285 97 q 388 137 347 97 q 443 254 429 176 l 153 254 q 187 141 153 185 q 285 97 221 97 z "},"f":{"ha":406,"x_min":19,"x_max":385,"o":"m 114 585 l 19 585 l 33 681 l 114 681 l 114 863 q 160 992 114 943 q 290 1042 206 1042 q 381 1026 342 1042 l 365 922 q 310 932 336 932 q 254 909 274 932 q 235 844 235 886 l 235 681 l 385 681 l 385 585 l 235 585 l 235 0 l 114 0 l 114 585 z "},"g":{"ha":589,"x_min":29,"x_max":597,"o":"m 365 53 q 501 1 451 26 q 574 -60 550 -25 q 597 -149 597 -96 q 515 -295 597 -243 q 301 -347 433 -347 q 105 -298 181 -347 q 29 -162 29 -249 q 58 -67 29 -111 q 138 10 88 -24 q 74 103 74 40 q 149 199 74 167 q 69 294 97 233 q 42 429 42 356 q 71 565 42 504 q 155 660 100 625 q 283 694 210 694 q 433 644 372 694 q 549 694 488 694 q 583 692 567 694 l 571 594 q 543 597 557 597 q 485 585 514 597 q 525 429 525 519 q 496 292 525 354 q 412 194 467 231 q 283 157 357 157 q 214 167 244 157 q 188 135 188 156 q 206 106 188 117 q 269 82 224 96 l 365 53 m 283 597 q 190 551 224 597 q 157 428 157 504 q 190 301 157 349 q 283 253 224 253 q 376 301 343 253 q 410 428 410 349 q 376 550 410 503 q 283 597 343 597 m 310 -249 q 430 -225 385 -249 q 475 -156 475 -201 q 447 -97 475 -118 q 346 -53 419 -75 l 235 -19 q 140 -144 140 -79 q 185 -222 140 -196 q 310 -249 231 -249 z "},"ğ":{"ha":589,"x_min":29,"x_max":597,"o":"m 365 53 q 501 1 451 26 q 574 -60 550 -25 q 597 -149 597 -96 q 515 -295 597 -243 q 301 -347 433 -347 q 105 -298 181 -347 q 29 -162 29 -249 q 58 -67 29 -111 q 138 10 88 -24 q 74 103 74 40 q 149 199 74 167 q 69 294 97 233 q 42 429 42 356 q 71 565 42 504 q 155 660 100 625 q 283 694 210 694 q 433 644 372 694 q 549 694 488 694 q 583 692 567 694 l 571 594 q 543 597 557 597 q 485 585 514 597 q 525 429 525 519 q 496 292 525 354 q 412 194 467 231 q 283 157 357 157 q 214 167 244 157 q 188 135 188 156 q 206 106 188 117 q 269 82 224 96 l 365 53 m 283 597 q 190 551 224 597 q 157 428 157 504 q 190 301 157 349 q 283 253 224 253 q 376 301 343 253 q 410 428 410 349 q 376 550 410 503 q 283 597 343 597 m 310 -249 q 430 -225 385 -249 q 475 -156 475 -201 q 447 -97 475 -118 q 346 -53 419 -75 l 235 -19 q 140 -144 140 -79 q 185 -222 140 -196 q 310 -249 231 -249 m 344 800 q 204 849 253 800 q 156 968 156 897 l 264 968 q 284 911 264 932 q 344 890 304 890 q 405 911 385 890 q 425 968 425 932 l 533 968 q 485 849 533 897 q 344 800 436 800 z "},"ǧ":{"ha":589,"x_min":29,"x_max":597,"o":"m 365 53 q 501 1 451 26 q 574 -60 550 -25 q 597 -149 597 -96 q 515 -295 597 -243 q 301 -347 433 -347 q 105 -298 181 -347 q 29 -162 29 -249 q 58 -67 29 -111 q 138 10 88 -24 q 74 103 74 40 q 149 199 74 167 q 69 294 97 233 q 42 429 42 356 q 71 565 42 504 q 155 660 100 625 q 283 694 210 694 q 433 644 372 694 q 549 694 488 694 q 583 692 567 694 l 571 594 q 543 597 557 597 q 485 585 514 597 q 525 429 525 519 q 496 292 525 354 q 412 194 467 231 q 283 157 357 157 q 214 167 244 157 q 188 135 188 156 q 206 106 188 117 q 269 82 224 96 l 365 53 m 283 597 q 190 551 224 597 q 157 428 157 504 q 190 301 157 349 q 283 253 224 253 q 376 301 343 253 q 410 428 410 349 q 376 550 410 503 q 283 597 343 597 m 310 -249 q 430 -225 385 -249 q 475 -156 475 -201 q 447 -97 475 -118 q 346 -53 419 -75 l 235 -19 q 140 -144 140 -79 q 185 -222 140 -196 q 310 -249 231 -249 m 196 904 l 196 988 l 344 893 l 493 988 l 493 904 l 344 775 l 196 904 z "},"ĝ":{"ha":589,"x_min":29,"x_max":597,"o":"m 365 53 q 501 1 451 26 q 574 -60 550 -25 q 597 -149 597 -96 q 515 -295 597 -243 q 301 -347 433 -347 q 105 -298 181 -347 q 29 -162 29 -249 q 58 -67 29 -111 q 138 10 88 -24 q 74 103 74 40 q 149 199 74 167 q 69 294 97 233 q 42 429 42 356 q 71 565 42 504 q 155 660 100 625 q 283 694 210 694 q 433 644 372 694 q 549 694 488 694 q 583 692 567 694 l 571 594 q 543 597 557 597 q 485 585 514 597 q 525 429 525 519 q 496 292 525 354 q 412 194 467 231 q 283 157 357 157 q 214 167 244 157 q 188 135 188 156 q 206 106 188 117 q 269 82 224 96 l 365 53 m 283 597 q 190 551 224 597 q 157 428 157 504 q 190 301 157 349 q 283 253 224 253 q 376 301 343 253 q 410 428 410 349 q 376 550 410 503 q 283 597 343 597 m 310 -249 q 430 -225 385 -249 q 475 -156 475 -201 q 447 -97 475 -118 q 346 -53 419 -75 l 235 -19 q 140 -144 140 -79 q 185 -222 140 -196 q 310 -249 231 -249 m 196 867 l 344 993 l 493 867 l 493 783 l 344 876 l 196 783 l 196 867 z "},"ģ":{"ha":589,"x_min":29,"x_max":597,"o":"m 365 53 q 501 1 451 26 q 574 -60 550 -25 q 597 -149 597 -96 q 515 -295 597 -243 q 301 -347 433 -347 q 105 -298 181 -347 q 29 -162 29 -249 q 58 -67 29 -111 q 138 10 88 -24 q 74 103 74 40 q 149 199 74 167 q 69 294 97 233 q 42 429 42 356 q 71 565 42 504 q 155 660 100 625 q 283 694 210 694 q 433 644 372 694 q 549 694 488 694 q 583 692 567 694 l 571 594 q 543 597 557 597 q 485 585 514 597 q 525 429 525 519 q 496 292 525 354 q 412 194 467 231 q 283 157 357 157 q 214 167 244 157 q 188 135 188 156 q 206 106 188 117 q 269 82 224 96 l 365 53 m 283 597 q 190 551 224 597 q 157 428 157 504 q 190 301 157 349 q 283 253 224 253 q 376 301 343 253 q 410 428 410 349 q 376 550 410 503 q 283 597 343 597 m 310 -249 q 430 -225 385 -249 q 475 -156 475 -201 q 447 -97 475 -118 q 346 -53 419 -75 l 235 -19 q 140 -144 140 -79 q 185 -222 140 -196 q 310 -249 231 -249 m 414 1068 l 364 919 l 410 919 l 410 800 l 282 800 l 282 906 l 354 1068 l 414 1068 z "},"ġ":{"ha":589,"x_min":29,"x_max":597,"o":"m 365 53 q 501 1 451 26 q 574 -60 550 -25 q 597 -149 597 -96 q 515 -295 597 -243 q 301 -347 433 -347 q 105 -298 181 -347 q 29 -162 29 -249 q 58 -67 29 -111 q 138 10 88 -24 q 74 103 74 40 q 149 199 74 167 q 69 294 97 233 q 42 429 42 356 q 71 565 42 504 q 155 660 100 625 q 283 694 210 694 q 433 644 372 694 q 549 694 488 694 q 583 692 567 694 l 571 594 q 543 597 557 597 q 485 585 514 597 q 525 429 525 519 q 496 292 525 354 q 412 194 467 231 q 283 157 357 157 q 214 167 244 157 q 188 135 188 156 q 206 106 188 117 q 269 82 224 96 l 365 53 m 283 597 q 190 551 224 597 q 157 428 157 504 q 190 301 157 349 q 283 253 224 253 q 376 301 343 253 q 410 428 410 349 q 376 550 410 503 q 283 597 343 597 m 310 -249 q 430 -225 385 -249 q 475 -156 475 -201 q 447 -97 475 -118 q 346 -53 419 -75 l 235 -19 q 140 -144 140 -79 q 185 -222 140 -196 q 310 -249 231 -249 m 283 944 l 406 944 l 406 821 l 283 821 l 283 944 z "},"ḡ":{"ha":589,"x_min":29,"x_max":597,"o":"m 365 53 q 501 1 451 26 q 574 -60 550 -25 q 597 -149 597 -96 q 515 -295 597 -243 q 301 -347 433 -347 q 105 -298 181 -347 q 29 -162 29 -249 q 58 -67 29 -111 q 138 10 88 -24 q 74 103 74 40 q 149 199 74 167 q 69 294 97 233 q 42 429 42 356 q 71 565 42 504 q 155 660 100 625 q 283 694 210 694 q 433 644 372 694 q 549 694 488 694 q 583 692 567 694 l 571 594 q 543 597 557 597 q 485 585 514 597 q 525 429 525 519 q 496 292 525 354 q 412 194 467 231 q 283 157 357 157 q 214 167 244 157 q 188 135 188 156 q 206 106 188 117 q 269 82 224 96 l 365 53 m 283 597 q 190 551 224 597 q 157 428 157 504 q 190 301 157 349 q 283 253 224 253 q 376 301 343 253 q 410 428 410 349 q 376 550 410 503 q 283 597 343 597 m 310 -249 q 430 -225 385 -249 q 475 -156 475 -201 q 447 -97 475 -118 q 346 -53 419 -75 l 235 -19 q 140 -144 140 -79 q 185 -222 140 -196 q 310 -249 231 -249 m 150 917 l 539 917 l 539 822 l 150 822 l 150 917 z "},"h":{"ha":660,"x_min":79,"x_max":596,"o":"m 378 694 q 540 612 483 694 q 596 389 596 529 l 596 0 l 475 0 l 475 374 q 444 533 475 482 q 350 583 414 583 q 265 558 303 583 q 200 486 226 532 l 200 0 l 79 0 l 79 1042 l 200 1042 l 200 608 q 276 672 229 649 q 378 694 324 694 z "},"ħ":{"ha":671,"x_min":3,"x_max":608,"o":"m 390 694 q 552 612 496 694 q 608 389 608 529 l 608 0 l 488 0 l 488 374 q 457 533 488 482 q 363 583 426 583 q 277 558 315 583 q 213 486 239 532 l 213 0 l 92 0 l 92 815 l 3 815 l 3 913 l 92 913 l 92 1042 l 213 1042 l 213 913 l 407 913 l 407 815 l 213 815 l 213 608 q 289 672 242 649 q 390 694 336 694 z "},"ḫ":{"ha":660,"x_min":79,"x_max":596,"o":"m 378 694 q 540 612 483 694 q 596 389 596 529 l 596 0 l 475 0 l 475 374 q 444 533 475 482 q 350 583 414 583 q 265 558 303 583 q 200 486 226 532 l 200 0 l 79 0 l 79 1042 l 200 1042 l 200 608 q 276 672 229 649 q 378 694 324 694 m 338 -301 q 197 -253 246 -301 q 149 -133 149 -204 l 257 -133 q 277 -190 257 -169 q 338 -211 297 -211 q 398 -190 378 -211 q 418 -133 418 -169 l 526 -133 q 478 -253 526 -204 q 338 -301 429 -301 z "},"ĥ":{"ha":660,"x_min":-22,"x_max":596,"o":"m 378 694 q 540 612 483 694 q 596 389 596 529 l 596 0 l 475 0 l 475 374 q 444 533 475 482 q 350 583 414 583 q 265 558 303 583 q 200 486 226 532 l 200 0 l 79 0 l 79 1042 l 200 1042 l 200 608 q 276 672 229 649 q 378 694 324 694 m 303 1203 l 303 1118 l 140 1204 l -22 1118 l -22 1203 l 140 1318 l 303 1203 z "},"ḥ":{"ha":660,"x_min":79,"x_max":596,"o":"m 378 694 q 540 612 483 694 q 596 389 596 529 l 596 0 l 475 0 l 475 374 q 444 533 475 482 q 350 583 414 583 q 265 558 303 583 q 200 486 226 532 l 200 0 l 79 0 l 79 1042 l 200 1042 l 200 608 q 276 672 229 649 q 378 694 324 694 m 276 -112 l 399 -112 l 399 -236 l 276 -236 l 276 -112 z "},"i":{"ha":283,"x_min":81,"x_max":201,"o":"m 81 972 l 201 972 l 201 835 l 81 835 l 81 972 m 81 681 l 201 681 l 201 0 l 81 0 l 81 681 z "},"ı":{"ha":286,"x_min":81,"x_max":206,"o":"m 81 681 l 206 681 l 206 0 l 81 0 l 81 681 z "},"í":{"ha":286,"x_min":42,"x_max":246,"o":"m 81 681 l 206 681 l 206 0 l 81 0 l 81 681 m 42 896 l 246 1026 l 246 890 l 42 811 l 42 896 z "},"ĭ":{"ha":286,"x_min":-46,"x_max":332,"o":"m 81 681 l 206 681 l 206 0 l 81 0 l 81 681 m 143 800 q 3 849 51 800 q -46 968 -46 897 l 63 968 q 83 911 63 932 q 143 890 103 890 q 203 911 183 890 q 224 968 224 932 l 332 968 q 283 849 332 897 q 143 800 235 800 z "},"î":{"ha":286,"x_min":-6,"x_max":292,"o":"m 81 681 l 206 681 l 206 0 l 81 0 l 81 681 m -6 867 l 143 993 l 292 867 l 292 783 l 143 876 l -6 783 l -6 867 z "},"ȉ":{"ha":286,"x_min":-117,"x_max":288,"o":"m 81 681 l 206 681 l 206 0 l 81 0 l 81 681 m 10 803 l -117 1033 l 19 1033 l 101 803 l 10 803 m 204 803 l 85 1033 l 211 1033 l 288 803 l 204 803 z "},"ï":{"ha":286,"x_min":-22,"x_max":308,"o":"m 81 681 l 206 681 l 206 0 l 81 0 l 81 681 m -22 932 l 92 932 l 92 821 l -22 821 l -22 932 m 194 932 l 308 932 l 308 821 l 194 821 l 194 932 z "},"ḯ":{"ha":286,"x_min":-22,"x_max":308,"o":"m 81 681 l 206 681 l 206 0 l 81 0 l 81 681 m -22 915 l 94 915 l 94 811 l -22 811 l -22 915 m 192 915 l 308 915 l 308 811 l 192 811 l 192 915 m 42 1072 l 246 1185 l 246 1056 l 42 992 l 42 1072 z "},"ị":{"ha":283,"x_min":81,"x_max":203,"o":"m 81 972 l 201 972 l 201 835 l 81 835 l 81 972 m 81 681 l 201 681 l 201 0 l 81 0 l 81 681 m 81 -112 l 203 -112 l 203 -236 l 81 -236 l 81 -112 z "},"ì":{"ha":286,"x_min":40,"x_max":244,"o":"m 81 681 l 206 681 l 206 0 l 81 0 l 81 681 m 40 890 l 40 1028 l 244 899 l 244 811 l 40 890 z "},"ỉ":{"ha":286,"x_min":24,"x_max":244,"o":"m 81 681 l 206 681 l 206 0 l 81 0 l 81 681 m 117 775 q 156 826 146 807 q 167 867 167 844 q 154 901 167 889 q 121 913 142 913 q 47 889 90 913 l 24 956 q 128 979 68 979 q 212 950 179 979 q 244 871 244 921 q 226 799 244 829 q 164 729 207 768 l 117 775 z "},"ȋ":{"ha":286,"x_min":-46,"x_max":332,"o":"m 81 681 l 206 681 l 206 0 l 81 0 l 81 681 m 143 961 q 283 915 235 961 q 332 800 332 868 l 224 800 q 203 852 224 833 q 143 871 183 871 q 83 852 103 871 q 63 800 63 833 l -46 800 q 3 915 -46 868 q 143 961 51 961 z "},"ĳ":{"ha":568,"x_min":81,"x_max":486,"o":"m 81 972 l 201 972 l 201 835 l 81 835 l 81 972 m 81 681 l 201 681 l 201 0 l 81 0 l 81 681 m 365 972 l 486 972 l 486 835 l 365 835 l 365 972 m 283 -242 q 338 -226 321 -237 q 360 -187 354 -214 q 365 -101 365 -160 l 365 681 l 486 681 l 486 -149 q 446 -278 486 -239 q 339 -329 406 -318 l 296 -336 l 283 -242 z "},"ī":{"ha":286,"x_min":-51,"x_max":338,"o":"m 81 681 l 206 681 l 206 0 l 81 0 l 81 681 m -51 917 l 338 917 l 338 822 l -51 822 l -51 917 z "},"į":{"ha":283,"x_min":28,"x_max":256,"o":"m 81 972 l 201 972 l 201 835 l 81 835 l 81 972 m 81 681 l 201 681 l 201 0 l 81 0 l 81 681 m 203 0 q 132 -83 156 -47 q 108 -157 108 -119 q 126 -202 108 -186 q 175 -218 144 -218 q 235 -206 206 -218 l 256 -271 q 164 -289 217 -289 q 67 -258 106 -289 q 28 -174 28 -228 q 55 -84 28 -125 q 129 0 82 -43 l 203 0 z "},"ĩ":{"ha":286,"x_min":-60,"x_max":346,"o":"m 81 681 l 206 681 l 206 0 l 81 0 l 81 681 m 240 806 q 192 815 213 806 q 142 843 171 825 q 78 871 104 871 q 50 856 60 871 q 40 817 40 842 l -60 817 q 46 971 -53 971 q 94 961 74 971 q 144 933 115 951 q 208 906 182 906 q 236 920 226 906 q 246 960 246 935 l 346 960 q 240 806 339 806 z "},"j":{"ha":285,"x_min":0,"x_max":203,"o":"m 82 972 l 203 972 l 203 835 l 82 835 l 82 972 m 0 -242 q 54 -226 38 -237 q 76 -187 71 -214 q 82 -101 82 -160 l 82 681 l 203 681 l 203 -149 q 163 -278 203 -239 q 56 -329 122 -318 l 13 -336 l 0 -242 z "},"ȷ":{"ha":285,"x_min":0,"x_max":203,"o":"m 0 -242 q 54 -226 38 -237 q 76 -187 71 -214 q 82 -101 82 -160 l 82 681 l 203 681 l 203 -149 q 163 -278 203 -239 q 56 -329 122 -318 l 13 -336 l 0 -242 z "},"ĵ":{"ha":285,"x_min":-6,"x_max":292,"o":"m 0 -242 q 54 -226 38 -237 q 76 -187 71 -214 q 82 -101 82 -160 l 82 681 l 203 681 l 203 -149 q 163 -278 203 -239 q 56 -329 122 -318 l 13 -336 l 0 -242 m -6 867 l 143 993 l 292 867 l 292 783 l 143 876 l -6 783 l -6 867 z "},"k":{"ha":581,"x_min":85,"x_max":558,"o":"m 85 1042 l 206 1042 l 206 372 l 410 681 l 554 681 l 329 367 l 558 0 l 413 0 l 206 347 l 206 0 l 85 0 l 85 1042 z "},"ķ":{"ha":581,"x_min":85,"x_max":558,"o":"m 85 1042 l 206 1042 l 206 372 l 410 681 l 554 681 l 329 367 l 558 0 l 413 0 l 206 347 l 206 0 l 85 0 l 85 1042 m 242 -394 l 292 -246 l 246 -246 l 246 -126 l 374 -126 l 374 -232 l 301 -394 l 242 -394 z "},"ĸ":{"ha":629,"x_min":69,"x_max":621,"o":"m 69 681 l 190 681 l 190 363 l 461 681 l 614 681 l 321 350 l 621 0 l 468 0 l 190 338 l 190 0 l 69 0 l 69 681 z "},"l":{"ha":317,"x_min":76,"x_max":286,"o":"m 229 -14 q 114 33 151 -14 q 76 150 76 81 l 76 1042 l 197 1042 l 197 222 q 203 133 197 161 q 228 94 210 104 q 286 85 246 85 l 271 -14 l 229 -14 z "},"ĺ":{"ha":317,"x_min":36,"x_max":286,"o":"m 229 -14 q 114 33 151 -14 q 76 150 76 81 l 76 1042 l 197 1042 l 197 222 q 203 133 197 161 q 228 94 210 104 q 286 85 246 85 l 271 -14 l 229 -14 m 36 1211 l 240 1324 l 240 1194 l 36 1131 l 36 1211 z "},"ľ":{"ha":353,"x_min":76,"x_max":381,"o":"m 229 -14 q 114 33 151 -14 q 76 150 76 81 l 76 1042 l 197 1042 l 197 222 q 203 133 197 161 q 228 94 210 104 q 286 85 246 85 l 271 -14 l 229 -14 m 253 1042 l 381 1042 l 342 810 l 253 810 l 253 1042 z "},"ļ":{"ha":317,"x_min":76,"x_max":286,"o":"m 229 -14 q 114 33 151 -14 q 76 150 76 81 l 76 1042 l 197 1042 l 197 222 q 203 133 197 161 q 228 94 210 104 q 286 85 246 85 l 271 -14 l 229 -14 m 131 -394 l 181 -246 l 135 -246 l 135 -126 l 263 -126 l 263 -232 l 190 -394 l 131 -394 z "},"ŀ":{"ha":389,"x_min":76,"x_max":394,"o":"m 229 -14 q 114 33 151 -14 q 76 150 76 81 l 76 1042 l 197 1042 l 197 222 q 203 133 197 161 q 228 94 210 104 q 286 85 246 85 l 271 -14 l 229 -14 m 269 639 l 394 639 l 394 514 l 269 514 l 269 639 z "},"ḷ":{"ha":317,"x_min":76,"x_max":286,"o":"m 229 -14 q 114 33 151 -14 q 76 150 76 81 l 76 1042 l 197 1042 l 197 222 q 203 133 197 161 q 228 94 210 104 q 286 85 246 85 l 271 -14 l 229 -14 m 138 -112 l 260 -112 l 260 -236 l 138 -236 l 138 -112 z "},"ǉ":{"ha":601,"x_min":76,"x_max":519,"o":"m 229 -14 q 114 33 151 -14 q 76 150 76 81 l 76 1042 l 197 1042 l 197 222 q 203 133 197 161 q 228 94 210 104 q 286 85 246 85 l 271 -14 l 229 -14 m 399 972 l 519 972 l 519 835 l 399 835 l 399 972 m 317 -242 q 371 -226 354 -237 q 393 -187 388 -214 q 399 -101 399 -160 l 399 681 l 519 681 l 519 -149 q 479 -278 519 -239 q 372 -329 439 -318 l 329 -336 l 317 -242 z "},"ḻ":{"ha":317,"x_min":4,"x_max":393,"o":"m 229 -14 q 114 33 151 -14 q 76 150 76 81 l 76 1042 l 197 1042 l 197 222 q 203 133 197 161 q 228 94 210 104 q 286 85 246 85 l 271 -14 l 229 -14 m 4 -129 l 393 -129 l 393 -224 l 4 -224 l 4 -129 z "},"ł":{"ha":300,"x_min":-42,"x_max":272,"o":"m 168 604 l 168 222 q 174 133 168 161 q 199 94 181 104 q 257 85 217 85 l 242 -14 l 200 -14 q 85 33 122 -14 q 47 150 47 81 l 47 574 l -42 550 l -42 644 l 47 668 l 47 1042 l 168 1042 l 168 699 l 272 726 l 272 632 l 168 604 z "},"m":{"ha":1035,"x_min":69,"x_max":975,"o":"m 750 694 q 975 389 975 694 l 975 0 l 854 0 l 854 374 q 824 534 854 485 q 724 583 794 583 q 619 533 656 583 q 583 389 583 483 l 583 0 l 463 0 l 463 374 q 433 532 463 481 q 340 583 403 583 q 256 558 294 583 q 190 489 217 533 l 190 0 l 69 0 l 69 681 l 169 681 l 179 594 q 258 667 208 640 q 368 694 308 694 q 476 665 431 694 q 547 579 521 635 q 626 664 574 633 q 750 694 678 694 z "},"ṃ":{"ha":1035,"x_min":69,"x_max":975,"o":"m 750 694 q 975 389 975 694 l 975 0 l 854 0 l 854 374 q 824 534 854 485 q 724 583 794 583 q 619 533 656 583 q 583 389 583 483 l 583 0 l 463 0 l 463 374 q 433 532 463 481 q 340 583 403 583 q 256 558 294 583 q 190 489 217 533 l 190 0 l 69 0 l 69 681 l 169 681 l 179 594 q 258 667 208 640 q 368 694 308 694 q 476 665 431 694 q 547 579 521 635 q 626 664 574 633 q 750 694 678 694 m 461 -112 l 583 -112 l 583 -236 l 461 -236 l 461 -112 z "},"n":{"ha":649,"x_min":69,"x_max":586,"o":"m 368 694 q 530 612 474 694 q 586 389 586 529 l 586 0 l 465 0 l 465 374 q 434 534 465 482 q 340 586 403 586 q 256 560 294 586 q 190 489 217 535 l 190 0 l 69 0 l 69 681 l 172 681 l 181 596 q 259 668 210 642 q 368 694 308 694 z "},"ń":{"ha":649,"x_min":69,"x_max":586,"o":"m 368 694 q 530 612 474 694 q 586 389 586 529 l 586 0 l 465 0 l 465 374 q 434 534 465 482 q 340 586 403 586 q 256 560 294 586 q 190 489 217 535 l 190 0 l 69 0 l 69 681 l 172 681 l 181 596 q 259 668 210 642 q 368 694 308 694 m 228 896 l 432 1026 l 432 890 l 228 811 l 228 896 z "},"ŉ":{"ha":843,"x_min":82,"x_max":782,"o":"m 82 704 l 132 853 l 86 853 l 86 972 l 214 972 l 214 867 l 142 704 l 82 704 m 564 694 q 726 612 669 694 q 782 389 782 529 l 782 0 l 661 0 l 661 374 q 630 534 661 482 q 536 586 599 586 q 451 560 490 586 q 386 489 413 535 l 386 0 l 265 0 l 265 681 l 368 681 l 376 596 q 455 668 406 642 q 564 694 504 694 z "},"ň":{"ha":649,"x_min":69,"x_max":586,"o":"m 368 694 q 530 612 474 694 q 586 389 586 529 l 586 0 l 465 0 l 465 374 q 434 534 465 482 q 340 586 403 586 q 256 560 294 586 q 190 489 217 535 l 190 0 l 69 0 l 69 681 l 172 681 l 181 596 q 259 668 210 642 q 368 694 308 694 m 181 904 l 181 988 l 329 893 l 478 988 l 478 904 l 329 775 l 181 904 z "},"ņ":{"ha":649,"x_min":69,"x_max":586,"o":"m 368 694 q 530 612 474 694 q 586 389 586 529 l 586 0 l 465 0 l 465 374 q 434 534 465 482 q 340 586 403 586 q 256 560 294 586 q 190 489 217 535 l 190 0 l 69 0 l 69 681 l 172 681 l 181 596 q 259 668 210 642 q 368 694 308 694 m 254 -394 l 304 -246 l 258 -246 l 258 -126 l 386 -126 l 386 -232 l 314 -394 l 254 -394 z "},"ṅ":{"ha":649,"x_min":69,"x_max":586,"o":"m 368 694 q 530 612 474 694 q 586 389 586 529 l 586 0 l 465 0 l 465 374 q 434 534 465 482 q 340 586 403 586 q 256 560 294 586 q 190 489 217 535 l 190 0 l 69 0 l 69 681 l 172 681 l 181 596 q 259 668 210 642 q 368 694 308 694 m 268 944 l 390 944 l 390 821 l 268 821 l 268 944 z "},"ṇ":{"ha":649,"x_min":69,"x_max":586,"o":"m 368 694 q 530 612 474 694 q 586 389 586 529 l 586 0 l 465 0 l 465 374 q 434 534 465 482 q 340 586 403 586 q 256 560 294 586 q 190 489 217 535 l 190 0 l 69 0 l 69 681 l 172 681 l 181 596 q 259 668 210 642 q 368 694 308 694 m 261 -112 l 383 -112 l 383 -236 l 261 -236 l 261 -112 z "},"ŋ":{"ha":663,"x_min":69,"x_max":600,"o":"m 600 28 q 531 -178 600 -107 q 346 -249 461 -249 q 281 -244 314 -249 q 233 -233 247 -240 l 251 -129 q 340 -142 296 -142 q 442 -101 404 -142 q 479 17 479 -60 l 479 374 q 447 535 479 485 q 339 586 414 586 q 250 563 290 586 q 190 494 210 539 l 190 0 l 69 0 l 69 681 l 163 681 l 176 607 q 267 675 221 656 q 363 694 313 694 q 600 389 600 694 l 600 28 z "},"ǌ":{"ha":933,"x_min":69,"x_max":851,"o":"m 368 694 q 530 612 474 694 q 586 389 586 529 l 586 0 l 465 0 l 465 374 q 434 534 465 482 q 340 586 403 586 q 256 560 294 586 q 190 489 217 535 l 190 0 l 69 0 l 69 681 l 172 681 l 181 596 q 259 668 210 642 q 368 694 308 694 m 731 972 l 851 972 l 851 835 l 731 835 l 731 972 m 649 -242 q 703 -226 686 -237 q 725 -187 719 -214 q 731 -101 731 -160 l 731 681 l 851 681 l 851 -149 q 811 -278 851 -239 q 704 -329 771 -318 l 661 -336 l 649 -242 z "},"ṉ":{"ha":649,"x_min":69,"x_max":586,"o":"m 368 694 q 530 612 474 694 q 586 389 586 529 l 586 0 l 465 0 l 465 374 q 434 534 465 482 q 340 586 403 586 q 256 560 294 586 q 190 489 217 535 l 190 0 l 69 0 l 69 681 l 172 681 l 181 596 q 259 668 210 642 q 368 694 308 694 m 128 -129 l 517 -129 l 517 -224 l 128 -224 l 128 -129 z "},"ñ":{"ha":649,"x_min":69,"x_max":586,"o":"m 368 694 q 530 612 474 694 q 586 389 586 529 l 586 0 l 465 0 l 465 374 q 434 534 465 482 q 340 586 403 586 q 256 560 294 586 q 190 489 217 535 l 190 0 l 69 0 l 69 681 l 172 681 l 181 596 q 259 668 210 642 q 368 694 308 694 m 426 806 q 378 815 399 806 q 328 843 357 825 q 264 871 290 871 q 236 856 246 871 q 226 817 226 842 l 126 817 q 232 971 133 971 q 281 961 260 971 q 331 933 301 951 q 394 906 368 906 q 422 920 413 906 q 432 960 432 935 l 532 960 q 426 806 525 806 z "},"o":{"ha":656,"x_min":33,"x_max":622,"o":"m 329 -14 q 171 33 238 -14 q 69 160 104 79 q 33 340 33 240 q 69 521 33 440 q 171 648 104 601 q 329 694 238 694 q 486 648 419 694 q 588 521 553 601 q 622 340 622 440 q 588 160 622 240 q 486 33 553 79 q 329 -14 419 -14 m 329 93 q 454 158 410 93 q 499 340 499 224 q 454 522 499 457 q 329 586 410 586 q 201 522 246 586 q 157 340 157 457 q 201 158 157 222 q 329 93 246 93 z "},"ó":{"ha":656,"x_min":33,"x_max":622,"o":"m 329 -14 q 171 33 238 -14 q 69 160 104 79 q 33 340 33 240 q 69 521 33 440 q 171 648 104 601 q 329 694 238 694 q 486 648 419 694 q 588 521 553 601 q 622 340 622 440 q 588 160 622 240 q 486 33 553 79 q 329 -14 419 -14 m 329 93 q 454 158 410 93 q 499 340 499 224 q 454 522 499 457 q 329 586 410 586 q 201 522 246 586 q 157 340 157 457 q 201 158 157 222 q 329 93 246 93 m 228 896 l 432 1026 l 432 890 l 228 811 l 228 896 z "},"ŏ":{"ha":656,"x_min":33,"x_max":622,"o":"m 329 -14 q 171 33 238 -14 q 69 160 104 79 q 33 340 33 240 q 69 521 33 440 q 171 648 104 601 q 329 694 238 694 q 486 648 419 694 q 588 521 553 601 q 622 340 622 440 q 588 160 622 240 q 486 33 553 79 q 329 -14 419 -14 m 329 93 q 454 158 410 93 q 499 340 499 224 q 454 522 499 457 q 329 586 410 586 q 201 522 246 586 q 157 340 157 457 q 201 158 157 222 q 329 93 246 93 m 329 800 q 189 849 238 800 q 140 968 140 897 l 249 968 q 269 911 249 932 q 329 890 289 890 q 390 911 369 890 q 410 968 410 932 l 518 968 q 469 849 518 897 q 329 800 421 800 z "},"ô":{"ha":656,"x_min":33,"x_max":622,"o":"m 329 -14 q 171 33 238 -14 q 69 160 104 79 q 33 340 33 240 q 69 521 33 440 q 171 648 104 601 q 329 694 238 694 q 486 648 419 694 q 588 521 553 601 q 622 340 622 440 q 588 160 622 240 q 486 33 553 79 q 329 -14 419 -14 m 329 93 q 454 158 410 93 q 499 340 499 224 q 454 522 499 457 q 329 586 410 586 q 201 522 246 586 q 157 340 157 457 q 201 158 157 222 q 329 93 246 93 m 181 867 l 329 993 l 478 867 l 478 783 l 329 876 l 181 783 l 181 867 z "},"ố":{"ha":656,"x_min":33,"x_max":636,"o":"m 329 -14 q 171 33 238 -14 q 69 160 104 79 q 33 340 33 240 q 69 521 33 440 q 171 648 104 601 q 329 694 238 694 q 486 648 419 694 q 588 521 553 601 q 622 340 622 440 q 588 160 622 240 q 486 33 553 79 q 329 -14 419 -14 m 329 93 q 454 158 410 93 q 499 340 499 224 q 454 522 499 457 q 329 586 410 586 q 201 522 246 586 q 157 340 157 457 q 201 158 157 222 q 329 93 246 93 m 506 1108 l 636 1108 l 514 946 l 428 946 l 506 1108 m 492 839 l 492 754 l 329 840 l 167 754 l 167 839 l 329 954 l 492 839 z "},"ộ":{"ha":656,"x_min":33,"x_max":622,"o":"m 329 -14 q 171 33 238 -14 q 69 160 104 79 q 33 340 33 240 q 69 521 33 440 q 171 648 104 601 q 329 694 238 694 q 486 648 419 694 q 588 521 553 601 q 622 340 622 440 q 588 160 622 240 q 486 33 553 79 q 329 -14 419 -14 m 329 93 q 454 158 410 93 q 499 340 499 224 q 454 522 499 457 q 329 586 410 586 q 201 522 246 586 q 157 340 157 457 q 201 158 157 222 q 329 93 246 93 m 181 867 l 329 993 l 478 867 l 478 783 l 329 876 l 181 783 l 181 867 m 268 -112 l 390 -112 l 390 -236 l 268 -236 l 268 -112 z "},"ồ":{"ha":656,"x_min":33,"x_max":622,"o":"m 329 -14 q 171 33 238 -14 q 69 160 104 79 q 33 340 33 240 q 69 521 33 440 q 171 648 104 601 q 329 694 238 694 q 486 648 419 694 q 588 521 553 601 q 622 340 622 440 q 588 160 622 240 q 486 33 553 79 q 329 -14 419 -14 m 329 93 q 454 158 410 93 q 499 340 499 224 q 454 522 499 457 q 329 586 410 586 q 201 522 246 586 q 157 340 157 457 q 201 158 157 222 q 329 93 246 93 m 453 946 l 346 1108 l 471 1108 l 535 946 l 453 946 m 492 839 l 492 754 l 329 840 l 167 754 l 167 839 l 329 954 l 492 839 z "},"ổ":{"ha":656,"x_min":33,"x_max":622,"o":"m 329 -14 q 171 33 238 -14 q 69 160 104 79 q 33 340 33 240 q 69 521 33 440 q 171 648 104 601 q 329 694 238 694 q 486 648 419 694 q 588 521 553 601 q 622 340 622 440 q 588 160 622 240 q 486 33 553 79 q 329 -14 419 -14 m 329 93 q 454 158 410 93 q 499 340 499 224 q 454 522 499 457 q 329 586 410 586 q 201 522 246 586 q 157 340 157 457 q 201 158 157 222 q 329 93 246 93 m 492 839 l 492 754 l 329 840 l 167 754 l 167 839 l 329 954 l 492 839 m 450 963 q 476 986 468 974 q 485 1017 485 999 q 472 1050 485 1039 q 436 1061 460 1061 q 368 1042 407 1061 l 344 1110 q 446 1131 393 1131 q 531 1102 497 1131 q 565 1026 565 1074 q 542 957 565 985 q 471 910 518 929 l 450 963 z "},"ỗ":{"ha":656,"x_min":33,"x_max":622,"o":"m 329 -14 q 171 33 238 -14 q 69 160 104 79 q 33 340 33 240 q 69 521 33 440 q 171 648 104 601 q 329 694 238 694 q 486 648 419 694 q 588 521 553 601 q 622 340 622 440 q 588 160 622 240 q 486 33 553 79 q 329 -14 419 -14 m 329 93 q 454 158 410 93 q 499 340 499 224 q 454 522 499 457 q 329 586 410 586 q 201 522 246 586 q 157 340 157 457 q 201 158 157 222 q 329 93 246 93 m 492 839 l 492 754 l 329 840 l 167 754 l 167 839 l 329 954 l 492 839 m 428 1011 q 383 1019 406 1011 q 332 1040 361 1026 q 303 1052 328 1042 q 261 1063 279 1063 q 231 1051 242 1063 q 219 1018 219 1039 l 129 1018 q 156 1121 129 1085 q 231 1157 182 1157 q 275 1149 253 1157 q 326 1128 297 1142 q 355 1116 331 1126 q 397 1106 379 1106 q 428 1117 417 1106 q 439 1150 439 1129 l 529 1150 q 503 1047 529 1083 q 428 1011 476 1011 z "},"ȍ":{"ha":656,"x_min":33,"x_max":622,"o":"m 329 -14 q 171 33 238 -14 q 69 160 104 79 q 33 340 33 240 q 69 521 33 440 q 171 648 104 601 q 329 694 238 694 q 486 648 419 694 q 588 521 553 601 q 622 340 622 440 q 588 160 622 240 q 486 33 553 79 q 329 -14 419 -14 m 329 93 q 454 158 410 93 q 499 340 499 224 q 454 522 499 457 q 329 586 410 586 q 201 522 246 586 q 157 340 157 457 q 201 158 157 222 q 329 93 246 93 m 196 803 l 69 1033 l 206 1033 l 288 803 l 196 803 m 390 803 l 271 1033 l 397 1033 l 474 803 l 390 803 z "},"ö":{"ha":656,"x_min":33,"x_max":622,"o":"m 329 -14 q 171 33 238 -14 q 69 160 104 79 q 33 340 33 240 q 69 521 33 440 q 171 648 104 601 q 329 694 238 694 q 486 648 419 694 q 588 521 553 601 q 622 340 622 440 q 588 160 622 240 q 486 33 553 79 q 329 -14 419 -14 m 329 93 q 454 158 410 93 q 499 340 499 224 q 454 522 499 457 q 329 586 410 586 q 201 522 246 586 q 157 340 157 457 q 201 158 157 222 q 329 93 246 93 m 164 932 l 278 932 l 278 821 l 164 821 l 164 932 m 381 932 l 494 932 l 494 821 l 381 821 l 381 932 z "},"ȫ":{"ha":656,"x_min":33,"x_max":622,"o":"m 329 -14 q 171 33 238 -14 q 69 160 104 79 q 33 340 33 240 q 69 521 33 440 q 171 648 104 601 q 329 694 238 694 q 486 648 419 694 q 588 521 553 601 q 622 340 622 440 q 588 160 622 240 q 486 33 553 79 q 329 -14 419 -14 m 329 93 q 454 158 410 93 q 499 340 499 224 q 454 522 499 457 q 329 586 410 586 q 201 522 246 586 q 157 340 157 457 q 201 158 157 222 q 329 93 246 93 m 164 915 l 281 915 l 281 811 l 164 811 l 164 915 m 378 915 l 494 915 l 494 811 l 378 811 l 378 915 m 121 1124 l 538 1124 l 538 1032 l 121 1032 l 121 1124 z "},"ȱ":{"ha":656,"x_min":33,"x_max":622,"o":"m 329 -14 q 171 33 238 -14 q 69 160 104 79 q 33 340 33 240 q 69 521 33 440 q 171 648 104 601 q 329 694 238 694 q 486 648 419 694 q 588 521 553 601 q 622 340 622 440 q 588 160 622 240 q 486 33 553 79 q 329 -14 419 -14 m 329 93 q 454 158 410 93 q 499 340 499 224 q 454 522 499 457 q 329 586 410 586 q 201 522 246 586 q 157 340 157 457 q 201 158 157 222 q 329 93 246 93 m 265 931 l 393 931 l 393 807 l 265 807 l 265 931 m 121 1131 l 538 1131 l 538 1039 l 121 1039 l 121 1131 z "},"ọ":{"ha":656,"x_min":33,"x_max":622,"o":"m 329 -14 q 171 33 238 -14 q 69 160 104 79 q 33 340 33 240 q 69 521 33 440 q 171 648 104 601 q 329 694 238 694 q 486 648 419 694 q 588 521 553 601 q 622 340 622 440 q 588 160 622 240 q 486 33 553 79 q 329 -14 419 -14 m 329 93 q 454 158 410 93 q 499 340 499 224 q 454 522 499 457 q 329 586 410 586 q 201 522 246 586 q 157 340 157 457 q 201 158 157 222 q 329 93 246 93 m 268 -112 l 390 -112 l 390 -236 l 268 -236 l 268 -112 z "},"ò":{"ha":656,"x_min":33,"x_max":622,"o":"m 329 -14 q 171 33 238 -14 q 69 160 104 79 q 33 340 33 240 q 69 521 33 440 q 171 648 104 601 q 329 694 238 694 q 486 648 419 694 q 588 521 553 601 q 622 340 622 440 q 588 160 622 240 q 486 33 553 79 q 329 -14 419 -14 m 329 93 q 454 158 410 93 q 499 340 499 224 q 454 522 499 457 q 329 586 410 586 q 201 522 246 586 q 157 340 157 457 q 201 158 157 222 q 329 93 246 93 m 226 890 l 226 1028 l 431 899 l 431 811 l 226 890 z "},"ỏ":{"ha":656,"x_min":33,"x_max":622,"o":"m 329 -14 q 171 33 238 -14 q 69 160 104 79 q 33 340 33 240 q 69 521 33 440 q 171 648 104 601 q 329 694 238 694 q 486 648 419 694 q 588 521 553 601 q 622 340 622 440 q 588 160 622 240 q 486 33 553 79 q 329 -14 419 -14 m 329 93 q 454 158 410 93 q 499 340 499 224 q 454 522 499 457 q 329 586 410 586 q 201 522 246 586 q 157 340 157 457 q 201 158 157 222 q 329 93 246 93 m 303 775 q 342 826 332 807 q 353 867 353 844 q 340 901 353 889 q 307 913 328 913 q 233 889 276 913 l 210 956 q 314 979 254 979 q 398 950 365 979 q 431 871 431 921 q 412 799 431 829 q 350 729 393 768 l 303 775 z "},"ơ":{"ha":656,"x_min":33,"x_max":622,"o":"m 513 626 q 594 504 565 579 q 622 340 622 429 q 588 160 622 240 q 486 33 553 79 q 329 -14 419 -14 q 171 33 238 -14 q 69 160 104 79 q 33 340 33 240 q 69 521 33 440 q 171 648 104 601 q 329 694 238 694 q 413 683 371 694 q 482 783 482 696 l 594 783 q 573 692 594 732 q 513 626 551 653 m 329 93 q 454 158 410 93 q 499 340 499 224 q 454 522 499 457 q 329 586 410 586 q 201 522 246 586 q 157 340 157 457 q 201 158 157 222 q 329 93 246 93 z "},"ớ":{"ha":656,"x_min":33,"x_max":622,"o":"m 513 626 q 594 504 565 579 q 622 340 622 429 q 588 160 622 240 q 486 33 553 79 q 329 -14 419 -14 q 171 33 238 -14 q 69 160 104 79 q 33 340 33 240 q 69 521 33 440 q 171 648 104 601 q 329 694 238 694 q 413 683 371 694 q 482 783 482 696 l 594 783 q 573 692 594 732 q 513 626 551 653 m 329 93 q 454 158 410 93 q 499 340 499 224 q 454 522 499 457 q 329 586 410 586 q 201 522 246 586 q 157 340 157 457 q 201 158 157 222 q 329 93 246 93 m 228 896 l 432 1026 l 432 890 l 228 811 l 228 896 z "},"ợ":{"ha":656,"x_min":33,"x_max":622,"o":"m 513 626 q 594 504 565 579 q 622 340 622 429 q 588 160 622 240 q 486 33 553 79 q 329 -14 419 -14 q 171 33 238 -14 q 69 160 104 79 q 33 340 33 240 q 69 521 33 440 q 171 648 104 601 q 329 694 238 694 q 413 683 371 694 q 482 783 482 696 l 594 783 q 573 692 594 732 q 513 626 551 653 m 329 93 q 454 158 410 93 q 499 340 499 224 q 454 522 499 457 q 329 586 410 586 q 201 522 246 586 q 157 340 157 457 q 201 158 157 222 q 329 93 246 93 m 268 -112 l 390 -112 l 390 -236 l 268 -236 l 268 -112 z "},"ờ":{"ha":656,"x_min":33,"x_max":622,"o":"m 513 626 q 594 504 565 579 q 622 340 622 429 q 588 160 622 240 q 486 33 553 79 q 329 -14 419 -14 q 171 33 238 -14 q 69 160 104 79 q 33 340 33 240 q 69 521 33 440 q 171 648 104 601 q 329 694 238 694 q 413 683 371 694 q 482 783 482 696 l 594 783 q 573 692 594 732 q 513 626 551 653 m 329 93 q 454 158 410 93 q 499 340 499 224 q 454 522 499 457 q 329 586 410 586 q 201 522 246 586 q 157 340 157 457 q 201 158 157 222 q 329 93 246 93 m 226 890 l 226 1028 l 431 899 l 431 811 l 226 890 z "},"ở":{"ha":656,"x_min":33,"x_max":622,"o":"m 513 626 q 594 504 565 579 q 622 340 622 429 q 588 160 622 240 q 486 33 553 79 q 329 -14 419 -14 q 171 33 238 -14 q 69 160 104 79 q 33 340 33 240 q 69 521 33 440 q 171 648 104 601 q 329 694 238 694 q 413 683 371 694 q 482 783 482 696 l 594 783 q 573 692 594 732 q 513 626 551 653 m 329 93 q 454 158 410 93 q 499 340 499 224 q 454 522 499 457 q 329 586 410 586 q 201 522 246 586 q 157 340 157 457 q 201 158 157 222 q 329 93 246 93 m 303 775 q 342 826 332 807 q 353 867 353 844 q 340 901 353 889 q 307 913 328 913 q 233 889 276 913 l 210 956 q 314 979 254 979 q 398 950 365 979 q 431 871 431 921 q 412 799 431 829 q 350 729 393 768 l 303 775 z "},"ỡ":{"ha":656,"x_min":33,"x_max":622,"o":"m 513 626 q 594 504 565 579 q 622 340 622 429 q 588 160 622 240 q 486 33 553 79 q 329 -14 419 -14 q 171 33 238 -14 q 69 160 104 79 q 33 340 33 240 q 69 521 33 440 q 171 648 104 601 q 329 694 238 694 q 413 683 371 694 q 482 783 482 696 l 594 783 q 573 692 594 732 q 513 626 551 653 m 329 93 q 454 158 410 93 q 499 340 499 224 q 454 522 499 457 q 329 586 410 586 q 201 522 246 586 q 157 340 157 457 q 201 158 157 222 q 329 93 246 93 m 426 806 q 378 815 399 806 q 328 843 357 825 q 264 871 290 871 q 236 856 246 871 q 226 817 226 842 l 126 817 q 232 971 133 971 q 281 961 260 971 q 331 933 301 951 q 394 906 368 906 q 422 920 413 906 q 432 960 432 935 l 532 960 q 426 806 525 806 z "},"ő":{"ha":656,"x_min":33,"x_max":622,"o":"m 329 -14 q 171 33 238 -14 q 69 160 104 79 q 33 340 33 240 q 69 521 33 440 q 171 648 104 601 q 329 694 238 694 q 486 648 419 694 q 588 521 553 601 q 622 340 622 440 q 588 160 622 240 q 486 33 553 79 q 329 -14 419 -14 m 329 93 q 454 158 410 93 q 499 340 499 224 q 454 522 499 457 q 329 586 410 586 q 201 522 246 586 q 157 340 157 457 q 201 158 157 222 q 329 93 246 93 m 271 1033 l 403 1033 l 274 803 l 186 803 l 271 1033 m 463 1033 l 593 1033 l 457 803 l 371 803 l 463 1033 z "},"ȏ":{"ha":656,"x_min":33,"x_max":622,"o":"m 329 -14 q 171 33 238 -14 q 69 160 104 79 q 33 340 33 240 q 69 521 33 440 q 171 648 104 601 q 329 694 238 694 q 486 648 419 694 q 588 521 553 601 q 622 340 622 440 q 588 160 622 240 q 486 33 553 79 q 329 -14 419 -14 m 329 93 q 454 158 410 93 q 499 340 499 224 q 454 522 499 457 q 329 586 410 586 q 201 522 246 586 q 157 340 157 457 q 201 158 157 222 q 329 93 246 93 m 329 961 q 469 915 421 961 q 518 800 518 868 l 410 800 q 390 852 410 833 q 329 871 369 871 q 269 852 289 871 q 249 800 249 833 l 140 800 q 189 915 140 868 q 329 961 238 961 z "},"ō":{"ha":656,"x_min":33,"x_max":622,"o":"m 329 -14 q 171 33 238 -14 q 69 160 104 79 q 33 340 33 240 q 69 521 33 440 q 171 648 104 601 q 329 694 238 694 q 486 648 419 694 q 588 521 553 601 q 622 340 622 440 q 588 160 622 240 q 486 33 553 79 q 329 -14 419 -14 m 329 93 q 454 158 410 93 q 499 340 499 224 q 454 522 499 457 q 329 586 410 586 q 201 522 246 586 q 157 340 157 457 q 201 158 157 222 q 329 93 246 93 m 135 917 l 524 917 l 524 822 l 135 822 l 135 917 z "},"ṓ":{"ha":656,"x_min":33,"x_max":622,"o":"m 329 -14 q 171 33 238 -14 q 69 160 104 79 q 33 340 33 240 q 69 521 33 440 q 171 648 104 601 q 329 694 238 694 q 486 648 419 694 q 588 521 553 601 q 622 340 622 440 q 588 160 622 240 q 486 33 553 79 q 329 -14 419 -14 m 329 93 q 454 158 410 93 q 499 340 499 224 q 454 522 499 457 q 329 586 410 586 q 201 522 246 586 q 157 340 157 457 q 201 158 157 222 q 329 93 246 93 m 121 901 l 538 901 l 538 810 l 121 810 l 121 901 m 228 1063 l 432 1175 l 432 1046 l 228 982 l 228 1063 z "},"ṑ":{"ha":656,"x_min":33,"x_max":622,"o":"m 329 -14 q 171 33 238 -14 q 69 160 104 79 q 33 340 33 240 q 69 521 33 440 q 171 648 104 601 q 329 694 238 694 q 486 648 419 694 q 588 521 553 601 q 622 340 622 440 q 588 160 622 240 q 486 33 553 79 q 329 -14 419 -14 m 329 93 q 454 158 410 93 q 499 340 499 224 q 454 522 499 457 q 329 586 410 586 q 201 522 246 586 q 157 340 157 457 q 201 158 157 222 q 329 93 246 93 m 121 901 l 538 901 l 538 810 l 121 810 l 121 901 m 226 1043 l 226 1175 l 431 1063 l 431 982 l 226 1043 z "},"ǫ":{"ha":656,"x_min":33,"x_max":622,"o":"m 622 340 q 560 108 622 204 q 386 -8 497 13 q 322 -87 343 -53 q 300 -157 300 -121 q 318 -202 300 -186 q 367 -218 336 -218 q 426 -206 397 -218 l 447 -271 q 356 -289 408 -289 q 258 -258 297 -289 q 219 -174 219 -228 q 243 -90 219 -129 q 307 -12 267 -51 q 160 41 222 -7 q 66 167 99 89 q 33 340 33 244 q 69 521 33 440 q 171 648 104 601 q 329 694 238 694 q 486 648 419 694 q 588 521 553 601 q 622 340 622 440 m 157 340 q 201 158 157 222 q 329 93 246 93 q 454 158 410 93 q 499 340 499 224 q 454 522 499 457 q 329 586 410 586 q 201 522 246 586 q 157 340 157 457 z "},"ø":{"ha":656,"x_min":33,"x_max":622,"o":"m 529 610 q 599 492 575 561 q 622 340 622 422 q 588 160 622 240 q 486 33 553 79 q 329 -14 419 -14 q 200 15 261 -14 l 160 -56 l 56 -56 l 126 71 q 57 189 81 119 q 33 340 33 258 q 69 521 33 440 q 171 648 104 601 q 329 694 238 694 q 457 665 399 694 l 497 736 l 600 736 l 529 610 m 157 340 q 188 182 157 246 l 404 568 q 329 586 372 586 q 201 522 246 586 q 157 340 157 457 m 329 93 q 454 158 410 93 q 499 340 499 224 q 468 499 499 435 l 253 111 q 329 93 289 93 z "},"ǿ":{"ha":656,"x_min":33,"x_max":622,"o":"m 529 610 q 599 492 575 561 q 622 340 622 422 q 588 160 622 240 q 486 33 553 79 q 329 -14 419 -14 q 200 15 261 -14 l 160 -56 l 56 -56 l 126 71 q 57 189 81 119 q 33 340 33 258 q 69 521 33 440 q 171 648 104 601 q 329 694 238 694 q 457 665 399 694 l 497 736 l 600 736 l 529 610 m 157 340 q 188 182 157 246 l 404 568 q 329 586 372 586 q 201 522 246 586 q 157 340 157 457 m 329 93 q 454 158 410 93 q 499 340 499 224 q 468 499 499 435 l 253 111 q 329 93 289 93 m 228 896 l 432 1026 l 432 890 l 228 811 l 228 896 z "},"õ":{"ha":656,"x_min":33,"x_max":622,"o":"m 329 -14 q 171 33 238 -14 q 69 160 104 79 q 33 340 33 240 q 69 521 33 440 q 171 648 104 601 q 329 694 238 694 q 486 648 419 694 q 588 521 553 601 q 622 340 622 440 q 588 160 622 240 q 486 33 553 79 q 329 -14 419 -14 m 329 93 q 454 158 410 93 q 499 340 499 224 q 454 522 499 457 q 329 586 410 586 q 201 522 246 586 q 157 340 157 457 q 201 158 157 222 q 329 93 246 93 m 426 806 q 378 815 399 806 q 328 843 357 825 q 264 871 290 871 q 236 856 246 871 q 226 817 226 842 l 126 817 q 232 971 133 971 q 281 961 260 971 q 331 933 301 951 q 394 906 368 906 q 422 920 413 906 q 432 960 432 935 l 532 960 q 426 806 525 806 z "},"ṍ":{"ha":656,"x_min":33,"x_max":622,"o":"m 329 -14 q 171 33 238 -14 q 69 160 104 79 q 33 340 33 240 q 69 521 33 440 q 171 648 104 601 q 329 694 238 694 q 486 648 419 694 q 588 521 553 601 q 622 340 622 440 q 588 160 622 240 q 486 33 553 79 q 329 -14 419 -14 m 329 93 q 454 158 410 93 q 499 340 499 224 q 454 522 499 457 q 329 586 410 586 q 201 522 246 586 q 157 340 157 457 q 201 158 157 222 q 329 93 246 93 m 428 803 q 383 810 406 803 q 332 832 361 818 q 303 844 328 833 q 261 854 279 854 q 231 842 242 854 q 219 810 219 831 l 129 810 q 156 913 129 876 q 231 949 182 949 q 275 941 253 949 q 326 919 297 933 q 355 908 331 918 q 397 897 379 897 q 428 909 417 897 q 439 942 439 921 l 529 942 q 503 839 529 875 q 428 803 476 803 m 228 1094 l 432 1207 l 432 1078 l 228 1014 l 228 1094 z "},"ṏ":{"ha":656,"x_min":33,"x_max":622,"o":"m 329 -14 q 171 33 238 -14 q 69 160 104 79 q 33 340 33 240 q 69 521 33 440 q 171 648 104 601 q 329 694 238 694 q 486 648 419 694 q 588 521 553 601 q 622 340 622 440 q 588 160 622 240 q 486 33 553 79 q 329 -14 419 -14 m 329 93 q 454 158 410 93 q 499 340 499 224 q 454 522 499 457 q 329 586 410 586 q 201 522 246 586 q 157 340 157 457 q 201 158 157 222 q 329 93 246 93 m 428 803 q 383 810 406 803 q 332 832 361 818 q 303 844 328 833 q 261 854 279 854 q 231 842 242 854 q 219 810 219 831 l 129 810 q 156 913 129 876 q 231 949 182 949 q 275 941 253 949 q 326 919 297 933 q 355 908 331 918 q 397 897 379 897 q 428 909 417 897 q 439 942 439 921 l 529 942 q 503 839 529 875 q 428 803 476 803 m 164 1160 l 281 1160 l 281 1056 l 164 1056 l 164 1160 m 378 1160 l 494 1160 l 494 1056 l 378 1056 l 378 1160 z "},"ȭ":{"ha":656,"x_min":33,"x_max":622,"o":"m 329 -14 q 171 33 238 -14 q 69 160 104 79 q 33 340 33 240 q 69 521 33 440 q 171 648 104 601 q 329 694 238 694 q 486 648 419 694 q 588 521 553 601 q 622 340 622 440 q 588 160 622 240 q 486 33 553 79 q 329 -14 419 -14 m 329 93 q 454 158 410 93 q 499 340 499 224 q 454 522 499 457 q 329 586 410 586 q 201 522 246 586 q 157 340 157 457 q 201 158 157 222 q 329 93 246 93 m 428 803 q 383 810 406 803 q 332 832 361 818 q 303 844 328 833 q 261 854 279 854 q 231 842 242 854 q 219 810 219 831 l 129 810 q 156 913 129 876 q 231 949 182 949 q 275 941 253 949 q 326 919 297 933 q 355 908 331 918 q 397 897 379 897 q 428 909 417 897 q 439 942 439 921 l 529 942 q 503 839 529 875 q 428 803 476 803 m 121 1146 l 538 1146 l 538 1054 l 121 1054 l 121 1146 z "},"œ":{"ha":1067,"x_min":33,"x_max":1038,"o":"m 1038 414 q 1031 342 1038 374 l 631 342 q 689 157 636 218 q 825 96 742 96 q 1000 143 910 96 l 1011 46 q 814 -14 917 -14 q 665 22 729 -14 q 561 122 601 58 q 463 22 522 58 q 329 -14 404 -14 q 171 33 238 -14 q 69 160 104 79 q 33 340 33 240 q 69 521 33 440 q 171 648 104 601 q 329 694 238 694 q 461 658 403 694 q 557 556 519 621 q 653 657 590 619 q 796 694 717 694 q 971 620 904 694 q 1038 414 1038 546 m 329 96 q 453 160 410 96 q 496 340 496 224 q 452 519 496 456 q 329 583 408 583 q 203 519 247 583 q 160 340 160 456 q 203 160 160 224 q 329 96 247 96 m 911 426 q 881 538 911 492 q 782 583 850 583 q 681 544 719 583 q 632 426 642 504 l 911 426 z "},"p":{"ha":675,"x_min":78,"x_max":644,"o":"m 374 694 q 517 648 456 694 q 612 521 579 601 q 644 340 644 440 q 574 85 644 185 q 374 -14 503 -14 q 276 5 321 -14 q 199 60 231 24 l 199 -336 l 78 -336 l 78 681 l 171 681 l 182 599 q 374 694 256 694 m 351 93 q 476 158 431 93 q 521 340 521 224 q 476 521 521 456 q 351 586 431 586 q 271 558 310 586 q 208 475 232 531 q 183 340 183 419 q 208 203 183 258 q 270 120 232 147 q 351 93 308 93 z "},"þ":{"ha":674,"x_min":76,"x_max":643,"o":"m 372 694 q 516 648 454 694 q 610 521 578 601 q 643 340 643 440 q 572 85 643 185 q 372 -14 501 -14 q 274 5 319 -14 q 197 60 229 24 l 197 -336 l 76 -336 l 76 1042 l 197 1042 l 197 618 q 372 694 267 694 m 350 93 q 474 158 429 93 q 519 340 519 224 q 474 521 519 456 q 350 586 429 586 q 269 558 308 586 q 206 475 231 531 q 182 340 182 419 q 206 203 182 258 q 269 120 231 147 q 350 93 307 93 z "},"q":{"ha":685,"x_min":78,"x_max":644,"o":"m 644 681 l 644 -336 l 524 -336 l 524 47 q 363 -14 460 -14 q 152 85 226 -14 q 78 340 78 185 q 112 516 78 435 q 210 646 146 597 q 360 694 275 694 q 465 676 421 694 q 542 618 508 657 l 550 681 l 644 681 m 372 93 q 493 155 446 93 q 540 340 540 217 q 493 523 540 460 q 372 586 446 586 q 247 521 293 586 q 201 340 201 456 q 247 158 201 224 q 372 93 293 93 z "},"r":{"ha":410,"x_min":79,"x_max":399,"o":"m 79 681 l 178 681 l 193 567 q 280 664 239 633 q 367 694 321 694 q 399 690 385 694 l 386 553 q 344 557 368 557 q 258 534 299 557 q 200 481 218 511 l 200 0 l 79 0 l 79 681 z "},"ŕ":{"ha":410,"x_min":79,"x_max":399,"o":"m 79 681 l 178 681 l 193 567 q 280 664 239 633 q 367 694 321 694 q 399 690 385 694 l 386 553 q 344 557 368 557 q 258 534 299 557 q 200 481 218 511 l 200 0 l 79 0 l 79 681 m 150 896 l 354 1026 l 354 890 l 150 811 l 150 896 z "},"ř":{"ha":410,"x_min":79,"x_max":400,"o":"m 79 681 l 178 681 l 193 567 q 280 664 239 633 q 367 694 321 694 q 399 690 385 694 l 386 553 q 344 557 368 557 q 258 534 299 557 q 200 481 218 511 l 200 0 l 79 0 l 79 681 m 103 904 l 103 988 l 251 893 l 400 988 l 400 904 l 251 775 l 103 904 z "},"ŗ":{"ha":410,"x_min":72,"x_max":399,"o":"m 79 681 l 178 681 l 193 567 q 280 664 239 633 q 367 694 321 694 q 399 690 385 694 l 386 553 q 344 557 368 557 q 258 534 299 557 q 200 481 218 511 l 200 0 l 79 0 l 79 681 m 72 -394 l 122 -246 l 76 -246 l 76 -126 l 204 -126 l 204 -232 l 132 -394 l 72 -394 z "},"ȑ":{"ha":410,"x_min":-8,"x_max":399,"o":"m 79 681 l 178 681 l 193 567 q 280 664 239 633 q 367 694 321 694 q 399 690 385 694 l 386 553 q 344 557 368 557 q 258 534 299 557 q 200 481 218 511 l 200 0 l 79 0 l 79 681 m 118 803 l -8 1033 l 128 1033 l 210 803 l 118 803 m 313 803 l 193 1033 l 319 1033 l 396 803 l 313 803 z "},"ṛ":{"ha":410,"x_min":79,"x_max":399,"o":"m 79 681 l 178 681 l 193 567 q 280 664 239 633 q 367 694 321 694 q 399 690 385 694 l 386 553 q 344 557 368 557 q 258 534 299 557 q 200 481 218 511 l 200 0 l 79 0 l 79 681 m 79 -112 l 201 -112 l 201 -236 l 79 -236 l 79 -112 z "},"ȓ":{"ha":410,"x_min":63,"x_max":440,"o":"m 79 681 l 178 681 l 193 567 q 280 664 239 633 q 367 694 321 694 q 399 690 385 694 l 386 553 q 344 557 368 557 q 258 534 299 557 q 200 481 218 511 l 200 0 l 79 0 l 79 681 m 251 961 q 392 915 343 961 q 440 800 440 868 l 332 800 q 312 852 332 833 q 251 871 292 871 q 191 852 211 871 q 171 800 171 833 l 63 800 q 111 915 63 868 q 251 961 160 961 z "},"ṟ":{"ha":410,"x_min":-54,"x_max":399,"o":"m 79 681 l 178 681 l 193 567 q 280 664 239 633 q 367 694 321 694 q 399 690 385 694 l 386 553 q 344 557 368 557 q 258 534 299 557 q 200 481 218 511 l 200 0 l 79 0 l 79 681 m -54 -129 l 335 -129 l 335 -224 l -54 -224 l -54 -129 z "},"s":{"ha":500,"x_min":46,"x_max":475,"o":"m 253 -14 q 46 42 133 -14 l 61 164 q 244 94 150 94 q 323 115 294 94 q 351 176 351 136 q 338 226 351 207 q 294 264 325 246 q 200 311 264 282 q 90 390 125 346 q 56 506 56 435 q 114 642 56 589 q 271 694 172 694 q 446 650 371 694 l 431 538 q 360 574 393 563 q 281 586 326 586 q 204 565 232 586 q 176 507 176 544 q 201 450 176 469 q 296 399 225 431 q 435 309 394 354 q 475 190 475 264 q 415 40 475 94 q 253 -14 356 -14 z "},"ś":{"ha":500,"x_min":46,"x_max":475,"o":"m 253 -14 q 46 42 133 -14 l 61 164 q 244 94 150 94 q 323 115 294 94 q 351 176 351 136 q 338 226 351 207 q 294 264 325 246 q 200 311 264 282 q 90 390 125 346 q 56 506 56 435 q 114 642 56 589 q 271 694 172 694 q 446 650 371 694 l 431 538 q 360 574 393 563 q 281 586 326 586 q 204 565 232 586 q 176 507 176 544 q 201 450 176 469 q 296 399 225 431 q 435 309 394 354 q 475 190 475 264 q 415 40 475 94 q 253 -14 356 -14 m 176 896 l 381 1026 l 381 890 l 176 811 l 176 896 z "},"ṥ":{"ha":500,"x_min":46,"x_max":475,"o":"m 253 -14 q 46 42 133 -14 l 61 164 q 244 94 150 94 q 323 115 294 94 q 351 176 351 136 q 338 226 351 207 q 294 264 325 246 q 200 311 264 282 q 90 390 125 346 q 56 506 56 435 q 114 642 56 589 q 271 694 172 694 q 446 650 371 694 l 431 538 q 360 574 393 563 q 281 586 326 586 q 204 565 232 586 q 176 507 176 544 q 201 450 176 469 q 296 399 225 431 q 435 309 394 354 q 475 190 475 264 q 415 40 475 94 q 253 -14 356 -14 m 176 850 l 381 963 l 381 833 l 176 769 l 176 850 m 214 1157 l 342 1157 l 342 1033 l 214 1033 l 214 1157 z "},"š":{"ha":500,"x_min":46,"x_max":475,"o":"m 253 -14 q 46 42 133 -14 l 61 164 q 244 94 150 94 q 323 115 294 94 q 351 176 351 136 q 338 226 351 207 q 294 264 325 246 q 200 311 264 282 q 90 390 125 346 q 56 506 56 435 q 114 642 56 589 q 271 694 172 694 q 446 650 371 694 l 431 538 q 360 574 393 563 q 281 586 326 586 q 204 565 232 586 q 176 507 176 544 q 201 450 176 469 q 296 399 225 431 q 435 309 394 354 q 475 190 475 264 q 415 40 475 94 q 253 -14 356 -14 m 129 904 l 129 988 l 278 893 l 426 988 l 426 904 l 278 775 l 129 904 z "},"ṧ":{"ha":500,"x_min":46,"x_max":475,"o":"m 253 -14 q 46 42 133 -14 l 61 164 q 244 94 150 94 q 323 115 294 94 q 351 176 351 136 q 338 226 351 207 q 294 264 325 246 q 200 311 264 282 q 90 390 125 346 q 56 506 56 435 q 114 642 56 589 q 271 694 172 694 q 446 650 371 694 l 431 538 q 360 574 393 563 q 281 586 326 586 q 204 565 232 586 q 176 507 176 544 q 201 450 176 469 q 296 399 225 431 q 435 309 394 354 q 475 190 475 264 q 415 40 475 94 q 253 -14 356 -14 m 115 911 l 115 996 l 278 910 l 440 996 l 440 911 l 278 796 l 115 911 m 214 1188 l 342 1188 l 342 1064 l 214 1064 l 214 1188 z "},"ş":{"ha":500,"x_min":46,"x_max":475,"o":"m 475 190 q 426 51 475 104 q 292 -11 378 -1 l 272 -75 q 355 -106 325 -75 q 385 -187 385 -136 q 345 -281 385 -247 q 244 -314 306 -314 q 153 -296 192 -314 l 174 -231 q 244 -246 208 -246 q 292 -231 275 -246 q 310 -187 310 -217 q 294 -147 310 -161 q 250 -132 279 -132 q 199 -140 228 -132 l 229 -14 q 46 42 125 -8 l 61 164 q 244 94 150 94 q 323 115 294 94 q 351 176 351 136 q 338 226 351 207 q 294 264 325 246 q 200 311 264 282 q 90 390 125 346 q 56 506 56 435 q 114 642 56 589 q 271 694 172 694 q 446 650 371 694 l 431 538 q 360 574 393 563 q 281 586 326 586 q 204 565 232 586 q 176 507 176 544 q 201 450 176 469 q 296 399 225 431 q 435 309 394 354 q 475 190 475 264 z "},"ŝ":{"ha":500,"x_min":46,"x_max":475,"o":"m 253 -14 q 46 42 133 -14 l 61 164 q 244 94 150 94 q 323 115 294 94 q 351 176 351 136 q 338 226 351 207 q 294 264 325 246 q 200 311 264 282 q 90 390 125 346 q 56 506 56 435 q 114 642 56 589 q 271 694 172 694 q 446 650 371 694 l 431 538 q 360 574 393 563 q 281 586 326 586 q 204 565 232 586 q 176 507 176 544 q 201 450 176 469 q 296 399 225 431 q 435 309 394 354 q 475 190 475 264 q 415 40 475 94 q 253 -14 356 -14 m 129 867 l 278 993 l 426 867 l 426 783 l 278 876 l 129 783 l 129 867 z "},"ș":{"ha":500,"x_min":46,"x_max":475,"o":"m 253 -14 q 46 42 133 -14 l 61 164 q 244 94 150 94 q 323 115 294 94 q 351 176 351 136 q 338 226 351 207 q 294 264 325 246 q 200 311 264 282 q 90 390 125 346 q 56 506 56 435 q 114 642 56 589 q 271 694 172 694 q 446 650 371 694 l 431 538 q 360 574 393 563 q 281 586 326 586 q 204 565 232 586 q 176 507 176 544 q 201 450 176 469 q 296 399 225 431 q 435 309 394 354 q 475 190 475 264 q 415 40 475 94 q 253 -14 356 -14 m 183 -394 l 233 -246 l 188 -246 l 188 -126 l 315 -126 l 315 -232 l 243 -394 l 183 -394 z "},"ṡ":{"ha":500,"x_min":46,"x_max":475,"o":"m 253 -14 q 46 42 133 -14 l 61 164 q 244 94 150 94 q 323 115 294 94 q 351 176 351 136 q 338 226 351 207 q 294 264 325 246 q 200 311 264 282 q 90 390 125 346 q 56 506 56 435 q 114 642 56 589 q 271 694 172 694 q 446 650 371 694 l 431 538 q 360 574 393 563 q 281 586 326 586 q 204 565 232 586 q 176 507 176 544 q 201 450 176 469 q 296 399 225 431 q 435 309 394 354 q 475 190 475 264 q 415 40 475 94 q 253 -14 356 -14 m 217 944 l 339 944 l 339 821 l 217 821 l 217 944 z "},"ṣ":{"ha":500,"x_min":46,"x_max":475,"o":"m 253 -14 q 46 42 133 -14 l 61 164 q 244 94 150 94 q 323 115 294 94 q 351 176 351 136 q 338 226 351 207 q 294 264 325 246 q 200 311 264 282 q 90 390 125 346 q 56 506 56 435 q 114 642 56 589 q 271 694 172 694 q 446 650 371 694 l 431 538 q 360 574 393 563 q 281 586 326 586 q 204 565 232 586 q 176 507 176 544 q 201 450 176 469 q 296 399 225 431 q 435 309 394 354 q 475 190 475 264 q 415 40 475 94 q 253 -14 356 -14 m 190 -112 l 313 -112 l 313 -236 l 190 -236 l 190 -112 z "},"ṩ":{"ha":500,"x_min":46,"x_max":475,"o":"m 253 -14 q 46 42 133 -14 l 61 164 q 244 94 150 94 q 323 115 294 94 q 351 176 351 136 q 338 226 351 207 q 294 264 325 246 q 200 311 264 282 q 90 390 125 346 q 56 506 56 435 q 114 642 56 589 q 271 694 172 694 q 446 650 371 694 l 431 538 q 360 574 393 563 q 281 586 326 586 q 204 565 232 586 q 176 507 176 544 q 201 450 176 469 q 296 399 225 431 q 435 309 394 354 q 475 190 475 264 q 415 40 475 94 q 253 -14 356 -14 m 217 944 l 339 944 l 339 821 l 217 821 l 217 944 m 190 -112 l 313 -112 l 313 -236 l 190 -236 l 190 -112 z "},"ß":{"ha":693,"x_min":24,"x_max":657,"o":"m 415 -19 q 293 0 354 -19 l 293 104 q 410 88 350 88 q 500 117 467 88 q 533 199 533 147 q 507 288 533 254 q 429 357 481 321 q 350 430 376 396 q 324 521 324 464 q 339 597 324 563 q 389 681 354 632 q 440 765 426 732 q 454 840 454 797 q 428 922 454 892 q 354 951 403 951 q 260 903 292 951 q 228 768 228 856 l 228 0 l 107 0 l 107 585 l 24 585 l 35 681 l 107 681 l 107 765 q 175 985 107 910 q 357 1061 243 1061 q 515 1004 456 1061 q 574 851 574 947 q 558 752 574 796 q 504 654 542 708 q 460 583 472 607 q 447 536 447 560 q 467 481 447 504 q 529 422 486 457 q 595 364 569 390 q 639 298 621 338 q 657 204 657 258 q 625 85 657 136 q 538 8 593 35 q 415 -19 482 -19 z "},"t":{"ha":414,"x_min":24,"x_max":386,"o":"m 274 -14 q 156 33 194 -14 q 118 149 118 81 l 118 585 l 24 585 l 35 681 l 118 681 l 118 849 l 239 861 l 239 681 l 386 681 l 386 585 l 239 585 l 239 197 q 262 110 239 135 q 342 85 285 85 l 385 85 l 374 -14 l 274 -14 z "},"ŧ":{"ha":414,"x_min":24,"x_max":386,"o":"m 239 585 l 239 424 l 378 424 l 378 338 l 239 338 l 239 197 q 262 110 239 135 q 342 85 285 85 l 385 85 l 374 -14 l 274 -14 q 156 33 194 -14 q 118 149 118 81 l 118 338 l 24 338 l 24 424 l 118 424 l 118 585 l 24 585 l 35 681 l 118 681 l 118 849 l 239 861 l 239 681 l 386 681 l 386 585 l 239 585 z "},"ť":{"ha":414,"x_min":24,"x_max":425,"o":"m 274 -14 q 156 33 194 -14 q 118 149 118 81 l 118 585 l 24 585 l 35 681 l 118 681 l 118 849 l 239 861 l 239 681 l 386 681 l 386 585 l 239 585 l 239 197 q 262 110 239 135 q 342 85 285 85 l 385 85 l 374 -14 l 274 -14 m 297 983 l 425 983 l 386 751 l 297 751 l 297 983 z "},"ţ":{"ha":414,"x_min":24,"x_max":392,"o":"m 279 -75 q 362 -106 332 -75 q 392 -187 392 -136 q 352 -281 392 -247 q 251 -314 313 -314 q 160 -296 199 -314 l 181 -231 q 251 -246 215 -246 q 299 -231 282 -246 q 317 -187 317 -217 q 301 -147 317 -161 q 257 -132 286 -132 q 206 -140 235 -132 l 236 -11 q 147 44 176 0 q 118 149 118 89 l 118 585 l 24 585 l 35 681 l 118 681 l 118 849 l 239 861 l 239 681 l 386 681 l 386 585 l 239 585 l 239 197 q 262 110 239 135 q 342 85 285 85 l 385 85 l 374 -14 l 299 -14 l 279 -75 z "},"ț":{"ha":414,"x_min":24,"x_max":386,"o":"m 274 -14 q 156 33 194 -14 q 118 149 118 81 l 118 585 l 24 585 l 35 681 l 118 681 l 118 849 l 239 861 l 239 681 l 386 681 l 386 585 l 239 585 l 239 197 q 262 110 239 135 q 342 85 285 85 l 385 85 l 374 -14 l 274 -14 m 190 -394 l 240 -246 l 194 -246 l 194 -126 l 322 -126 l 322 -232 l 250 -394 l 190 -394 z "},"ẗ":{"ha":414,"x_min":14,"x_max":386,"o":"m 274 -14 q 156 33 194 -14 q 118 149 118 81 l 118 585 l 24 585 l 35 681 l 118 681 l 118 849 l 239 861 l 239 681 l 386 681 l 386 585 l 239 585 l 239 197 q 262 110 239 135 q 342 85 285 85 l 385 85 l 374 -14 l 274 -14 m 14 1103 l 128 1103 l 128 992 l 14 992 l 14 1103 m 231 1103 l 344 1103 l 344 992 l 231 992 l 231 1103 z "},"ṭ":{"ha":414,"x_min":24,"x_max":386,"o":"m 274 -14 q 156 33 194 -14 q 118 149 118 81 l 118 585 l 24 585 l 35 681 l 118 681 l 118 849 l 239 861 l 239 681 l 386 681 l 386 585 l 239 585 l 239 197 q 262 110 239 135 q 342 85 285 85 l 385 85 l 374 -14 l 274 -14 m 197 -112 l 319 -112 l 319 -236 l 197 -236 l 197 -112 z "},"ṯ":{"ha":414,"x_min":24,"x_max":453,"o":"m 274 -14 q 156 33 194 -14 q 118 149 118 81 l 118 585 l 24 585 l 35 681 l 118 681 l 118 849 l 239 861 l 239 681 l 386 681 l 386 585 l 239 585 l 239 197 q 262 110 239 135 q 342 85 285 85 l 385 85 l 374 -14 l 274 -14 m 64 -129 l 453 -129 l 453 -224 l 64 -224 l 64 -129 z "},"u":{"ha":660,"x_min":64,"x_max":565,"o":"m 565 681 l 565 0 l 463 0 l 454 83 q 379 12 426 38 q 275 -14 332 -14 q 116 58 168 -14 q 64 263 64 129 l 64 681 l 185 681 l 185 278 q 212 141 185 186 q 303 96 239 96 q 383 121 347 96 q 444 190 419 146 l 444 681 l 565 681 z "},"ú":{"ha":660,"x_min":64,"x_max":565,"o":"m 565 681 l 565 0 l 463 0 l 454 83 q 379 12 426 38 q 275 -14 332 -14 q 116 58 168 -14 q 64 263 64 129 l 64 681 l 185 681 l 185 278 q 212 141 185 186 q 303 96 239 96 q 383 121 347 96 q 444 190 419 146 l 444 681 l 565 681 m 210 896 l 414 1026 l 414 890 l 210 811 l 210 896 z "},"ŭ":{"ha":660,"x_min":64,"x_max":565,"o":"m 565 681 l 565 0 l 463 0 l 454 83 q 379 12 426 38 q 275 -14 332 -14 q 116 58 168 -14 q 64 263 64 129 l 64 681 l 185 681 l 185 278 q 212 141 185 186 q 303 96 239 96 q 383 121 347 96 q 444 190 419 146 l 444 681 l 565 681 m 311 800 q 171 849 219 800 q 122 968 122 897 l 231 968 q 251 911 231 932 q 311 890 271 890 q 372 911 351 890 q 392 968 392 932 l 500 968 q 451 849 500 897 q 311 800 403 800 z "},"û":{"ha":660,"x_min":64,"x_max":565,"o":"m 565 681 l 565 0 l 463 0 l 454 83 q 379 12 426 38 q 275 -14 332 -14 q 116 58 168 -14 q 64 263 64 129 l 64 681 l 185 681 l 185 278 q 212 141 185 186 q 303 96 239 96 q 383 121 347 96 q 444 190 419 146 l 444 681 l 565 681 m 163 867 l 311 993 l 460 867 l 460 783 l 311 876 l 163 783 l 163 867 z "},"ȕ":{"ha":660,"x_min":51,"x_max":565,"o":"m 565 681 l 565 0 l 463 0 l 454 83 q 379 12 426 38 q 275 -14 332 -14 q 116 58 168 -14 q 64 263 64 129 l 64 681 l 185 681 l 185 278 q 212 141 185 186 q 303 96 239 96 q 383 121 347 96 q 444 190 419 146 l 444 681 l 565 681 m 178 803 l 51 1033 l 188 1033 l 269 803 l 178 803 m 372 803 l 253 1033 l 379 1033 l 456 803 l 372 803 z "},"ü":{"ha":660,"x_min":64,"x_max":565,"o":"m 565 681 l 565 0 l 463 0 l 454 83 q 379 12 426 38 q 275 -14 332 -14 q 116 58 168 -14 q 64 263 64 129 l 64 681 l 185 681 l 185 278 q 212 141 185 186 q 303 96 239 96 q 383 121 347 96 q 444 190 419 146 l 444 681 l 565 681 m 146 932 l 260 932 l 260 821 l 146 821 l 146 932 m 363 932 l 476 932 l 476 821 l 363 821 l 363 932 z "},"ụ":{"ha":660,"x_min":64,"x_max":565,"o":"m 565 681 l 565 0 l 463 0 l 454 83 q 379 12 426 38 q 275 -14 332 -14 q 116 58 168 -14 q 64 263 64 129 l 64 681 l 185 681 l 185 278 q 212 141 185 186 q 303 96 239 96 q 383 121 347 96 q 444 190 419 146 l 444 681 l 565 681 m 229 -112 l 351 -112 l 351 -236 l 229 -236 l 229 -112 z "},"ù":{"ha":660,"x_min":64,"x_max":565,"o":"m 565 681 l 565 0 l 463 0 l 454 83 q 379 12 426 38 q 275 -14 332 -14 q 116 58 168 -14 q 64 263 64 129 l 64 681 l 185 681 l 185 278 q 212 141 185 186 q 303 96 239 96 q 383 121 347 96 q 444 190 419 146 l 444 681 l 565 681 m 208 890 l 208 1028 l 413 899 l 413 811 l 208 890 z "},"ủ":{"ha":660,"x_min":64,"x_max":565,"o":"m 565 681 l 565 0 l 463 0 l 454 83 q 379 12 426 38 q 275 -14 332 -14 q 116 58 168 -14 q 64 263 64 129 l 64 681 l 185 681 l 185 278 q 212 141 185 186 q 303 96 239 96 q 383 121 347 96 q 444 190 419 146 l 444 681 l 565 681 m 285 775 q 324 826 314 807 q 335 867 335 844 q 322 901 335 889 q 289 913 310 913 q 215 889 258 913 l 192 956 q 296 979 236 979 q 380 950 347 979 q 413 871 413 921 q 394 799 413 829 q 332 729 375 768 l 285 775 z "},"ư":{"ha":660,"x_min":64,"x_max":689,"o":"m 565 681 l 565 0 l 463 0 l 454 83 q 379 12 426 38 q 275 -14 332 -14 q 116 58 168 -14 q 64 263 64 129 l 64 681 l 185 681 l 185 278 q 212 141 185 186 q 303 96 239 96 q 383 121 347 96 q 444 190 419 146 l 444 681 l 565 681 m 479 681 q 576 783 576 681 l 689 783 q 630 644 689 697 q 479 592 571 592 l 479 681 z "},"ứ":{"ha":660,"x_min":64,"x_max":689,"o":"m 565 681 l 565 0 l 463 0 l 454 83 q 379 12 426 38 q 275 -14 332 -14 q 116 58 168 -14 q 64 263 64 129 l 64 681 l 185 681 l 185 278 q 212 141 185 186 q 303 96 239 96 q 383 121 347 96 q 444 190 419 146 l 444 681 l 565 681 m 479 681 q 576 783 576 681 l 689 783 q 630 644 689 697 q 479 592 571 592 l 479 681 m 210 896 l 414 1026 l 414 890 l 210 811 l 210 896 z "},"ự":{"ha":660,"x_min":64,"x_max":689,"o":"m 565 681 l 565 0 l 463 0 l 454 83 q 379 12 426 38 q 275 -14 332 -14 q 116 58 168 -14 q 64 263 64 129 l 64 681 l 185 681 l 185 278 q 212 141 185 186 q 303 96 239 96 q 383 121 347 96 q 444 190 419 146 l 444 681 l 565 681 m 479 681 q 576 783 576 681 l 689 783 q 630 644 689 697 q 479 592 571 592 l 479 681 m 229 -112 l 351 -112 l 351 -236 l 229 -236 l 229 -112 z "},"ừ":{"ha":660,"x_min":64,"x_max":689,"o":"m 565 681 l 565 0 l 463 0 l 454 83 q 379 12 426 38 q 275 -14 332 -14 q 116 58 168 -14 q 64 263 64 129 l 64 681 l 185 681 l 185 278 q 212 141 185 186 q 303 96 239 96 q 383 121 347 96 q 444 190 419 146 l 444 681 l 565 681 m 479 681 q 576 783 576 681 l 689 783 q 630 644 689 697 q 479 592 571 592 l 479 681 m 208 890 l 208 1028 l 413 899 l 413 811 l 208 890 z "},"ử":{"ha":660,"x_min":64,"x_max":689,"o":"m 565 681 l 565 0 l 463 0 l 454 83 q 379 12 426 38 q 275 -14 332 -14 q 116 58 168 -14 q 64 263 64 129 l 64 681 l 185 681 l 185 278 q 212 141 185 186 q 303 96 239 96 q 383 121 347 96 q 444 190 419 146 l 444 681 l 565 681 m 479 681 q 576 783 576 681 l 689 783 q 630 644 689 697 q 479 592 571 592 l 479 681 m 285 775 q 324 826 314 807 q 335 867 335 844 q 322 901 335 889 q 289 913 310 913 q 215 889 258 913 l 192 956 q 296 979 236 979 q 380 950 347 979 q 413 871 413 921 q 394 799 413 829 q 332 729 375 768 l 285 775 z "},"ữ":{"ha":660,"x_min":64,"x_max":689,"o":"m 565 681 l 565 0 l 463 0 l 454 83 q 379 12 426 38 q 275 -14 332 -14 q 116 58 168 -14 q 64 263 64 129 l 64 681 l 185 681 l 185 278 q 212 141 185 186 q 303 96 239 96 q 383 121 347 96 q 444 190 419 146 l 444 681 l 565 681 m 479 681 q 576 783 576 681 l 689 783 q 630 644 689 697 q 479 592 571 592 l 479 681 m 408 806 q 360 815 381 806 q 310 843 339 825 q 246 871 272 871 q 218 856 228 871 q 208 817 208 842 l 108 817 q 214 971 115 971 q 263 961 242 971 q 313 933 283 951 q 376 906 350 906 q 404 920 394 906 q 414 960 414 935 l 514 960 q 408 806 507 806 z "},"ű":{"ha":660,"x_min":64,"x_max":575,"o":"m 565 681 l 565 0 l 463 0 l 454 83 q 379 12 426 38 q 275 -14 332 -14 q 116 58 168 -14 q 64 263 64 129 l 64 681 l 185 681 l 185 278 q 212 141 185 186 q 303 96 239 96 q 383 121 347 96 q 444 190 419 146 l 444 681 l 565 681 m 253 1033 l 385 1033 l 256 803 l 168 803 l 253 1033 m 444 1033 l 575 1033 l 439 803 l 353 803 l 444 1033 z "},"ȗ":{"ha":660,"x_min":64,"x_max":565,"o":"m 565 681 l 565 0 l 463 0 l 454 83 q 379 12 426 38 q 275 -14 332 -14 q 116 58 168 -14 q 64 263 64 129 l 64 681 l 185 681 l 185 278 q 212 141 185 186 q 303 96 239 96 q 383 121 347 96 q 444 190 419 146 l 444 681 l 565 681 m 311 961 q 451 915 403 961 q 500 800 500 868 l 392 800 q 372 852 392 833 q 311 871 351 871 q 251 852 271 871 q 231 800 231 833 l 122 800 q 171 915 122 868 q 311 961 219 961 z "},"ū":{"ha":660,"x_min":64,"x_max":565,"o":"m 565 681 l 565 0 l 463 0 l 454 83 q 379 12 426 38 q 275 -14 332 -14 q 116 58 168 -14 q 64 263 64 129 l 64 681 l 185 681 l 185 278 q 212 141 185 186 q 303 96 239 96 q 383 121 347 96 q 444 190 419 146 l 444 681 l 565 681 m 117 917 l 506 917 l 506 822 l 117 822 l 117 917 z "},"ṻ":{"ha":660,"x_min":64,"x_max":565,"o":"m 565 681 l 565 0 l 463 0 l 454 83 q 379 12 426 38 q 275 -14 332 -14 q 116 58 168 -14 q 64 263 64 129 l 64 681 l 185 681 l 185 278 q 212 141 185 186 q 303 96 239 96 q 383 121 347 96 q 444 190 419 146 l 444 681 l 565 681 m 103 901 l 519 901 l 519 810 l 103 810 l 103 901 m 146 1128 l 263 1128 l 263 1024 l 146 1024 l 146 1128 m 360 1128 l 476 1128 l 476 1024 l 360 1024 l 360 1128 z "},"ų":{"ha":660,"x_min":64,"x_max":618,"o":"m 618 -271 q 526 -289 579 -289 q 429 -258 468 -289 q 390 -174 390 -228 q 417 -84 390 -125 q 492 0 444 -43 l 463 0 l 454 83 q 379 12 426 38 q 275 -14 332 -14 q 116 58 168 -14 q 64 263 64 129 l 64 681 l 185 681 l 185 278 q 212 141 185 186 q 303 96 239 96 q 383 121 347 96 q 444 190 419 146 l 444 681 l 565 681 l 565 0 q 494 -83 518 -47 q 471 -157 471 -119 q 489 -202 471 -186 q 538 -218 507 -218 q 597 -206 568 -218 l 618 -271 z "},"ů":{"ha":660,"x_min":64,"x_max":565,"o":"m 565 681 l 565 0 l 463 0 l 454 83 q 379 12 426 38 q 275 -14 332 -14 q 116 58 168 -14 q 64 263 64 129 l 64 681 l 185 681 l 185 278 q 212 141 185 186 q 303 96 239 96 q 383 121 347 96 q 444 190 419 146 l 444 681 l 565 681 m 311 789 q 215 829 249 789 q 181 928 181 869 q 215 1026 181 985 q 311 1067 249 1067 q 408 1026 375 1067 q 442 928 442 986 q 408 829 442 869 q 311 789 375 789 m 311 849 q 358 870 340 849 q 376 928 376 892 q 358 985 376 963 q 311 1007 340 1007 q 264 985 282 1007 q 246 928 246 963 q 264 870 246 892 q 311 849 282 849 z "},"ũ":{"ha":660,"x_min":64,"x_max":565,"o":"m 565 681 l 565 0 l 463 0 l 454 83 q 379 12 426 38 q 275 -14 332 -14 q 116 58 168 -14 q 64 263 64 129 l 64 681 l 185 681 l 185 278 q 212 141 185 186 q 303 96 239 96 q 383 121 347 96 q 444 190 419 146 l 444 681 l 565 681 m 408 806 q 360 815 381 806 q 310 843 339 825 q 246 871 272 871 q 218 856 228 871 q 208 817 208 842 l 108 817 q 214 971 115 971 q 263 961 242 971 q 313 933 283 951 q 376 906 350 906 q 404 920 394 906 q 414 960 414 935 l 514 960 q 408 806 507 806 z "},"ṹ":{"ha":660,"x_min":64,"x_max":565,"o":"m 565 681 l 565 0 l 463 0 l 454 83 q 379 12 426 38 q 275 -14 332 -14 q 116 58 168 -14 q 64 263 64 129 l 64 681 l 185 681 l 185 278 q 212 141 185 186 q 303 96 239 96 q 383 121 347 96 q 444 190 419 146 l 444 681 l 565 681 m 410 803 q 365 810 388 803 q 314 832 343 818 q 285 844 310 833 q 243 854 261 854 q 213 842 224 854 q 201 810 201 831 l 111 810 q 138 913 111 876 q 213 949 164 949 q 257 941 235 949 q 308 919 279 933 q 337 908 313 918 q 379 897 361 897 q 410 909 399 897 q 421 942 421 921 l 511 942 q 485 839 511 875 q 410 803 458 803 m 210 1094 l 414 1207 l 414 1078 l 210 1014 l 210 1094 z "},"v":{"ha":583,"x_min":6,"x_max":578,"o":"m 6 681 l 135 681 l 293 143 l 449 681 l 578 681 l 353 0 l 232 0 l 6 681 z "},"w":{"ha":851,"x_min":6,"x_max":844,"o":"m 6 681 l 140 681 l 247 135 l 367 660 l 482 660 l 603 135 l 710 681 l 844 681 l 671 0 l 549 0 l 425 504 l 301 0 l 181 0 l 6 681 z "},"ẃ":{"ha":851,"x_min":6,"x_max":844,"o":"m 6 681 l 140 681 l 247 135 l 367 660 l 482 660 l 603 135 l 710 681 l 844 681 l 671 0 l 549 0 l 425 504 l 301 0 l 181 0 l 6 681 m 325 896 l 529 1026 l 529 890 l 325 811 l 325 896 z "},"ŵ":{"ha":851,"x_min":6,"x_max":844,"o":"m 6 681 l 140 681 l 247 135 l 367 660 l 482 660 l 603 135 l 710 681 l 844 681 l 671 0 l 549 0 l 425 504 l 301 0 l 181 0 l 6 681 m 278 867 l 426 993 l 575 867 l 575 783 l 426 876 l 278 783 l 278 867 z "},"ẅ":{"ha":851,"x_min":6,"x_max":844,"o":"m 6 681 l 140 681 l 247 135 l 367 660 l 482 660 l 603 135 l 710 681 l 844 681 l 671 0 l 549 0 l 425 504 l 301 0 l 181 0 l 6 681 m 261 932 l 375 932 l 375 821 l 261 821 l 261 932 m 478 932 l 592 932 l 592 821 l 478 821 l 478 932 z "},"ẁ":{"ha":851,"x_min":6,"x_max":844,"o":"m 6 681 l 140 681 l 247 135 l 367 660 l 482 660 l 603 135 l 710 681 l 844 681 l 671 0 l 549 0 l 425 504 l 301 0 l 181 0 l 6 681 m 324 890 l 324 1028 l 528 899 l 528 811 l 324 890 z "},"x":{"ha":572,"x_min":11,"x_max":561,"o":"m 210 339 l 14 681 l 157 681 l 289 408 l 410 681 l 556 681 l 364 350 l 561 0 l 417 0 l 285 269 l 154 0 l 11 0 l 210 339 z "},"y":{"ha":618,"x_min":6,"x_max":613,"o":"m 254 31 l 6 681 l 135 681 l 317 174 l 483 681 l 613 681 l 247 -336 l 118 -336 l 254 31 z "},"ý":{"ha":618,"x_min":6,"x_max":613,"o":"m 254 31 l 6 681 l 135 681 l 317 174 l 483 681 l 613 681 l 247 -336 l 118 -336 l 254 31 m 207 896 l 411 1026 l 411 890 l 207 811 l 207 896 z "},"ŷ":{"ha":618,"x_min":6,"x_max":613,"o":"m 254 31 l 6 681 l 135 681 l 317 174 l 483 681 l 613 681 l 247 -336 l 118 -336 l 254 31 m 160 867 l 308 993 l 457 867 l 457 783 l 308 876 l 160 783 l 160 867 z "},"ÿ":{"ha":618,"x_min":6,"x_max":613,"o":"m 254 31 l 6 681 l 135 681 l 317 174 l 483 681 l 613 681 l 247 -336 l 118 -336 l 254 31 m 143 932 l 257 932 l 257 821 l 143 821 l 143 932 m 360 932 l 474 932 l 474 821 l 360 821 l 360 932 z "},"ẏ":{"ha":618,"x_min":6,"x_max":613,"o":"m 254 31 l 6 681 l 135 681 l 317 174 l 483 681 l 613 681 l 247 -336 l 118 -336 l 254 31 m 247 944 l 369 944 l 369 821 l 247 821 l 247 944 z "},"ỵ":{"ha":618,"x_min":6,"x_max":613,"o":"m 254 31 l 6 681 l 135 681 l 317 174 l 483 681 l 613 681 l 247 -336 l 118 -336 l 254 31 m 394 -112 l 517 -112 l 517 -236 l 394 -236 l 394 -112 z "},"ỳ":{"ha":618,"x_min":6,"x_max":613,"o":"m 254 31 l 6 681 l 135 681 l 317 174 l 483 681 l 613 681 l 247 -336 l 118 -336 l 254 31 m 206 890 l 206 1028 l 410 899 l 410 811 l 206 890 z "},"ỷ":{"ha":618,"x_min":6,"x_max":613,"o":"m 254 31 l 6 681 l 135 681 l 317 174 l 483 681 l 613 681 l 247 -336 l 118 -336 l 254 31 m 282 775 q 322 826 311 807 q 332 867 332 844 q 319 901 332 889 q 286 913 307 913 q 213 889 256 913 l 189 956 q 293 979 233 979 q 377 950 344 979 q 410 871 410 921 q 391 799 410 829 q 329 729 372 768 l 282 775 z "},"ȳ":{"ha":618,"x_min":6,"x_max":613,"o":"m 254 31 l 6 681 l 135 681 l 317 174 l 483 681 l 613 681 l 247 -336 l 118 -336 l 254 31 m 114 917 l 503 917 l 503 822 l 114 822 l 114 917 z "},"ỹ":{"ha":618,"x_min":6,"x_max":613,"o":"m 254 31 l 6 681 l 135 681 l 317 174 l 483 681 l 613 681 l 247 -336 l 118 -336 l 254 31 m 406 806 q 357 815 378 806 q 307 843 336 825 q 243 871 269 871 q 215 856 225 871 q 206 817 206 842 l 106 817 q 211 971 113 971 q 260 961 239 971 q 310 933 281 951 q 374 906 347 906 q 401 920 392 906 q 411 960 411 935 l 511 960 q 406 806 504 806 z "},"z":{"ha":564,"x_min":25,"x_max":533,"o":"m 221 108 l 526 108 l 526 0 l 25 0 l 338 571 l 40 571 l 40 681 l 533 681 l 221 108 z "},"ź":{"ha":564,"x_min":25,"x_max":533,"o":"m 221 108 l 526 108 l 526 0 l 25 0 l 338 571 l 40 571 l 40 681 l 533 681 l 221 108 m 186 896 l 390 1026 l 390 890 l 186 811 l 186 896 z "},"ž":{"ha":564,"x_min":25,"x_max":533,"o":"m 221 108 l 526 108 l 526 0 l 25 0 l 338 571 l 40 571 l 40 681 l 533 681 l 221 108 m 139 904 l 139 988 l 288 893 l 436 988 l 436 904 l 288 775 l 139 904 z "},"ż":{"ha":564,"x_min":25,"x_max":533,"o":"m 221 108 l 526 108 l 526 0 l 25 0 l 338 571 l 40 571 l 40 681 l 533 681 l 221 108 m 226 944 l 349 944 l 349 821 l 226 821 l 226 944 z "},"ẓ":{"ha":564,"x_min":25,"x_max":533,"o":"m 221 108 l 526 108 l 526 0 l 25 0 l 338 571 l 40 571 l 40 681 l 533 681 l 221 108 m 215 -112 l 338 -112 l 338 -236 l 215 -236 l 215 -112 z "},"ª":{"ha":414,"x_min":36,"x_max":378,"o":"m 147 603 q 66 632 96 603 q 36 714 36 661 q 92 820 36 786 q 232 861 149 854 q 218 906 229 893 q 175 919 207 919 q 128 913 150 919 q 74 892 106 907 l 67 975 q 204 1007 140 1007 q 301 970 264 1007 q 338 857 338 933 l 338 728 q 343 699 338 708 q 363 690 349 690 l 378 690 l 371 607 l 331 607 q 249 654 272 607 q 206 617 233 632 q 147 603 179 603 m 182 679 q 233 707 210 679 l 233 792 q 167 771 190 788 q 144 721 144 754 q 182 679 144 679 z "},"º":{"ha":443,"x_min":36,"x_max":407,"o":"m 222 603 q 87 662 138 603 q 36 806 36 721 q 86 949 36 890 q 222 1007 136 1007 q 357 949 307 1007 q 407 806 407 890 q 357 662 407 721 q 222 603 307 603 m 222 685 q 280 719 258 685 q 301 806 301 753 q 280 892 301 858 q 222 925 258 925 q 162 892 183 925 q 140 806 140 858 q 162 718 140 751 q 222 685 183 685 z "}}}
